G04 EAGLE Gerber RS-274X export*
G75*
%MOMM*%
%FSLAX34Y34*%
%LPD*%
%AMOC8*
5,1,8,0,0,1.08239X$1,22.5*%
G01*
%ADD10C,0.254000*%


D10*
X0Y0D02*
X655320Y0D01*
X655320Y561340D01*
X0Y561340D01*
X0Y0D01*
X64500Y155205D02*
X64423Y154620D01*
X64270Y154050D01*
X64045Y153505D01*
X63750Y152995D01*
X63391Y152527D01*
X62973Y152109D01*
X62505Y151750D01*
X61995Y151455D01*
X61450Y151230D01*
X60880Y151077D01*
X60295Y151000D01*
X59705Y151000D01*
X59120Y151077D01*
X58550Y151230D01*
X58005Y151455D01*
X57495Y151750D01*
X57027Y152109D01*
X56609Y152527D01*
X56250Y152995D01*
X55955Y153505D01*
X55730Y154050D01*
X55577Y154620D01*
X55500Y155205D01*
X55500Y155795D01*
X55577Y156380D01*
X55730Y156950D01*
X55955Y157495D01*
X56250Y158005D01*
X56609Y158473D01*
X57027Y158891D01*
X57495Y159250D01*
X58005Y159545D01*
X58550Y159770D01*
X59120Y159923D01*
X59705Y160000D01*
X60295Y160000D01*
X60880Y159923D01*
X61450Y159770D01*
X61995Y159545D01*
X62505Y159250D01*
X62973Y158891D01*
X63391Y158473D01*
X63750Y158005D01*
X64045Y157495D01*
X64270Y156950D01*
X64423Y156380D01*
X64500Y155795D01*
X64500Y155205D01*
X64500Y111205D02*
X64423Y110620D01*
X64270Y110050D01*
X64045Y109505D01*
X63750Y108995D01*
X63391Y108527D01*
X62973Y108109D01*
X62505Y107750D01*
X61995Y107455D01*
X61450Y107230D01*
X60880Y107077D01*
X60295Y107000D01*
X59705Y107000D01*
X59120Y107077D01*
X58550Y107230D01*
X58005Y107455D01*
X57495Y107750D01*
X57027Y108109D01*
X56609Y108527D01*
X56250Y108995D01*
X55955Y109505D01*
X55730Y110050D01*
X55577Y110620D01*
X55500Y111205D01*
X55500Y111795D01*
X55577Y112380D01*
X55730Y112950D01*
X55955Y113495D01*
X56250Y114005D01*
X56609Y114473D01*
X57027Y114891D01*
X57495Y115250D01*
X58005Y115545D01*
X58550Y115770D01*
X59120Y115923D01*
X59705Y116000D01*
X60295Y116000D01*
X60880Y115923D01*
X61450Y115770D01*
X61995Y115545D01*
X62505Y115250D01*
X62973Y114891D01*
X63391Y114473D01*
X63750Y114005D01*
X64045Y113495D01*
X64270Y112950D01*
X64423Y112380D01*
X64500Y111795D01*
X64500Y111205D01*
X629000Y524500D02*
X628929Y523503D01*
X628786Y522513D01*
X628574Y521536D01*
X628292Y520576D01*
X627943Y519639D01*
X627527Y518729D01*
X627048Y517852D01*
X626507Y517010D01*
X625908Y516210D01*
X625253Y515454D01*
X624546Y514747D01*
X623790Y514092D01*
X622990Y513493D01*
X622148Y512952D01*
X621271Y512473D01*
X620361Y512057D01*
X619424Y511708D01*
X618465Y511426D01*
X617487Y511214D01*
X616498Y511071D01*
X615500Y511000D01*
X614500Y511000D01*
X613503Y511071D01*
X612513Y511214D01*
X611536Y511426D01*
X610576Y511708D01*
X609639Y512057D01*
X608729Y512473D01*
X607852Y512952D01*
X607010Y513493D01*
X606210Y514092D01*
X605454Y514747D01*
X604747Y515454D01*
X604092Y516210D01*
X603493Y517010D01*
X602952Y517852D01*
X602473Y518729D01*
X602057Y519639D01*
X601708Y520576D01*
X601426Y521536D01*
X601214Y522513D01*
X601071Y523503D01*
X601000Y524500D01*
X601000Y525500D01*
X601071Y526498D01*
X601214Y527487D01*
X601426Y528465D01*
X601708Y529424D01*
X602057Y530361D01*
X602473Y531271D01*
X602952Y532148D01*
X603493Y532990D01*
X604092Y533790D01*
X604747Y534546D01*
X605454Y535253D01*
X606210Y535908D01*
X607010Y536507D01*
X607852Y537048D01*
X608729Y537527D01*
X609639Y537943D01*
X610576Y538292D01*
X611536Y538574D01*
X612513Y538786D01*
X613503Y538929D01*
X614500Y539000D01*
X615500Y539000D01*
X616498Y538929D01*
X617487Y538786D01*
X618465Y538574D01*
X619424Y538292D01*
X620361Y537943D01*
X621271Y537527D01*
X622148Y537048D01*
X622990Y536507D01*
X623790Y535908D01*
X624546Y535253D01*
X625253Y534546D01*
X625908Y533790D01*
X626507Y532990D01*
X627048Y532148D01*
X627527Y531271D01*
X627943Y530361D01*
X628292Y529424D01*
X628574Y528465D01*
X628786Y527487D01*
X628929Y526498D01*
X629000Y525500D01*
X629000Y524500D01*
X629000Y34500D02*
X628929Y33503D01*
X628786Y32513D01*
X628574Y31536D01*
X628292Y30576D01*
X627943Y29639D01*
X627527Y28729D01*
X627048Y27852D01*
X626507Y27010D01*
X625908Y26210D01*
X625253Y25454D01*
X624546Y24747D01*
X623790Y24092D01*
X622990Y23493D01*
X622148Y22952D01*
X621271Y22473D01*
X620361Y22057D01*
X619424Y21708D01*
X618465Y21426D01*
X617487Y21214D01*
X616498Y21071D01*
X615500Y21000D01*
X614500Y21000D01*
X613503Y21071D01*
X612513Y21214D01*
X611536Y21426D01*
X610576Y21708D01*
X609639Y22057D01*
X608729Y22473D01*
X607852Y22952D01*
X607010Y23493D01*
X606210Y24092D01*
X605454Y24747D01*
X604747Y25454D01*
X604092Y26210D01*
X603493Y27010D01*
X602952Y27852D01*
X602473Y28729D01*
X602057Y29639D01*
X601708Y30576D01*
X601426Y31536D01*
X601214Y32513D01*
X601071Y33503D01*
X601000Y34500D01*
X601000Y35500D01*
X601071Y36498D01*
X601214Y37487D01*
X601426Y38465D01*
X601708Y39424D01*
X602057Y40361D01*
X602473Y41271D01*
X602952Y42148D01*
X603493Y42990D01*
X604092Y43790D01*
X604747Y44546D01*
X605454Y45253D01*
X606210Y45908D01*
X607010Y46507D01*
X607852Y47048D01*
X608729Y47527D01*
X609639Y47943D01*
X610576Y48292D01*
X611536Y48574D01*
X612513Y48786D01*
X613503Y48929D01*
X614500Y49000D01*
X615500Y49000D01*
X616498Y48929D01*
X617487Y48786D01*
X618465Y48574D01*
X619424Y48292D01*
X620361Y47943D01*
X621271Y47527D01*
X622148Y47048D01*
X622990Y46507D01*
X623790Y45908D01*
X624546Y45253D01*
X625253Y44546D01*
X625908Y43790D01*
X626507Y42990D01*
X627048Y42148D01*
X627527Y41271D01*
X627943Y40361D01*
X628292Y39424D01*
X628574Y38465D01*
X628786Y37487D01*
X628929Y36498D01*
X629000Y35500D01*
X629000Y34500D01*
X49000Y34500D02*
X48929Y33503D01*
X48786Y32513D01*
X48574Y31536D01*
X48292Y30576D01*
X47943Y29639D01*
X47527Y28729D01*
X47048Y27852D01*
X46507Y27010D01*
X45908Y26210D01*
X45253Y25454D01*
X44546Y24747D01*
X43790Y24092D01*
X42990Y23493D01*
X42148Y22952D01*
X41271Y22473D01*
X40361Y22057D01*
X39424Y21708D01*
X38465Y21426D01*
X37487Y21214D01*
X36498Y21071D01*
X35500Y21000D01*
X34500Y21000D01*
X33503Y21071D01*
X32513Y21214D01*
X31536Y21426D01*
X30576Y21708D01*
X29639Y22057D01*
X28729Y22473D01*
X27852Y22952D01*
X27010Y23493D01*
X26210Y24092D01*
X25454Y24747D01*
X24747Y25454D01*
X24092Y26210D01*
X23493Y27010D01*
X22952Y27852D01*
X22473Y28729D01*
X22057Y29639D01*
X21708Y30576D01*
X21426Y31536D01*
X21214Y32513D01*
X21071Y33503D01*
X21000Y34500D01*
X21000Y35500D01*
X21071Y36498D01*
X21214Y37487D01*
X21426Y38465D01*
X21708Y39424D01*
X22057Y40361D01*
X22473Y41271D01*
X22952Y42148D01*
X23493Y42990D01*
X24092Y43790D01*
X24747Y44546D01*
X25454Y45253D01*
X26210Y45908D01*
X27010Y46507D01*
X27852Y47048D01*
X28729Y47527D01*
X29639Y47943D01*
X30576Y48292D01*
X31536Y48574D01*
X32513Y48786D01*
X33503Y48929D01*
X34500Y49000D01*
X35500Y49000D01*
X36498Y48929D01*
X37487Y48786D01*
X38465Y48574D01*
X39424Y48292D01*
X40361Y47943D01*
X41271Y47527D01*
X42148Y47048D01*
X42990Y46507D01*
X43790Y45908D01*
X44546Y45253D01*
X45253Y44546D01*
X45908Y43790D01*
X46507Y42990D01*
X47048Y42148D01*
X47527Y41271D01*
X47943Y40361D01*
X48292Y39424D01*
X48574Y38465D01*
X48786Y37487D01*
X48929Y36498D01*
X49000Y35500D01*
X49000Y34500D01*
X634909Y266820D02*
X635523Y266751D01*
X636125Y266613D01*
X636708Y266409D01*
X637265Y266141D01*
X637788Y265813D01*
X638271Y265428D01*
X638708Y264991D01*
X639093Y264508D01*
X639421Y263985D01*
X639689Y263428D01*
X639893Y262845D01*
X640031Y262243D01*
X640100Y261629D01*
X640100Y261011D01*
X640031Y260397D01*
X639893Y259795D01*
X639689Y259212D01*
X639421Y258655D01*
X639093Y258132D01*
X638708Y257649D01*
X638271Y257213D01*
X637788Y256827D01*
X637265Y256499D01*
X636708Y256231D01*
X636125Y256027D01*
X635523Y255889D01*
X634909Y255820D01*
X634291Y255820D01*
X633677Y255889D01*
X633075Y256027D01*
X632492Y256231D01*
X631935Y256499D01*
X631412Y256827D01*
X630929Y257213D01*
X630493Y257649D01*
X630107Y258132D01*
X629779Y258655D01*
X629511Y259212D01*
X629307Y259795D01*
X629169Y260397D01*
X629100Y261011D01*
X629100Y261629D01*
X629169Y262243D01*
X629307Y262845D01*
X629511Y263428D01*
X629779Y263985D01*
X630107Y264508D01*
X630493Y264991D01*
X630929Y265428D01*
X631412Y265813D01*
X631935Y266141D01*
X632492Y266409D01*
X633075Y266613D01*
X633677Y266751D01*
X634291Y266820D01*
X634909Y266820D01*
X634909Y292820D02*
X635523Y292751D01*
X636125Y292613D01*
X636708Y292409D01*
X637265Y292141D01*
X637788Y291813D01*
X638271Y291428D01*
X638708Y290991D01*
X639093Y290508D01*
X639421Y289985D01*
X639689Y289428D01*
X639893Y288845D01*
X640031Y288243D01*
X640100Y287629D01*
X640100Y287011D01*
X640031Y286397D01*
X639893Y285795D01*
X639689Y285212D01*
X639421Y284655D01*
X639093Y284132D01*
X638708Y283649D01*
X638271Y283213D01*
X637788Y282827D01*
X637265Y282499D01*
X636708Y282231D01*
X636125Y282027D01*
X635523Y281889D01*
X634909Y281820D01*
X634291Y281820D01*
X633677Y281889D01*
X633075Y282027D01*
X632492Y282231D01*
X631935Y282499D01*
X631412Y282827D01*
X630929Y283213D01*
X630493Y283649D01*
X630107Y284132D01*
X629779Y284655D01*
X629511Y285212D01*
X629307Y285795D01*
X629169Y286397D01*
X629100Y287011D01*
X629100Y287629D01*
X629169Y288243D01*
X629307Y288845D01*
X629511Y289428D01*
X629779Y289985D01*
X630107Y290508D01*
X630493Y290991D01*
X630929Y291428D01*
X631412Y291813D01*
X631935Y292141D01*
X632492Y292409D01*
X633075Y292613D01*
X633677Y292751D01*
X634291Y292820D01*
X634909Y292820D01*
X81001Y354530D02*
X80449Y354457D01*
X79911Y354313D01*
X79396Y354100D01*
X78914Y353821D01*
X78472Y353482D01*
X78078Y353088D01*
X77739Y352646D01*
X77460Y352164D01*
X77247Y351649D01*
X77103Y351111D01*
X77030Y350559D01*
X77030Y350001D01*
X77103Y349449D01*
X77247Y348911D01*
X77460Y348396D01*
X77739Y347914D01*
X78078Y347472D01*
X78472Y347078D01*
X78914Y346739D01*
X79396Y346460D01*
X79911Y346247D01*
X80449Y346103D01*
X81001Y346030D01*
X81559Y346030D01*
X82111Y346103D01*
X82649Y346247D01*
X83164Y346460D01*
X83646Y346739D01*
X84088Y347078D01*
X84482Y347472D01*
X84821Y347914D01*
X85100Y348396D01*
X85313Y348911D01*
X85457Y349449D01*
X85530Y350001D01*
X85530Y350559D01*
X85457Y351111D01*
X85313Y351649D01*
X85100Y352164D01*
X84821Y352646D01*
X84482Y353088D01*
X84088Y353482D01*
X83646Y353821D01*
X83164Y354100D01*
X82649Y354313D01*
X82111Y354457D01*
X81559Y354530D01*
X81001Y354530D01*
X81001Y324530D02*
X80449Y324457D01*
X79911Y324313D01*
X79396Y324100D01*
X78914Y323821D01*
X78472Y323482D01*
X78078Y323088D01*
X77739Y322646D01*
X77460Y322164D01*
X77247Y321649D01*
X77103Y321111D01*
X77030Y320559D01*
X77030Y320001D01*
X77103Y319449D01*
X77247Y318911D01*
X77460Y318396D01*
X77739Y317914D01*
X78078Y317472D01*
X78472Y317078D01*
X78914Y316739D01*
X79396Y316460D01*
X79911Y316247D01*
X80449Y316103D01*
X81001Y316030D01*
X81559Y316030D01*
X82111Y316103D01*
X82649Y316247D01*
X83164Y316460D01*
X83646Y316739D01*
X84088Y317078D01*
X84482Y317472D01*
X84821Y317914D01*
X85100Y318396D01*
X85313Y318911D01*
X85457Y319449D01*
X85530Y320001D01*
X85530Y320559D01*
X85457Y321111D01*
X85313Y321649D01*
X85100Y322164D01*
X84821Y322646D01*
X84482Y323088D01*
X84088Y323482D01*
X83646Y323821D01*
X83164Y324100D01*
X82649Y324313D01*
X82111Y324457D01*
X81559Y324530D01*
X81001Y324530D01*
M02*
