M48
;GenerationSoftware,Autodesk,EAGLE,9.1.3*%
;CreationDate,2020-12-02T03:21:54Z*%
FMAT,2
ICI,OFF
METRIC,TZ,000.000
T12C0.350
T11C0.550
T10C0.600
T9C0.700
T8C0.800
T7C0.850
T6C0.900
T5C0.914
T4C1.016
T3C1.100
T2C1.200
T1C2.800
%
G90
M71
T1
X61500Y52500
X61500Y3500
X3500Y3500
T2
X60960Y26162
X60960Y28702
T3
X63460Y26132
X63460Y28732
T4
X34770Y38770
X32230Y38770
X34770Y41310
X32230Y41310
X16230Y41310
X18770Y41310
X16230Y38770
X16230Y36230
X18770Y36230
X16230Y33690
X18770Y33690
X31844Y45279
X18770Y38770
X29304Y45533
X26764Y45279
X24224Y45533
X21684Y45279
X19144Y45533
X19156Y30242
X21696Y29988
X24236Y30242
X26776Y29988
X29316Y30242
X31856Y29988
X62917Y36682
X62917Y39577
X43168Y37715
X43168Y40611
X11854Y18056
X14750Y18056
X40543Y13515
X40543Y18595
X35128Y48260
X38024Y48260
X7366Y42164
X10414Y42164
X2794Y38608
X2540Y41148
X2794Y43688
X2540Y46228
X2794Y48768
X2540Y51308
X40797Y16055
X34770Y33690
X32230Y33690
X34770Y36230
X32230Y36230
T5
X62779Y46996
X62779Y44456
T6
X6000Y15550
X6000Y11150
T7
X8128Y35028
X8128Y32028
T8
X8128Y45974
X10668Y45974
X13208Y45974
X49246Y3000
X51786Y3000
T9
X24386Y9211
X28500Y18000
X28448Y9652
X8382Y37338
X16764Y20320
X4572Y26924
X28500Y24000
T10
X13970Y26670
X46228Y10160
X44196Y7620
X32512Y2032
X63000Y15000
X10400Y11000
X5334Y48514
X11811Y24892
X12954Y23368
X27000Y37500
X56188Y39111
X59293Y41111
X24000Y39000
X47000Y13000
X39116Y43434
X13462Y28956
X50000Y44000
X21400Y2600
X20400Y10400
X16200Y3000
X13000Y1400
T11
X57404Y24892
X39624Y33528
X47244Y27432
X40640Y25400
T12
X25908Y50292
M30