G04 EAGLE Gerber RS-274X export*
G75*
%MOMM*%
%FSLAX34Y34*%
%LPD*%
%AMOC8*
5,1,8,0,0,1.08239X$1,22.5*%
G01*
%ADD10C,0.076200*%
%ADD11C,1.103200*%
%ADD12C,2.082800*%
%ADD13C,1.320800*%
%ADD14P,1.539592X8X112.500000*%
%ADD15P,1.539592X8X292.500000*%
%ADD16C,3.003200*%
%ADD17C,1.879600*%
%ADD18C,1.206400*%
%ADD19C,1.606400*%
%ADD20C,1.303200*%
%ADD21R,1.703200X1.353200*%
%ADD22R,1.353200X2.403200*%
%ADD23R,1.153200X2.703200*%
%ADD24R,1.003200X1.443200*%
%ADD25R,1.363200X1.403200*%
%ADD26R,1.353200X1.203200*%
%ADD27C,1.053200*%
%ADD28R,1.473200X0.838200*%
%ADD29R,1.209600X1.209600*%
%ADD30R,1.309600X1.309600*%
%ADD31R,1.159600X1.159600*%
%ADD32R,0.959600X0.959600*%

G36*
X92775Y285762D02*
X92775Y285762D01*
X92841Y285764D01*
X92884Y285782D01*
X92931Y285790D01*
X92988Y285824D01*
X93048Y285849D01*
X93083Y285880D01*
X93124Y285905D01*
X93166Y285956D01*
X93214Y286000D01*
X93236Y286042D01*
X93265Y286079D01*
X93286Y286141D01*
X93317Y286200D01*
X93325Y286254D01*
X93337Y286291D01*
X93336Y286331D01*
X93344Y286385D01*
X93344Y290195D01*
X93333Y290260D01*
X93331Y290326D01*
X93313Y290369D01*
X93305Y290416D01*
X93271Y290473D01*
X93246Y290533D01*
X93215Y290568D01*
X93190Y290609D01*
X93139Y290651D01*
X93095Y290699D01*
X93053Y290721D01*
X93016Y290750D01*
X92954Y290771D01*
X92895Y290802D01*
X92841Y290810D01*
X92804Y290822D01*
X92764Y290821D01*
X92710Y290829D01*
X90170Y290829D01*
X90105Y290818D01*
X90039Y290816D01*
X89996Y290798D01*
X89949Y290790D01*
X89892Y290756D01*
X89832Y290731D01*
X89797Y290700D01*
X89756Y290675D01*
X89715Y290624D01*
X89666Y290580D01*
X89644Y290538D01*
X89615Y290501D01*
X89594Y290439D01*
X89563Y290380D01*
X89555Y290326D01*
X89543Y290289D01*
X89543Y290285D01*
X89543Y290284D01*
X89544Y290249D01*
X89536Y290195D01*
X89536Y286385D01*
X89547Y286320D01*
X89549Y286254D01*
X89567Y286211D01*
X89575Y286164D01*
X89609Y286107D01*
X89634Y286047D01*
X89665Y286012D01*
X89690Y285971D01*
X89741Y285930D01*
X89785Y285881D01*
X89827Y285859D01*
X89864Y285830D01*
X89926Y285809D01*
X89985Y285778D01*
X90039Y285770D01*
X90076Y285758D01*
X90116Y285759D01*
X90170Y285751D01*
X92710Y285751D01*
X92775Y285762D01*
G37*
G36*
X74995Y285762D02*
X74995Y285762D01*
X75061Y285764D01*
X75104Y285782D01*
X75151Y285790D01*
X75208Y285824D01*
X75268Y285849D01*
X75303Y285880D01*
X75344Y285905D01*
X75386Y285956D01*
X75434Y286000D01*
X75456Y286042D01*
X75485Y286079D01*
X75506Y286141D01*
X75537Y286200D01*
X75545Y286254D01*
X75557Y286291D01*
X75556Y286331D01*
X75564Y286385D01*
X75564Y290195D01*
X75553Y290260D01*
X75551Y290326D01*
X75533Y290369D01*
X75525Y290416D01*
X75491Y290473D01*
X75466Y290533D01*
X75435Y290568D01*
X75410Y290609D01*
X75359Y290651D01*
X75315Y290699D01*
X75273Y290721D01*
X75236Y290750D01*
X75174Y290771D01*
X75115Y290802D01*
X75061Y290810D01*
X75024Y290822D01*
X74984Y290821D01*
X74930Y290829D01*
X72390Y290829D01*
X72325Y290818D01*
X72259Y290816D01*
X72216Y290798D01*
X72169Y290790D01*
X72112Y290756D01*
X72052Y290731D01*
X72017Y290700D01*
X71976Y290675D01*
X71935Y290624D01*
X71886Y290580D01*
X71864Y290538D01*
X71835Y290501D01*
X71814Y290439D01*
X71783Y290380D01*
X71775Y290326D01*
X71763Y290289D01*
X71763Y290285D01*
X71763Y290284D01*
X71764Y290249D01*
X71756Y290195D01*
X71756Y286385D01*
X71767Y286320D01*
X71769Y286254D01*
X71787Y286211D01*
X71795Y286164D01*
X71829Y286107D01*
X71854Y286047D01*
X71885Y286012D01*
X71910Y285971D01*
X71961Y285930D01*
X72005Y285881D01*
X72047Y285859D01*
X72084Y285830D01*
X72146Y285809D01*
X72205Y285778D01*
X72259Y285770D01*
X72296Y285758D01*
X72336Y285759D01*
X72390Y285751D01*
X74930Y285751D01*
X74995Y285762D01*
G37*
D10*
X78442Y437261D02*
X78442Y444633D01*
X80899Y444633D02*
X75984Y444633D01*
X73415Y444633D02*
X68500Y437261D01*
X73415Y437261D02*
X68500Y444633D01*
X111379Y444633D02*
X111379Y437261D01*
X111379Y444633D02*
X107693Y444633D01*
X106464Y443405D01*
X106464Y440947D01*
X107693Y439718D01*
X111379Y439718D01*
X108922Y439718D02*
X106464Y437261D01*
X98980Y437261D02*
X103895Y444633D01*
X98980Y444633D02*
X103895Y437261D01*
X40259Y312553D02*
X40259Y305181D01*
X40259Y312553D02*
X36573Y312553D01*
X35344Y311325D01*
X35344Y308867D01*
X36573Y307638D01*
X40259Y307638D01*
X32775Y305181D02*
X30317Y305181D01*
X31546Y305181D02*
X31546Y312553D01*
X32775Y312553D02*
X30317Y312553D01*
X24099Y312553D02*
X22871Y311325D01*
X24099Y312553D02*
X26557Y312553D01*
X27785Y311325D01*
X27785Y306410D01*
X26557Y305181D01*
X24099Y305181D01*
X22871Y306410D01*
X40259Y355981D02*
X40259Y360896D01*
X37802Y363353D01*
X35344Y360896D01*
X35344Y355981D01*
X35344Y359667D02*
X40259Y359667D01*
X32775Y363353D02*
X32775Y355981D01*
X27860Y355981D01*
X22833Y355981D02*
X22833Y363353D01*
X20376Y363353D02*
X25291Y363353D01*
X214373Y48393D02*
X213144Y47165D01*
X214373Y48393D02*
X216830Y48393D01*
X218059Y47165D01*
X218059Y42250D01*
X216830Y41021D01*
X214373Y41021D01*
X213144Y42250D01*
X213144Y44707D01*
X215602Y44707D01*
X210575Y41021D02*
X210575Y48393D01*
X205660Y41021D01*
X205660Y48393D01*
X203091Y48393D02*
X203091Y41021D01*
X199405Y41021D01*
X198176Y42250D01*
X198176Y47165D01*
X199405Y48393D01*
X203091Y48393D01*
X406184Y42085D02*
X407413Y43313D01*
X409870Y43313D01*
X411099Y42085D01*
X411099Y37170D01*
X409870Y35941D01*
X407413Y35941D01*
X406184Y37170D01*
X406184Y39627D01*
X408642Y39627D01*
X403615Y35941D02*
X403615Y43313D01*
X398700Y35941D01*
X398700Y43313D01*
X396131Y43313D02*
X396131Y35941D01*
X392445Y35941D01*
X391216Y37170D01*
X391216Y42085D01*
X392445Y43313D01*
X396131Y43313D01*
X365544Y184325D02*
X366773Y185553D01*
X369230Y185553D01*
X370459Y184325D01*
X370459Y179410D01*
X369230Y178181D01*
X366773Y178181D01*
X365544Y179410D01*
X365544Y181867D01*
X368002Y181867D01*
X362975Y178181D02*
X362975Y185553D01*
X358060Y178181D01*
X358060Y185553D01*
X355491Y185553D02*
X355491Y178181D01*
X351805Y178181D01*
X350576Y179410D01*
X350576Y184325D01*
X351805Y185553D01*
X355491Y185553D01*
D11*
X60000Y155500D03*
X60000Y111500D03*
D12*
X27940Y386080D03*
X25400Y411480D03*
X27940Y436880D03*
X25400Y462280D03*
X27940Y487680D03*
X25400Y513080D03*
D13*
X622202Y444560D02*
X633378Y444560D01*
X633378Y469960D02*
X622202Y469960D01*
D14*
X347700Y336900D03*
X322300Y336900D03*
X347700Y362300D03*
X322300Y362300D03*
X347700Y387700D03*
X322300Y387700D03*
X347700Y413100D03*
X322300Y413100D03*
D15*
X162300Y413100D03*
X187700Y413100D03*
X162300Y387700D03*
X187700Y387700D03*
X162300Y362300D03*
X187700Y362300D03*
X162300Y336900D03*
X187700Y336900D03*
D12*
X318440Y452792D03*
X293040Y455332D03*
X267640Y452792D03*
X242240Y455332D03*
X216840Y452792D03*
X191440Y455332D03*
X191560Y302424D03*
X216960Y299884D03*
X242360Y302424D03*
X267760Y299884D03*
X293160Y302424D03*
X318560Y299884D03*
X629170Y366818D03*
X629170Y395774D03*
X431684Y377154D03*
X431684Y406110D03*
X118542Y180560D03*
X147498Y180560D03*
X405430Y135150D03*
X407970Y160550D03*
X405430Y185950D03*
D16*
X615000Y525000D03*
X615000Y35000D03*
X35000Y35000D03*
D17*
X492460Y30000D03*
X517860Y30000D03*
D12*
X351282Y482600D03*
X380238Y482600D03*
D18*
X106680Y459740D03*
X81280Y459740D03*
X132080Y459740D03*
D19*
X595568Y261620D02*
X609600Y261620D01*
X609600Y287020D02*
X595568Y287020D01*
D20*
X634600Y261320D03*
X634600Y287320D03*
D21*
X277400Y164230D03*
X355200Y164230D03*
D22*
X377250Y41480D03*
D23*
X233350Y42980D03*
D24*
X276800Y36680D03*
X287800Y36680D03*
X298800Y36680D03*
X309800Y36680D03*
X320800Y36680D03*
X331800Y36680D03*
X342800Y36680D03*
X353800Y36680D03*
D22*
X234350Y156280D03*
D25*
X373200Y152980D03*
X373650Y62530D03*
D26*
X109530Y360280D03*
X109530Y335280D03*
X109530Y310280D03*
X53030Y360280D03*
X53030Y335280D03*
X53030Y310280D03*
D27*
X81280Y350280D03*
X81280Y320280D03*
D12*
X73660Y421640D03*
X104140Y421640D03*
D28*
X73660Y283210D03*
X73660Y293370D03*
X91440Y283210D03*
X91440Y293370D03*
D29*
X240000Y390000D03*
X270000Y375000D03*
X561876Y391110D03*
X592926Y411110D03*
X470000Y130000D03*
X630000Y150000D03*
X391160Y434340D03*
X500000Y440000D03*
X214000Y26000D03*
X204000Y104000D03*
X162000Y30000D03*
X130000Y14000D03*
X104000Y110000D03*
X139700Y266700D03*
D30*
X285000Y240000D03*
X285000Y180000D03*
D31*
X396240Y335280D03*
X406400Y254000D03*
X472440Y274320D03*
X574040Y248920D03*
D29*
X462280Y101600D03*
X441960Y76200D03*
X325120Y20320D03*
D30*
X167640Y203200D03*
X243858Y92108D03*
X45720Y269240D03*
D32*
X259080Y502920D03*
D29*
X53340Y485140D03*
X134620Y289560D03*
D30*
X83820Y373380D03*
D29*
X118110Y248920D03*
X129540Y233680D03*
D30*
X284480Y96520D03*
M02*
