G04 EAGLE Gerber RS-274X export*
G75*
%MOMM*%
%FSLAX34Y34*%
%LPD*%
%AMOC8*
5,1,8,0,0,1.08239X$1,22.5*%
G01*
%ADD10C,1.879600*%
%ADD11C,1.117600*%
%ADD12P,1.319650X8X112.500000*%
%ADD13P,1.319650X8X292.500000*%
%ADD14C,1.676400*%
%ADD15C,1.003200*%
%ADD16C,1.403200*%
%ADD17R,1.500000X1.150000*%
%ADD18R,1.150000X2.200000*%
%ADD19R,0.950000X2.500000*%
%ADD20R,0.800000X1.240000*%
%ADD21R,1.160000X1.200000*%
%ADD22R,1.150000X1.000000*%
%ADD23R,1.270000X0.635000*%
%ADD24C,0.254000*%
%ADD25R,1.006400X1.006400*%
%ADD26R,1.106400X1.106400*%
%ADD27R,0.956400X0.956400*%
%ADD28R,0.756400X0.756400*%
%ADD29C,0.406400*%

G36*
X593061Y2553D02*
X593061Y2553D01*
X593188Y2557D01*
X593261Y2573D01*
X593335Y2581D01*
X593456Y2618D01*
X593580Y2646D01*
X593648Y2677D01*
X593720Y2699D01*
X593832Y2759D01*
X593947Y2811D01*
X594008Y2855D01*
X594074Y2891D01*
X594171Y2972D01*
X594275Y3046D01*
X594326Y3100D01*
X594383Y3148D01*
X594463Y3247D01*
X594549Y3340D01*
X594589Y3404D01*
X594636Y3462D01*
X594694Y3575D01*
X594761Y3683D01*
X594787Y3753D01*
X594821Y3819D01*
X594856Y3941D01*
X594900Y4060D01*
X594912Y4134D01*
X594932Y4206D01*
X594943Y4333D01*
X594962Y4458D01*
X594959Y4533D01*
X594965Y4608D01*
X594951Y4734D01*
X594945Y4860D01*
X594927Y4933D01*
X594918Y5007D01*
X594879Y5128D01*
X594849Y5251D01*
X594817Y5319D01*
X594794Y5390D01*
X594731Y5501D01*
X594677Y5616D01*
X594633Y5676D01*
X594596Y5741D01*
X594513Y5837D01*
X594437Y5939D01*
X594381Y5989D01*
X594333Y6045D01*
X594270Y6094D01*
X586251Y14113D01*
X581204Y24019D01*
X579465Y35000D01*
X581204Y45981D01*
X586251Y55887D01*
X594113Y63749D01*
X604019Y68796D01*
X615000Y70535D01*
X625981Y68796D01*
X635887Y63749D01*
X643749Y55887D01*
X648938Y45702D01*
X649006Y45596D01*
X649067Y45485D01*
X649115Y45427D01*
X649156Y45364D01*
X649243Y45273D01*
X649324Y45176D01*
X649383Y45128D01*
X649436Y45074D01*
X649540Y45003D01*
X649638Y44923D01*
X649705Y44889D01*
X649767Y44846D01*
X649883Y44796D01*
X649995Y44738D01*
X650068Y44717D01*
X650137Y44687D01*
X650261Y44661D01*
X650382Y44626D01*
X650458Y44620D01*
X650531Y44605D01*
X650658Y44604D01*
X650784Y44594D01*
X650859Y44602D01*
X650934Y44602D01*
X651058Y44626D01*
X651183Y44641D01*
X651255Y44664D01*
X651329Y44678D01*
X651446Y44726D01*
X651566Y44765D01*
X651632Y44802D01*
X651702Y44831D01*
X651807Y44901D01*
X651917Y44963D01*
X651974Y45013D01*
X652037Y45054D01*
X652126Y45144D01*
X652222Y45226D01*
X652268Y45286D01*
X652321Y45339D01*
X652391Y45445D01*
X652468Y45545D01*
X652502Y45612D01*
X652544Y45675D01*
X652591Y45792D01*
X652648Y45905D01*
X652667Y45978D01*
X652696Y46048D01*
X652719Y46172D01*
X652752Y46294D01*
X652759Y46381D01*
X652771Y46443D01*
X652770Y46517D01*
X652779Y46625D01*
X652779Y513375D01*
X652767Y513501D01*
X652764Y513627D01*
X652747Y513701D01*
X652739Y513776D01*
X652702Y513897D01*
X652674Y514020D01*
X652643Y514089D01*
X652621Y514161D01*
X652561Y514272D01*
X652509Y514387D01*
X652465Y514449D01*
X652429Y514515D01*
X652349Y514612D01*
X652275Y514715D01*
X652220Y514766D01*
X652172Y514824D01*
X652073Y514903D01*
X651981Y514990D01*
X651917Y515029D01*
X651858Y515077D01*
X651746Y515135D01*
X651638Y515201D01*
X651568Y515227D01*
X651501Y515262D01*
X651379Y515297D01*
X651261Y515341D01*
X651186Y515353D01*
X651114Y515374D01*
X650988Y515384D01*
X650863Y515403D01*
X650788Y515400D01*
X650712Y515406D01*
X650587Y515392D01*
X650461Y515386D01*
X650387Y515368D01*
X650313Y515359D01*
X650193Y515320D01*
X650070Y515290D01*
X650002Y515258D01*
X649930Y515235D01*
X649820Y515172D01*
X649706Y515119D01*
X649645Y515074D01*
X649579Y515037D01*
X649484Y514954D01*
X649382Y514879D01*
X649332Y514823D01*
X649275Y514774D01*
X649197Y514674D01*
X649112Y514580D01*
X649066Y514505D01*
X649028Y514455D01*
X648995Y514390D01*
X648938Y514298D01*
X643749Y504113D01*
X635887Y496251D01*
X625981Y491204D01*
X615000Y489465D01*
X604019Y491204D01*
X594113Y496251D01*
X586251Y504113D01*
X581204Y514019D01*
X579465Y525000D01*
X581204Y535981D01*
X586251Y545887D01*
X594113Y553749D01*
X596486Y554958D01*
X596593Y555026D01*
X596704Y555087D01*
X596762Y555135D01*
X596825Y555176D01*
X596916Y555263D01*
X597013Y555344D01*
X597060Y555403D01*
X597115Y555456D01*
X597186Y555560D01*
X597265Y555658D01*
X597300Y555725D01*
X597343Y555787D01*
X597393Y555903D01*
X597451Y556015D01*
X597472Y556088D01*
X597502Y556157D01*
X597527Y556281D01*
X597562Y556402D01*
X597569Y556478D01*
X597584Y556551D01*
X597585Y556678D01*
X597595Y556804D01*
X597586Y556879D01*
X597587Y556954D01*
X597563Y557078D01*
X597548Y557203D01*
X597525Y557275D01*
X597511Y557349D01*
X597463Y557466D01*
X597423Y557586D01*
X597386Y557652D01*
X597358Y557722D01*
X597288Y557827D01*
X597226Y557937D01*
X597176Y557994D01*
X597134Y558057D01*
X597045Y558146D01*
X596962Y558242D01*
X596903Y558288D01*
X596849Y558341D01*
X596744Y558411D01*
X596644Y558488D01*
X596577Y558522D01*
X596514Y558564D01*
X596397Y558611D01*
X596284Y558668D01*
X596211Y558687D01*
X596141Y558716D01*
X596017Y558739D01*
X595895Y558772D01*
X595808Y558779D01*
X595746Y558791D01*
X595672Y558790D01*
X595564Y558799D01*
X4572Y558799D01*
X4554Y558797D01*
X4536Y558799D01*
X4354Y558778D01*
X4171Y558759D01*
X4154Y558754D01*
X4137Y558752D01*
X3962Y558695D01*
X3786Y558641D01*
X3771Y558633D01*
X3754Y558627D01*
X3594Y558537D01*
X3432Y558449D01*
X3419Y558438D01*
X3403Y558429D01*
X3264Y558309D01*
X3123Y558192D01*
X3112Y558178D01*
X3098Y558166D01*
X2986Y558021D01*
X2871Y557878D01*
X2863Y557862D01*
X2852Y557848D01*
X2770Y557683D01*
X2685Y557521D01*
X2680Y557504D01*
X2672Y557488D01*
X2625Y557309D01*
X2574Y557134D01*
X2572Y557116D01*
X2568Y557099D01*
X2541Y556768D01*
X2541Y57066D01*
X2553Y56939D01*
X2557Y56812D01*
X2573Y56739D01*
X2581Y56665D01*
X2618Y56544D01*
X2646Y56420D01*
X2677Y56352D01*
X2699Y56280D01*
X2759Y56168D01*
X2811Y56053D01*
X2855Y55992D01*
X2891Y55926D01*
X2972Y55829D01*
X3046Y55725D01*
X3100Y55674D01*
X3148Y55617D01*
X3247Y55537D01*
X3340Y55451D01*
X3404Y55411D01*
X3462Y55364D01*
X3575Y55306D01*
X3683Y55239D01*
X3753Y55213D01*
X3819Y55179D01*
X3941Y55144D01*
X4060Y55100D01*
X4134Y55088D01*
X4206Y55068D01*
X4333Y55057D01*
X4458Y55038D01*
X4533Y55041D01*
X4608Y55035D01*
X4734Y55049D01*
X4860Y55055D01*
X4933Y55073D01*
X5007Y55082D01*
X5128Y55121D01*
X5251Y55151D01*
X5319Y55183D01*
X5390Y55206D01*
X5501Y55269D01*
X5616Y55323D01*
X5676Y55368D01*
X5741Y55404D01*
X5837Y55487D01*
X5939Y55563D01*
X5989Y55619D01*
X6045Y55667D01*
X6094Y55730D01*
X14113Y63749D01*
X24019Y68796D01*
X35000Y70535D01*
X45981Y68796D01*
X55887Y63749D01*
X63749Y55887D01*
X68796Y45981D01*
X70535Y35000D01*
X68796Y24019D01*
X63749Y14113D01*
X55706Y6070D01*
X55617Y5996D01*
X55570Y5937D01*
X55516Y5885D01*
X55444Y5781D01*
X55364Y5682D01*
X55330Y5616D01*
X55287Y5554D01*
X55237Y5437D01*
X55179Y5325D01*
X55158Y5253D01*
X55129Y5184D01*
X55103Y5060D01*
X55068Y4938D01*
X55061Y4863D01*
X55046Y4790D01*
X55045Y4663D01*
X55035Y4536D01*
X55043Y4462D01*
X55043Y4387D01*
X55067Y4263D01*
X55082Y4137D01*
X55105Y4065D01*
X55119Y3992D01*
X55167Y3875D01*
X55206Y3754D01*
X55243Y3689D01*
X55272Y3619D01*
X55342Y3514D01*
X55404Y3403D01*
X55453Y3347D01*
X55495Y3284D01*
X55584Y3195D01*
X55667Y3098D01*
X55727Y3053D01*
X55780Y3000D01*
X55885Y2929D01*
X55986Y2852D01*
X56052Y2818D01*
X56115Y2777D01*
X56232Y2729D01*
X56346Y2672D01*
X56418Y2653D01*
X56488Y2625D01*
X56612Y2601D01*
X56735Y2568D01*
X56822Y2561D01*
X56883Y2549D01*
X56957Y2550D01*
X57066Y2541D01*
X592934Y2541D01*
X593061Y2553D01*
G37*
%LPC*%
G36*
X327465Y27939D02*
X327465Y27939D01*
X326819Y28112D01*
X326271Y28429D01*
X326121Y28497D01*
X325975Y28570D01*
X325938Y28579D01*
X325904Y28595D01*
X325744Y28632D01*
X325586Y28674D01*
X325544Y28678D01*
X325511Y28685D01*
X325424Y28687D01*
X325255Y28701D01*
X272063Y28701D01*
X271021Y29743D01*
X271021Y43617D01*
X272063Y44659D01*
X281958Y44659D01*
X281976Y44661D01*
X281994Y44659D01*
X282176Y44680D01*
X282359Y44699D01*
X282376Y44704D01*
X282393Y44706D01*
X282568Y44763D01*
X282744Y44817D01*
X282759Y44825D01*
X282776Y44831D01*
X282936Y44921D01*
X283098Y45009D01*
X283111Y45020D01*
X283127Y45029D01*
X283266Y45149D01*
X283407Y45266D01*
X283418Y45280D01*
X283432Y45292D01*
X283544Y45437D01*
X283659Y45580D01*
X283667Y45596D01*
X283678Y45610D01*
X283760Y45774D01*
X283845Y45937D01*
X283850Y45954D01*
X283858Y45970D01*
X283905Y46149D01*
X283956Y46324D01*
X283958Y46342D01*
X283962Y46359D01*
X283989Y46690D01*
X283989Y62198D01*
X283987Y62225D01*
X283989Y62252D01*
X283967Y62426D01*
X283949Y62599D01*
X283942Y62624D01*
X283938Y62651D01*
X283883Y62817D01*
X283831Y62984D01*
X283818Y63007D01*
X283810Y63033D01*
X283723Y63184D01*
X283639Y63338D01*
X283622Y63358D01*
X283609Y63382D01*
X283394Y63635D01*
X213867Y133162D01*
X213867Y196462D01*
X213865Y196489D01*
X213867Y196515D01*
X213845Y196689D01*
X213827Y196863D01*
X213820Y196888D01*
X213816Y196915D01*
X213761Y197081D01*
X213709Y197248D01*
X213696Y197271D01*
X213688Y197297D01*
X213601Y197448D01*
X213517Y197602D01*
X213500Y197622D01*
X213487Y197645D01*
X213272Y197898D01*
X153957Y257214D01*
X153956Y257214D01*
X151129Y260042D01*
X151129Y322700D01*
X151127Y322727D01*
X151129Y322753D01*
X151107Y322927D01*
X151089Y323101D01*
X151082Y323126D01*
X151078Y323153D01*
X151023Y323319D01*
X150971Y323486D01*
X150958Y323509D01*
X150950Y323535D01*
X150863Y323686D01*
X150779Y323840D01*
X150762Y323860D01*
X150749Y323883D01*
X150534Y324136D01*
X138429Y336242D01*
X138429Y371976D01*
X138428Y371985D01*
X138429Y371994D01*
X138408Y372186D01*
X138389Y372377D01*
X138387Y372385D01*
X138386Y372394D01*
X138328Y372577D01*
X138271Y372762D01*
X138267Y372770D01*
X138264Y372778D01*
X138171Y372947D01*
X138079Y373116D01*
X138074Y373123D01*
X138069Y373130D01*
X137944Y373278D01*
X137822Y373425D01*
X137815Y373431D01*
X137809Y373437D01*
X137657Y373558D01*
X137508Y373677D01*
X137500Y373681D01*
X137493Y373687D01*
X137320Y373775D01*
X137151Y373863D01*
X137142Y373865D01*
X137134Y373869D01*
X136949Y373921D01*
X136764Y373974D01*
X136755Y373975D01*
X136746Y373977D01*
X136554Y373992D01*
X136362Y374007D01*
X136354Y374006D01*
X136345Y374007D01*
X136154Y373983D01*
X135963Y373960D01*
X135954Y373957D01*
X135945Y373956D01*
X135764Y373895D01*
X135580Y373835D01*
X135572Y373831D01*
X135564Y373828D01*
X135396Y373732D01*
X135229Y373638D01*
X135222Y373632D01*
X135215Y373627D01*
X134962Y373413D01*
X133946Y372396D01*
X133929Y372376D01*
X133908Y372358D01*
X133802Y372220D01*
X133691Y372085D01*
X133678Y372061D01*
X133662Y372040D01*
X133584Y371884D01*
X133502Y371729D01*
X133494Y371704D01*
X133482Y371680D01*
X133437Y371511D01*
X133387Y371343D01*
X133385Y371317D01*
X133378Y371291D01*
X133351Y370960D01*
X133351Y298402D01*
X133353Y298384D01*
X133351Y298366D01*
X133372Y298184D01*
X133391Y298001D01*
X133396Y297984D01*
X133398Y297967D01*
X133455Y297792D01*
X133509Y297616D01*
X133517Y297601D01*
X133523Y297584D01*
X133613Y297424D01*
X133701Y297262D01*
X133712Y297249D01*
X133721Y297233D01*
X133841Y297093D01*
X133958Y296953D01*
X133972Y296942D01*
X133984Y296928D01*
X134129Y296816D01*
X134272Y296701D01*
X134288Y296693D01*
X134302Y296682D01*
X134467Y296600D01*
X134629Y296515D01*
X134646Y296510D01*
X134662Y296502D01*
X134841Y296455D01*
X135016Y296404D01*
X135034Y296402D01*
X135051Y296398D01*
X135382Y296371D01*
X140389Y296371D01*
X141431Y295329D01*
X141431Y283791D01*
X140389Y282749D01*
X128851Y282749D01*
X127809Y283791D01*
X127809Y290140D01*
X127807Y290167D01*
X127809Y290193D01*
X127787Y290367D01*
X127769Y290541D01*
X127762Y290566D01*
X127758Y290593D01*
X127703Y290759D01*
X127651Y290926D01*
X127638Y290949D01*
X127630Y290975D01*
X127543Y291126D01*
X127459Y291280D01*
X127442Y291300D01*
X127429Y291323D01*
X127214Y291576D01*
X125729Y293062D01*
X125729Y338956D01*
X125728Y338965D01*
X125729Y338974D01*
X125708Y339167D01*
X125689Y339357D01*
X125687Y339365D01*
X125686Y339374D01*
X125627Y339558D01*
X125571Y339742D01*
X125567Y339750D01*
X125564Y339758D01*
X125471Y339926D01*
X125379Y340096D01*
X125374Y340103D01*
X125369Y340110D01*
X125245Y340258D01*
X125122Y340405D01*
X125115Y340411D01*
X125109Y340417D01*
X124957Y340537D01*
X124808Y340657D01*
X124800Y340662D01*
X124793Y340667D01*
X124620Y340755D01*
X124451Y340843D01*
X124442Y340845D01*
X124434Y340849D01*
X124248Y340901D01*
X124064Y340954D01*
X124055Y340955D01*
X124046Y340957D01*
X123853Y340972D01*
X123662Y340987D01*
X123654Y340986D01*
X123645Y340987D01*
X123452Y340963D01*
X123263Y340940D01*
X123254Y340938D01*
X123245Y340936D01*
X123063Y340875D01*
X122880Y340815D01*
X122872Y340811D01*
X122864Y340808D01*
X122697Y340712D01*
X122529Y340618D01*
X122522Y340612D01*
X122515Y340607D01*
X122262Y340393D01*
X117654Y335785D01*
X117637Y335764D01*
X117616Y335746D01*
X117509Y335608D01*
X117399Y335473D01*
X117386Y335449D01*
X117370Y335428D01*
X117292Y335271D01*
X117210Y335117D01*
X117202Y335092D01*
X117190Y335068D01*
X117145Y334898D01*
X117095Y334731D01*
X117093Y334705D01*
X117086Y334679D01*
X117059Y334348D01*
X117059Y329543D01*
X116017Y328501D01*
X115372Y328501D01*
X115354Y328499D01*
X115336Y328501D01*
X115154Y328480D01*
X114971Y328461D01*
X114954Y328456D01*
X114937Y328454D01*
X114762Y328397D01*
X114586Y328343D01*
X114571Y328335D01*
X114554Y328329D01*
X114394Y328239D01*
X114232Y328151D01*
X114219Y328140D01*
X114203Y328131D01*
X114064Y328011D01*
X113923Y327894D01*
X113912Y327880D01*
X113898Y327868D01*
X113786Y327723D01*
X113671Y327580D01*
X113663Y327564D01*
X113652Y327550D01*
X113570Y327385D01*
X113485Y327223D01*
X113480Y327206D01*
X113472Y327190D01*
X113425Y327011D01*
X113374Y326836D01*
X113372Y326818D01*
X113368Y326801D01*
X113341Y326470D01*
X113341Y326392D01*
X107475Y320526D01*
X107470Y320519D01*
X107463Y320514D01*
X107343Y320364D01*
X107220Y320215D01*
X107216Y320207D01*
X107211Y320200D01*
X107122Y320030D01*
X107032Y319859D01*
X107029Y319850D01*
X107025Y319843D01*
X106972Y319657D01*
X106917Y319473D01*
X106916Y319464D01*
X106914Y319456D01*
X106898Y319264D01*
X106881Y319072D01*
X106882Y319063D01*
X106881Y319054D01*
X106903Y318865D01*
X106924Y318672D01*
X106927Y318663D01*
X106928Y318655D01*
X106987Y318473D01*
X107045Y318288D01*
X107050Y318280D01*
X107053Y318272D01*
X107148Y318103D01*
X107240Y317936D01*
X107246Y317929D01*
X107250Y317921D01*
X107376Y317775D01*
X107501Y317629D01*
X107508Y317623D01*
X107514Y317616D01*
X107665Y317499D01*
X107817Y317379D01*
X107825Y317375D01*
X107832Y317370D01*
X108004Y317284D01*
X108176Y317197D01*
X108184Y317194D01*
X108192Y317190D01*
X108379Y317140D01*
X108564Y317089D01*
X108572Y317088D01*
X108581Y317086D01*
X108912Y317059D01*
X116017Y317059D01*
X117059Y316017D01*
X117059Y304543D01*
X116017Y303501D01*
X115372Y303501D01*
X115354Y303499D01*
X115336Y303501D01*
X115154Y303480D01*
X114971Y303461D01*
X114954Y303456D01*
X114937Y303454D01*
X114762Y303397D01*
X114586Y303343D01*
X114571Y303335D01*
X114554Y303329D01*
X114394Y303239D01*
X114232Y303151D01*
X114219Y303140D01*
X114203Y303131D01*
X114064Y303011D01*
X113923Y302894D01*
X113912Y302880D01*
X113898Y302868D01*
X113786Y302723D01*
X113671Y302580D01*
X113663Y302564D01*
X113652Y302550D01*
X113570Y302385D01*
X113485Y302223D01*
X113480Y302206D01*
X113472Y302190D01*
X113425Y302011D01*
X113374Y301836D01*
X113372Y301818D01*
X113368Y301801D01*
X113341Y301470D01*
X113341Y284482D01*
X113191Y284332D01*
X113180Y284318D01*
X113167Y284307D01*
X113053Y284163D01*
X112936Y284021D01*
X112928Y284005D01*
X112917Y283991D01*
X112833Y283826D01*
X112748Y283665D01*
X112743Y283648D01*
X112735Y283632D01*
X112685Y283454D01*
X112633Y283279D01*
X112631Y283261D01*
X112627Y283244D01*
X112613Y283061D01*
X112597Y282878D01*
X112598Y282860D01*
X112597Y282843D01*
X112620Y282661D01*
X112640Y282478D01*
X112645Y282461D01*
X112648Y282443D01*
X112706Y282269D01*
X112761Y282094D01*
X112770Y282078D01*
X112776Y282061D01*
X112868Y281902D01*
X112956Y281742D01*
X112968Y281728D01*
X112977Y281713D01*
X113191Y281460D01*
X133351Y261300D01*
X133351Y242522D01*
X133353Y242504D01*
X133351Y242486D01*
X133372Y242304D01*
X133391Y242121D01*
X133396Y242104D01*
X133398Y242087D01*
X133455Y241912D01*
X133509Y241736D01*
X133517Y241721D01*
X133523Y241704D01*
X133613Y241544D01*
X133701Y241382D01*
X133712Y241369D01*
X133721Y241353D01*
X133841Y241214D01*
X133958Y241073D01*
X133972Y241062D01*
X133984Y241048D01*
X134129Y240936D01*
X134272Y240821D01*
X134288Y240813D01*
X134302Y240802D01*
X134467Y240720D01*
X134629Y240635D01*
X134646Y240630D01*
X134662Y240622D01*
X134841Y240575D01*
X135016Y240524D01*
X135034Y240522D01*
X135051Y240518D01*
X135302Y240497D01*
X136351Y239449D01*
X136351Y227911D01*
X135309Y226869D01*
X123771Y226869D01*
X122729Y227911D01*
X122729Y240078D01*
X122727Y240096D01*
X122729Y240114D01*
X122708Y240296D01*
X122689Y240479D01*
X122684Y240496D01*
X122682Y240513D01*
X122625Y240688D01*
X122571Y240864D01*
X122563Y240879D01*
X122557Y240896D01*
X122467Y241056D01*
X122379Y241218D01*
X122368Y241231D01*
X122359Y241247D01*
X122239Y241386D01*
X122122Y241527D01*
X122108Y241538D01*
X122096Y241552D01*
X121951Y241664D01*
X121808Y241779D01*
X121792Y241787D01*
X121778Y241798D01*
X121613Y241880D01*
X121451Y241965D01*
X121434Y241970D01*
X121418Y241978D01*
X121239Y242025D01*
X121064Y242076D01*
X121046Y242078D01*
X121029Y242082D01*
X120698Y242109D01*
X112341Y242109D01*
X111294Y243157D01*
X111278Y243296D01*
X111259Y243479D01*
X111254Y243496D01*
X111252Y243513D01*
X111195Y243688D01*
X111141Y243864D01*
X111133Y243879D01*
X111127Y243896D01*
X111037Y244056D01*
X110949Y244218D01*
X110938Y244231D01*
X110929Y244247D01*
X110809Y244386D01*
X110692Y244527D01*
X110678Y244538D01*
X110666Y244552D01*
X110521Y244664D01*
X110378Y244779D01*
X110362Y244787D01*
X110348Y244798D01*
X110183Y244880D01*
X110021Y244965D01*
X110004Y244970D01*
X109988Y244978D01*
X109809Y245025D01*
X109634Y245076D01*
X109616Y245078D01*
X109599Y245082D01*
X109268Y245109D01*
X89862Y245109D01*
X87035Y247936D01*
X87034Y247937D01*
X72677Y262294D01*
X72676Y262294D01*
X69849Y265122D01*
X69849Y276225D01*
X69847Y276243D01*
X69849Y276261D01*
X69828Y276443D01*
X69809Y276626D01*
X69804Y276643D01*
X69802Y276660D01*
X69745Y276835D01*
X69691Y277011D01*
X69683Y277026D01*
X69677Y277043D01*
X69587Y277203D01*
X69499Y277365D01*
X69488Y277378D01*
X69479Y277394D01*
X69359Y277533D01*
X69242Y277674D01*
X69228Y277685D01*
X69216Y277699D01*
X69071Y277811D01*
X68928Y277926D01*
X68912Y277934D01*
X68898Y277945D01*
X68733Y278027D01*
X68571Y278112D01*
X68554Y278117D01*
X68538Y278125D01*
X68359Y278172D01*
X68184Y278223D01*
X68166Y278225D01*
X68149Y278229D01*
X67818Y278256D01*
X66573Y278256D01*
X66025Y278804D01*
X66004Y278821D01*
X65987Y278842D01*
X65849Y278949D01*
X65714Y279059D01*
X65690Y279072D01*
X65669Y279088D01*
X65512Y279166D01*
X65358Y279248D01*
X65332Y279256D01*
X65308Y279268D01*
X65139Y279313D01*
X64972Y279363D01*
X64945Y279365D01*
X64920Y279372D01*
X64589Y279399D01*
X58112Y279399D01*
X49219Y288292D01*
X49219Y301470D01*
X49217Y301488D01*
X49219Y301506D01*
X49198Y301688D01*
X49179Y301871D01*
X49174Y301888D01*
X49172Y301905D01*
X49115Y302080D01*
X49061Y302256D01*
X49053Y302271D01*
X49047Y302288D01*
X48957Y302448D01*
X48869Y302610D01*
X48858Y302623D01*
X48849Y302639D01*
X48729Y302778D01*
X48612Y302919D01*
X48598Y302930D01*
X48586Y302944D01*
X48441Y303056D01*
X48298Y303171D01*
X48282Y303179D01*
X48268Y303190D01*
X48103Y303272D01*
X47941Y303357D01*
X47924Y303362D01*
X47908Y303370D01*
X47729Y303417D01*
X47554Y303468D01*
X47536Y303470D01*
X47519Y303474D01*
X47188Y303501D01*
X46543Y303501D01*
X45501Y304543D01*
X45501Y316017D01*
X46543Y317059D01*
X53648Y317059D01*
X53657Y317060D01*
X53666Y317059D01*
X53860Y317080D01*
X54049Y317099D01*
X54057Y317101D01*
X54066Y317102D01*
X54250Y317160D01*
X54434Y317217D01*
X54442Y317221D01*
X54450Y317224D01*
X54619Y317317D01*
X54788Y317409D01*
X54795Y317414D01*
X54802Y317419D01*
X54949Y317543D01*
X55097Y317666D01*
X55103Y317673D01*
X55109Y317679D01*
X55228Y317830D01*
X55349Y317980D01*
X55354Y317988D01*
X55359Y317995D01*
X55447Y318168D01*
X55535Y318337D01*
X55537Y318346D01*
X55541Y318354D01*
X55593Y318540D01*
X55646Y318724D01*
X55647Y318733D01*
X55649Y318742D01*
X55664Y318935D01*
X55679Y319126D01*
X55678Y319134D01*
X55679Y319143D01*
X55654Y319336D01*
X55632Y319525D01*
X55630Y319534D01*
X55628Y319543D01*
X55567Y319726D01*
X55507Y319908D01*
X55503Y319916D01*
X55500Y319924D01*
X55404Y320091D01*
X55310Y320259D01*
X55304Y320266D01*
X55299Y320273D01*
X55085Y320526D01*
X49219Y326392D01*
X49219Y326470D01*
X49217Y326488D01*
X49219Y326506D01*
X49198Y326688D01*
X49179Y326871D01*
X49174Y326888D01*
X49172Y326905D01*
X49115Y327080D01*
X49061Y327256D01*
X49053Y327271D01*
X49047Y327288D01*
X48957Y327448D01*
X48869Y327610D01*
X48858Y327623D01*
X48849Y327639D01*
X48729Y327778D01*
X48612Y327919D01*
X48598Y327930D01*
X48586Y327944D01*
X48441Y328056D01*
X48298Y328171D01*
X48282Y328179D01*
X48268Y328190D01*
X48103Y328272D01*
X47941Y328357D01*
X47924Y328362D01*
X47908Y328370D01*
X47729Y328417D01*
X47554Y328468D01*
X47536Y328470D01*
X47519Y328474D01*
X47188Y328501D01*
X46543Y328501D01*
X45501Y329543D01*
X45501Y341017D01*
X46543Y342059D01*
X47188Y342059D01*
X47206Y342061D01*
X47224Y342059D01*
X47406Y342080D01*
X47589Y342099D01*
X47606Y342104D01*
X47623Y342106D01*
X47798Y342163D01*
X47974Y342217D01*
X47989Y342225D01*
X48006Y342231D01*
X48166Y342321D01*
X48328Y342409D01*
X48341Y342420D01*
X48357Y342429D01*
X48496Y342549D01*
X48637Y342666D01*
X48648Y342680D01*
X48662Y342692D01*
X48774Y342837D01*
X48889Y342980D01*
X48897Y342996D01*
X48908Y343010D01*
X48990Y343175D01*
X49075Y343337D01*
X49080Y343354D01*
X49088Y343370D01*
X49135Y343549D01*
X49186Y343724D01*
X49188Y343742D01*
X49192Y343759D01*
X49219Y344090D01*
X49219Y344168D01*
X55085Y350034D01*
X55090Y350041D01*
X55097Y350046D01*
X55217Y350196D01*
X55340Y350345D01*
X55344Y350353D01*
X55349Y350360D01*
X55438Y350530D01*
X55528Y350701D01*
X55531Y350710D01*
X55535Y350717D01*
X55588Y350902D01*
X55643Y351087D01*
X55644Y351096D01*
X55646Y351104D01*
X55662Y351296D01*
X55679Y351488D01*
X55678Y351497D01*
X55679Y351506D01*
X55657Y351695D01*
X55636Y351888D01*
X55633Y351897D01*
X55632Y351905D01*
X55573Y352087D01*
X55515Y352272D01*
X55510Y352280D01*
X55507Y352288D01*
X55412Y352457D01*
X55320Y352624D01*
X55314Y352631D01*
X55310Y352639D01*
X55184Y352785D01*
X55059Y352931D01*
X55052Y352937D01*
X55046Y352944D01*
X54895Y353061D01*
X54743Y353181D01*
X54735Y353185D01*
X54728Y353190D01*
X54556Y353276D01*
X54384Y353363D01*
X54376Y353366D01*
X54368Y353370D01*
X54181Y353420D01*
X53996Y353471D01*
X53988Y353472D01*
X53979Y353474D01*
X53648Y353501D01*
X46543Y353501D01*
X45501Y354543D01*
X45501Y366017D01*
X46543Y367059D01*
X53578Y367059D01*
X53605Y367061D01*
X53631Y367059D01*
X53805Y367081D01*
X53979Y367099D01*
X54004Y367106D01*
X54031Y367110D01*
X54197Y367165D01*
X54364Y367217D01*
X54387Y367230D01*
X54413Y367238D01*
X54564Y367325D01*
X54718Y367409D01*
X54738Y367426D01*
X54761Y367439D01*
X55014Y367654D01*
X64174Y376814D01*
X64191Y376834D01*
X64212Y376852D01*
X64319Y376990D01*
X64429Y377125D01*
X64442Y377149D01*
X64458Y377170D01*
X64536Y377327D01*
X64618Y377481D01*
X64626Y377506D01*
X64638Y377530D01*
X64683Y377700D01*
X64733Y377867D01*
X64735Y377893D01*
X64742Y377919D01*
X64769Y378250D01*
X64769Y413883D01*
X64767Y413910D01*
X64769Y413936D01*
X64747Y414110D01*
X64729Y414284D01*
X64722Y414309D01*
X64718Y414336D01*
X64663Y414501D01*
X64611Y414669D01*
X64598Y414692D01*
X64590Y414717D01*
X64503Y414869D01*
X64419Y415023D01*
X64402Y415043D01*
X64389Y415066D01*
X64186Y415305D01*
X62483Y419417D01*
X62483Y423863D01*
X64185Y427971D01*
X67329Y431115D01*
X71437Y432817D01*
X73176Y432817D01*
X73177Y432817D01*
X73178Y432817D01*
X73377Y432837D01*
X73577Y432857D01*
X73578Y432857D01*
X73579Y432857D01*
X73665Y432884D01*
X73799Y432846D01*
X73807Y432846D01*
X73815Y432844D01*
X74145Y432817D01*
X75883Y432817D01*
X79991Y431115D01*
X83135Y427971D01*
X84837Y423863D01*
X84837Y419417D01*
X83135Y415309D01*
X79991Y412165D01*
X75883Y410463D01*
X74422Y410463D01*
X74404Y410461D01*
X74386Y410463D01*
X74204Y410442D01*
X74021Y410423D01*
X74004Y410418D01*
X73987Y410416D01*
X73812Y410359D01*
X73636Y410305D01*
X73621Y410297D01*
X73604Y410291D01*
X73444Y410201D01*
X73282Y410113D01*
X73269Y410102D01*
X73253Y410093D01*
X73114Y409973D01*
X72973Y409856D01*
X72962Y409842D01*
X72948Y409830D01*
X72836Y409685D01*
X72721Y409542D01*
X72713Y409526D01*
X72702Y409512D01*
X72620Y409347D01*
X72535Y409185D01*
X72530Y409168D01*
X72522Y409152D01*
X72475Y408973D01*
X72424Y408798D01*
X72422Y408780D01*
X72418Y408763D01*
X72391Y408432D01*
X72391Y374252D01*
X61154Y363014D01*
X61137Y362994D01*
X61116Y362976D01*
X61009Y362838D01*
X60899Y362703D01*
X60886Y362679D01*
X60870Y362658D01*
X60792Y362501D01*
X60710Y362347D01*
X60702Y362322D01*
X60690Y362298D01*
X60645Y362128D01*
X60595Y361961D01*
X60593Y361935D01*
X60586Y361909D01*
X60559Y361578D01*
X60559Y360412D01*
X60560Y360403D01*
X60559Y360394D01*
X60580Y360199D01*
X60599Y360011D01*
X60601Y360003D01*
X60602Y359994D01*
X60660Y359810D01*
X60717Y359626D01*
X60721Y359618D01*
X60724Y359610D01*
X60816Y359442D01*
X60909Y359272D01*
X60914Y359265D01*
X60919Y359258D01*
X61043Y359110D01*
X61166Y358963D01*
X61173Y358957D01*
X61179Y358951D01*
X61331Y358831D01*
X61480Y358711D01*
X61488Y358706D01*
X61495Y358701D01*
X61668Y358613D01*
X61837Y358525D01*
X61846Y358523D01*
X61854Y358519D01*
X62040Y358467D01*
X62224Y358414D01*
X62233Y358413D01*
X62242Y358411D01*
X62435Y358396D01*
X62626Y358381D01*
X62634Y358382D01*
X62643Y358381D01*
X62836Y358406D01*
X63025Y358428D01*
X63034Y358430D01*
X63043Y358432D01*
X63226Y358493D01*
X63408Y358553D01*
X63416Y358557D01*
X63424Y358560D01*
X63591Y358656D01*
X63759Y358750D01*
X63766Y358756D01*
X63773Y358761D01*
X64026Y358975D01*
X75914Y370864D01*
X75931Y370884D01*
X75952Y370902D01*
X76059Y371040D01*
X76169Y371175D01*
X76182Y371199D01*
X76198Y371220D01*
X76276Y371377D01*
X76358Y371531D01*
X76366Y371556D01*
X76378Y371580D01*
X76423Y371750D01*
X76473Y371917D01*
X76475Y371943D01*
X76482Y371969D01*
X76509Y372300D01*
X76509Y379649D01*
X77551Y380691D01*
X90089Y380691D01*
X91131Y379649D01*
X91131Y367111D01*
X90089Y366069D01*
X82740Y366069D01*
X82713Y366067D01*
X82687Y366069D01*
X82513Y366047D01*
X82339Y366029D01*
X82314Y366022D01*
X82287Y366018D01*
X82122Y365963D01*
X81954Y365911D01*
X81931Y365898D01*
X81905Y365890D01*
X81754Y365803D01*
X81600Y365719D01*
X81580Y365702D01*
X81557Y365689D01*
X81304Y365474D01*
X75150Y359321D01*
X75147Y359318D01*
X75144Y359315D01*
X75020Y359162D01*
X74895Y359010D01*
X74893Y359006D01*
X74890Y359002D01*
X74798Y358826D01*
X74707Y358654D01*
X74705Y358650D01*
X74703Y358646D01*
X74647Y358454D01*
X74592Y358268D01*
X74591Y358264D01*
X74590Y358259D01*
X74573Y358066D01*
X74555Y357867D01*
X74556Y357862D01*
X74555Y357858D01*
X74577Y357668D01*
X74599Y357467D01*
X74600Y357462D01*
X74601Y357458D01*
X74660Y357272D01*
X74720Y357083D01*
X74722Y357079D01*
X74724Y357075D01*
X74822Y356900D01*
X74915Y356731D01*
X74918Y356727D01*
X74920Y356723D01*
X75049Y356573D01*
X75176Y356424D01*
X75179Y356421D01*
X75182Y356417D01*
X75337Y356296D01*
X75492Y356174D01*
X75495Y356172D01*
X75499Y356169D01*
X75674Y356081D01*
X75850Y355992D01*
X75855Y355990D01*
X75859Y355988D01*
X76047Y355937D01*
X76238Y355884D01*
X76243Y355883D01*
X76247Y355882D01*
X76443Y355869D01*
X76640Y355854D01*
X76644Y355855D01*
X76649Y355854D01*
X76845Y355880D01*
X77039Y355905D01*
X77044Y355906D01*
X77048Y355907D01*
X77364Y356008D01*
X77673Y356136D01*
X79929Y357071D01*
X82631Y357071D01*
X85127Y356037D01*
X87037Y354127D01*
X88071Y351631D01*
X88071Y348929D01*
X87037Y346433D01*
X85127Y344523D01*
X82977Y343633D01*
X82631Y343489D01*
X79929Y343489D01*
X77433Y344523D01*
X75523Y346433D01*
X74489Y348929D01*
X74489Y351631D01*
X75552Y354196D01*
X75553Y354200D01*
X75555Y354204D01*
X75611Y354391D01*
X75668Y354582D01*
X75669Y354586D01*
X75670Y354590D01*
X75688Y354786D01*
X75706Y354982D01*
X75706Y354987D01*
X75706Y354991D01*
X75685Y355193D01*
X75665Y355383D01*
X75664Y355387D01*
X75663Y355391D01*
X75603Y355582D01*
X75545Y355767D01*
X75543Y355771D01*
X75542Y355775D01*
X75446Y355948D01*
X75352Y356120D01*
X75349Y356124D01*
X75347Y356128D01*
X75219Y356278D01*
X75093Y356428D01*
X75089Y356431D01*
X75086Y356435D01*
X74931Y356558D01*
X74778Y356679D01*
X74774Y356681D01*
X74770Y356684D01*
X74593Y356774D01*
X74420Y356863D01*
X74415Y356865D01*
X74411Y356867D01*
X74218Y356920D01*
X74032Y356973D01*
X74028Y356973D01*
X74023Y356975D01*
X73822Y356989D01*
X73631Y357004D01*
X73627Y357004D01*
X73622Y357004D01*
X73421Y356979D01*
X73231Y356956D01*
X73227Y356954D01*
X73222Y356954D01*
X73036Y356891D01*
X72849Y356829D01*
X72845Y356827D01*
X72841Y356825D01*
X72670Y356727D01*
X72499Y356630D01*
X72496Y356627D01*
X72492Y356624D01*
X72239Y356410D01*
X60139Y344309D01*
X60127Y344296D01*
X60114Y344284D01*
X60000Y344140D01*
X59884Y343998D01*
X59875Y343982D01*
X59864Y343968D01*
X59781Y343804D01*
X59695Y343642D01*
X59690Y343625D01*
X59682Y343609D01*
X59632Y343432D01*
X59580Y343256D01*
X59579Y343239D01*
X59574Y343221D01*
X59560Y343038D01*
X59544Y342855D01*
X59546Y342838D01*
X59544Y342820D01*
X59567Y342639D01*
X59587Y342455D01*
X59593Y342438D01*
X59595Y342420D01*
X59653Y342247D01*
X59709Y342071D01*
X59717Y342056D01*
X59723Y342039D01*
X59815Y341879D01*
X59904Y341719D01*
X59915Y341705D01*
X59924Y341690D01*
X60139Y341437D01*
X60559Y341017D01*
X60559Y329543D01*
X60139Y329123D01*
X60127Y329109D01*
X60114Y329098D01*
X60000Y328954D01*
X59884Y328812D01*
X59875Y328796D01*
X59864Y328782D01*
X59781Y328618D01*
X59695Y328456D01*
X59690Y328439D01*
X59682Y328423D01*
X59632Y328246D01*
X59580Y328070D01*
X59579Y328052D01*
X59574Y328035D01*
X59560Y327852D01*
X59544Y327669D01*
X59546Y327651D01*
X59544Y327634D01*
X59567Y327451D01*
X59587Y327269D01*
X59593Y327252D01*
X59595Y327234D01*
X59653Y327060D01*
X59709Y326885D01*
X59717Y326869D01*
X59723Y326852D01*
X59814Y326694D01*
X59903Y326533D01*
X59915Y326519D01*
X59924Y326504D01*
X60139Y326251D01*
X72239Y314150D01*
X72242Y314147D01*
X72245Y314144D01*
X72398Y314020D01*
X72550Y313895D01*
X72554Y313893D01*
X72558Y313890D01*
X72736Y313797D01*
X72906Y313707D01*
X72910Y313705D01*
X72914Y313703D01*
X73107Y313647D01*
X73292Y313592D01*
X73296Y313591D01*
X73301Y313590D01*
X73494Y313573D01*
X73693Y313555D01*
X73698Y313556D01*
X73702Y313555D01*
X73892Y313577D01*
X74093Y313599D01*
X74098Y313600D01*
X74102Y313601D01*
X74288Y313660D01*
X74477Y313720D01*
X74481Y313722D01*
X74485Y313724D01*
X74659Y313821D01*
X74829Y313915D01*
X74833Y313918D01*
X74837Y313920D01*
X74987Y314049D01*
X75136Y314176D01*
X75139Y314179D01*
X75143Y314182D01*
X75264Y314337D01*
X75386Y314492D01*
X75388Y314495D01*
X75391Y314499D01*
X75479Y314674D01*
X75568Y314850D01*
X75570Y314855D01*
X75572Y314859D01*
X75623Y315047D01*
X75676Y315238D01*
X75677Y315243D01*
X75678Y315247D01*
X75691Y315439D01*
X75706Y315640D01*
X75705Y315644D01*
X75706Y315649D01*
X75680Y315845D01*
X75655Y316039D01*
X75654Y316044D01*
X75653Y316048D01*
X75552Y316364D01*
X74489Y318929D01*
X74489Y321631D01*
X75523Y324127D01*
X77433Y326037D01*
X79929Y327071D01*
X82631Y327071D01*
X85127Y326037D01*
X87037Y324127D01*
X88071Y321631D01*
X88071Y318929D01*
X87008Y316364D01*
X87007Y316360D01*
X87005Y316355D01*
X86949Y316168D01*
X86892Y315978D01*
X86891Y315974D01*
X86890Y315970D01*
X86872Y315776D01*
X86854Y315578D01*
X86854Y315573D01*
X86854Y315569D01*
X86875Y315371D01*
X86895Y315177D01*
X86897Y315173D01*
X86897Y315168D01*
X86957Y314977D01*
X87015Y314793D01*
X87017Y314789D01*
X87019Y314784D01*
X87115Y314609D01*
X87208Y314440D01*
X87211Y314436D01*
X87213Y314432D01*
X87341Y314282D01*
X87467Y314132D01*
X87471Y314129D01*
X87474Y314125D01*
X87628Y314003D01*
X87782Y313881D01*
X87786Y313878D01*
X87790Y313876D01*
X87968Y313785D01*
X88140Y313697D01*
X88145Y313695D01*
X88149Y313693D01*
X88342Y313640D01*
X88528Y313587D01*
X88532Y313587D01*
X88537Y313585D01*
X88734Y313571D01*
X88929Y313556D01*
X88934Y313556D01*
X88938Y313556D01*
X89135Y313581D01*
X89329Y313604D01*
X89333Y313606D01*
X89338Y313606D01*
X89524Y313669D01*
X89711Y313731D01*
X89715Y313733D01*
X89719Y313735D01*
X89887Y313831D01*
X90061Y313930D01*
X90064Y313933D01*
X90068Y313936D01*
X90321Y314150D01*
X90456Y314286D01*
X102421Y326251D01*
X102433Y326264D01*
X102446Y326276D01*
X102560Y326420D01*
X102676Y326562D01*
X102685Y326578D01*
X102696Y326592D01*
X102779Y326756D01*
X102865Y326918D01*
X102870Y326935D01*
X102878Y326951D01*
X102927Y327128D01*
X102980Y327304D01*
X102981Y327321D01*
X102986Y327339D01*
X103000Y327522D01*
X103016Y327705D01*
X103014Y327722D01*
X103016Y327740D01*
X102993Y327921D01*
X102973Y328105D01*
X102967Y328122D01*
X102965Y328140D01*
X102907Y328313D01*
X102851Y328489D01*
X102843Y328504D01*
X102837Y328521D01*
X102745Y328681D01*
X102656Y328841D01*
X102645Y328855D01*
X102636Y328870D01*
X102421Y329123D01*
X102001Y329543D01*
X102001Y341017D01*
X103043Y342059D01*
X112308Y342059D01*
X112335Y342061D01*
X112362Y342059D01*
X112535Y342081D01*
X112709Y342099D01*
X112734Y342106D01*
X112761Y342110D01*
X112927Y342165D01*
X113094Y342217D01*
X113117Y342230D01*
X113143Y342238D01*
X113294Y342325D01*
X113448Y342409D01*
X113468Y342426D01*
X113492Y342439D01*
X113745Y342654D01*
X117514Y346423D01*
X117517Y346427D01*
X117520Y346430D01*
X117534Y346446D01*
X117552Y346462D01*
X117659Y346600D01*
X117769Y346735D01*
X117782Y346759D01*
X117798Y346780D01*
X117876Y346937D01*
X117958Y347091D01*
X117966Y347116D01*
X117978Y347140D01*
X118023Y347310D01*
X118073Y347477D01*
X118075Y347503D01*
X118082Y347529D01*
X118109Y347860D01*
X118109Y351470D01*
X118107Y351488D01*
X118109Y351506D01*
X118088Y351688D01*
X118069Y351871D01*
X118064Y351888D01*
X118062Y351905D01*
X118005Y352080D01*
X117951Y352256D01*
X117943Y352271D01*
X117937Y352288D01*
X117847Y352448D01*
X117759Y352610D01*
X117748Y352623D01*
X117739Y352639D01*
X117619Y352778D01*
X117502Y352919D01*
X117488Y352930D01*
X117476Y352944D01*
X117331Y353056D01*
X117188Y353171D01*
X117172Y353179D01*
X117158Y353190D01*
X116993Y353272D01*
X116831Y353357D01*
X116814Y353362D01*
X116798Y353370D01*
X116619Y353417D01*
X116444Y353468D01*
X116426Y353470D01*
X116409Y353474D01*
X116078Y353501D01*
X103043Y353501D01*
X102001Y354543D01*
X102001Y366017D01*
X103043Y367059D01*
X103688Y367059D01*
X103706Y367061D01*
X103724Y367059D01*
X103906Y367080D01*
X104089Y367099D01*
X104106Y367104D01*
X104123Y367106D01*
X104298Y367163D01*
X104474Y367217D01*
X104489Y367225D01*
X104506Y367231D01*
X104666Y367321D01*
X104828Y367409D01*
X104841Y367420D01*
X104857Y367429D01*
X104996Y367549D01*
X105137Y367666D01*
X105148Y367680D01*
X105162Y367692D01*
X105274Y367837D01*
X105389Y367980D01*
X105397Y367996D01*
X105408Y368010D01*
X105490Y368175D01*
X105575Y368337D01*
X105580Y368354D01*
X105588Y368370D01*
X105635Y368549D01*
X105686Y368724D01*
X105688Y368742D01*
X105692Y368759D01*
X105719Y369090D01*
X105719Y408432D01*
X105717Y408450D01*
X105719Y408468D01*
X105698Y408650D01*
X105679Y408833D01*
X105674Y408850D01*
X105672Y408867D01*
X105615Y409042D01*
X105561Y409218D01*
X105553Y409233D01*
X105547Y409250D01*
X105457Y409410D01*
X105369Y409572D01*
X105358Y409585D01*
X105349Y409601D01*
X105229Y409740D01*
X105112Y409881D01*
X105098Y409892D01*
X105086Y409906D01*
X104941Y410018D01*
X104798Y410133D01*
X104782Y410141D01*
X104768Y410152D01*
X104603Y410234D01*
X104441Y410319D01*
X104424Y410324D01*
X104408Y410332D01*
X104229Y410379D01*
X104054Y410430D01*
X104036Y410432D01*
X104019Y410436D01*
X103688Y410463D01*
X101917Y410463D01*
X97809Y412165D01*
X94665Y415309D01*
X92963Y419417D01*
X92963Y423863D01*
X94665Y427971D01*
X97809Y431115D01*
X101917Y432817D01*
X103656Y432817D01*
X103657Y432817D01*
X103659Y432817D01*
X103857Y432837D01*
X104057Y432857D01*
X104058Y432857D01*
X104059Y432857D01*
X104145Y432884D01*
X104279Y432846D01*
X104287Y432846D01*
X104295Y432844D01*
X104625Y432817D01*
X106363Y432817D01*
X110471Y431115D01*
X113615Y427971D01*
X115317Y423863D01*
X115317Y419417D01*
X113495Y415020D01*
X113486Y414990D01*
X113472Y414962D01*
X113428Y414797D01*
X113379Y414634D01*
X113376Y414603D01*
X113368Y414573D01*
X113341Y414242D01*
X113341Y369090D01*
X113343Y369072D01*
X113341Y369054D01*
X113362Y368872D01*
X113381Y368689D01*
X113386Y368672D01*
X113388Y368655D01*
X113445Y368480D01*
X113499Y368304D01*
X113507Y368289D01*
X113513Y368272D01*
X113603Y368112D01*
X113691Y367950D01*
X113702Y367937D01*
X113711Y367921D01*
X113831Y367782D01*
X113948Y367641D01*
X113962Y367630D01*
X113974Y367616D01*
X114119Y367504D01*
X114262Y367389D01*
X114278Y367381D01*
X114292Y367370D01*
X114457Y367288D01*
X114619Y367203D01*
X114636Y367198D01*
X114652Y367190D01*
X114831Y367143D01*
X115006Y367092D01*
X115024Y367090D01*
X115041Y367086D01*
X115372Y367059D01*
X116078Y367059D01*
X116096Y367061D01*
X116114Y367059D01*
X116296Y367080D01*
X116479Y367099D01*
X116496Y367104D01*
X116513Y367106D01*
X116688Y367163D01*
X116864Y367217D01*
X116879Y367225D01*
X116896Y367231D01*
X117056Y367321D01*
X117218Y367409D01*
X117231Y367420D01*
X117247Y367429D01*
X117386Y367549D01*
X117527Y367666D01*
X117538Y367680D01*
X117552Y367692D01*
X117664Y367837D01*
X117779Y367980D01*
X117787Y367996D01*
X117798Y368010D01*
X117880Y368175D01*
X117965Y368337D01*
X117970Y368354D01*
X117978Y368370D01*
X118025Y368549D01*
X118076Y368724D01*
X118078Y368742D01*
X118082Y368759D01*
X118109Y369090D01*
X118109Y392738D01*
X152188Y426817D01*
X179372Y426817D01*
X184619Y421570D01*
X184639Y421554D01*
X184654Y421536D01*
X184656Y421535D01*
X184658Y421532D01*
X184796Y421425D01*
X184931Y421315D01*
X184955Y421302D01*
X184976Y421286D01*
X185132Y421208D01*
X185287Y421126D01*
X185312Y421118D01*
X185336Y421106D01*
X185506Y421061D01*
X185673Y421011D01*
X185699Y421009D01*
X185725Y421002D01*
X186056Y420975D01*
X190962Y420975D01*
X195575Y416362D01*
X195575Y409838D01*
X190962Y405225D01*
X184438Y405225D01*
X179825Y409838D01*
X179825Y414744D01*
X179823Y414771D01*
X179825Y414798D01*
X179803Y414972D01*
X179785Y415145D01*
X179778Y415170D01*
X179774Y415197D01*
X179718Y415363D01*
X179667Y415530D01*
X179654Y415553D01*
X179646Y415579D01*
X179559Y415730D01*
X179475Y415884D01*
X179458Y415904D01*
X179445Y415928D01*
X179230Y416181D01*
X176810Y418600D01*
X176790Y418617D01*
X176772Y418638D01*
X176634Y418744D01*
X176499Y418855D01*
X176475Y418868D01*
X176454Y418884D01*
X176298Y418962D01*
X176143Y419044D01*
X176118Y419052D01*
X176094Y419064D01*
X175925Y419109D01*
X175757Y419159D01*
X175731Y419161D01*
X175705Y419168D01*
X175374Y419195D01*
X172968Y419195D01*
X172950Y419193D01*
X172932Y419195D01*
X172750Y419174D01*
X172567Y419155D01*
X172550Y419150D01*
X172533Y419148D01*
X172358Y419091D01*
X172182Y419037D01*
X172167Y419029D01*
X172150Y419023D01*
X171990Y418933D01*
X171828Y418845D01*
X171815Y418834D01*
X171799Y418825D01*
X171660Y418705D01*
X171519Y418588D01*
X171508Y418574D01*
X171494Y418562D01*
X171382Y418417D01*
X171267Y418274D01*
X171259Y418258D01*
X171248Y418244D01*
X171166Y418079D01*
X171081Y417917D01*
X171076Y417900D01*
X171068Y417884D01*
X171021Y417705D01*
X170970Y417530D01*
X170968Y417512D01*
X170964Y417495D01*
X170937Y417164D01*
X170937Y415639D01*
X162808Y415639D01*
X162790Y415637D01*
X162773Y415639D01*
X162590Y415618D01*
X162408Y415599D01*
X162391Y415594D01*
X162373Y415592D01*
X162295Y415567D01*
X162158Y415606D01*
X162140Y415608D01*
X162123Y415612D01*
X161792Y415639D01*
X152630Y415639D01*
X152603Y415637D01*
X152577Y415639D01*
X152403Y415617D01*
X152229Y415599D01*
X152204Y415592D01*
X152177Y415588D01*
X152011Y415533D01*
X151844Y415481D01*
X151821Y415468D01*
X151795Y415460D01*
X151644Y415373D01*
X151490Y415289D01*
X151470Y415272D01*
X151447Y415259D01*
X151194Y415044D01*
X126326Y390176D01*
X126309Y390156D01*
X126288Y390138D01*
X126181Y390000D01*
X126071Y389865D01*
X126058Y389841D01*
X126042Y389820D01*
X125964Y389663D01*
X125882Y389509D01*
X125874Y389484D01*
X125862Y389460D01*
X125817Y389290D01*
X125767Y389123D01*
X125765Y389097D01*
X125758Y389071D01*
X125731Y388740D01*
X125731Y379864D01*
X125732Y379855D01*
X125731Y379846D01*
X125752Y379652D01*
X125771Y379463D01*
X125773Y379455D01*
X125774Y379446D01*
X125833Y379261D01*
X125889Y379078D01*
X125893Y379070D01*
X125896Y379062D01*
X125989Y378894D01*
X126081Y378724D01*
X126086Y378717D01*
X126091Y378710D01*
X126215Y378562D01*
X126338Y378415D01*
X126345Y378409D01*
X126351Y378403D01*
X126503Y378283D01*
X126652Y378163D01*
X126660Y378158D01*
X126667Y378153D01*
X126840Y378065D01*
X127009Y377977D01*
X127018Y377975D01*
X127026Y377971D01*
X127212Y377919D01*
X127396Y377866D01*
X127405Y377865D01*
X127414Y377863D01*
X127607Y377848D01*
X127798Y377833D01*
X127806Y377834D01*
X127815Y377833D01*
X128008Y377857D01*
X128197Y377880D01*
X128206Y377882D01*
X128215Y377884D01*
X128397Y377945D01*
X128580Y378005D01*
X128588Y378009D01*
X128596Y378012D01*
X128763Y378108D01*
X128931Y378202D01*
X128938Y378208D01*
X128945Y378213D01*
X129198Y378427D01*
X155542Y404771D01*
X155553Y404785D01*
X155567Y404797D01*
X155680Y404940D01*
X155797Y405083D01*
X155805Y405098D01*
X155817Y405112D01*
X155900Y405277D01*
X155986Y405438D01*
X155991Y405455D01*
X155999Y405471D01*
X156048Y405649D01*
X156100Y405824D01*
X156102Y405842D01*
X156107Y405859D01*
X156120Y406042D01*
X156137Y406225D01*
X156135Y406243D01*
X156136Y406261D01*
X156113Y406443D01*
X156093Y406626D01*
X156088Y406643D01*
X156086Y406660D01*
X156027Y406834D01*
X155972Y407009D01*
X155963Y407025D01*
X155958Y407042D01*
X155866Y407201D01*
X155777Y407362D01*
X155766Y407375D01*
X155757Y407391D01*
X155542Y407644D01*
X153663Y409523D01*
X153663Y410561D01*
X161792Y410561D01*
X161810Y410562D01*
X161827Y410561D01*
X162010Y410582D01*
X162192Y410601D01*
X162209Y410606D01*
X162227Y410608D01*
X162305Y410633D01*
X162442Y410594D01*
X162460Y410592D01*
X162477Y410588D01*
X162808Y410561D01*
X170937Y410561D01*
X170937Y409523D01*
X170012Y408598D01*
X170007Y408591D01*
X170000Y408586D01*
X169879Y408435D01*
X169757Y408287D01*
X169753Y408279D01*
X169748Y408272D01*
X169659Y408101D01*
X169569Y407931D01*
X169566Y407922D01*
X169562Y407915D01*
X169509Y407730D01*
X169454Y407545D01*
X169453Y407536D01*
X169451Y407528D01*
X169435Y407336D01*
X169418Y407144D01*
X169419Y407135D01*
X169418Y407126D01*
X169440Y406937D01*
X169461Y406744D01*
X169464Y406735D01*
X169465Y406727D01*
X169524Y406544D01*
X169582Y406360D01*
X169587Y406352D01*
X169590Y406344D01*
X169684Y406177D01*
X169777Y406008D01*
X169783Y406001D01*
X169787Y405993D01*
X169913Y405848D01*
X170038Y405701D01*
X170045Y405695D01*
X170051Y405688D01*
X170201Y405572D01*
X170354Y405451D01*
X170362Y405447D01*
X170369Y405442D01*
X170539Y405357D01*
X170713Y405269D01*
X170721Y405266D01*
X170729Y405262D01*
X170915Y405213D01*
X171101Y405161D01*
X171109Y405160D01*
X171118Y405158D01*
X171449Y405131D01*
X175658Y405131D01*
X184620Y396170D01*
X184640Y396153D01*
X184658Y396132D01*
X184796Y396025D01*
X184931Y395915D01*
X184955Y395902D01*
X184976Y395886D01*
X185133Y395808D01*
X185287Y395726D01*
X185312Y395718D01*
X185336Y395706D01*
X185506Y395661D01*
X185673Y395611D01*
X185699Y395609D01*
X185725Y395602D01*
X186056Y395575D01*
X190962Y395575D01*
X195575Y390962D01*
X195575Y384438D01*
X190962Y379825D01*
X184438Y379825D01*
X179825Y384438D01*
X179825Y389344D01*
X179823Y389371D01*
X179825Y389397D01*
X179803Y389571D01*
X179785Y389745D01*
X179778Y389770D01*
X179774Y389797D01*
X179719Y389963D01*
X179667Y390130D01*
X179654Y390153D01*
X179646Y390179D01*
X179559Y390330D01*
X179475Y390484D01*
X179458Y390504D01*
X179445Y390527D01*
X179230Y390780D01*
X173096Y396914D01*
X173076Y396931D01*
X173058Y396952D01*
X172920Y397059D01*
X172785Y397169D01*
X172761Y397182D01*
X172740Y397198D01*
X172583Y397276D01*
X172429Y397358D01*
X172404Y397366D01*
X172380Y397378D01*
X172210Y397423D01*
X172043Y397473D01*
X172017Y397475D01*
X171991Y397482D01*
X171660Y397509D01*
X168531Y397509D01*
X168522Y397508D01*
X168513Y397509D01*
X168322Y397488D01*
X168130Y397469D01*
X168122Y397467D01*
X168113Y397466D01*
X167931Y397408D01*
X167746Y397351D01*
X167738Y397347D01*
X167729Y397344D01*
X167561Y397251D01*
X167392Y397159D01*
X167385Y397154D01*
X167377Y397149D01*
X167230Y397025D01*
X167082Y396902D01*
X167077Y396895D01*
X167070Y396889D01*
X166951Y396738D01*
X166830Y396588D01*
X166826Y396580D01*
X166820Y396573D01*
X166733Y396400D01*
X166644Y396231D01*
X166642Y396222D01*
X166638Y396214D01*
X166586Y396028D01*
X166533Y395844D01*
X166532Y395835D01*
X166530Y395826D01*
X166516Y395633D01*
X166500Y395442D01*
X166501Y395434D01*
X166501Y395425D01*
X166525Y395232D01*
X166547Y395043D01*
X166550Y395034D01*
X166551Y395025D01*
X166612Y394842D01*
X166672Y394660D01*
X166676Y394652D01*
X166679Y394644D01*
X166775Y394477D01*
X166870Y394309D01*
X166876Y394302D01*
X166880Y394295D01*
X167095Y394042D01*
X170175Y390962D01*
X170175Y384438D01*
X168779Y383043D01*
X168768Y383029D01*
X168754Y383017D01*
X168640Y382873D01*
X168524Y382731D01*
X168516Y382715D01*
X168505Y382701D01*
X168421Y382537D01*
X168335Y382375D01*
X168330Y382358D01*
X168322Y382342D01*
X168273Y382165D01*
X168221Y381990D01*
X168219Y381972D01*
X168214Y381955D01*
X168201Y381772D01*
X168184Y381589D01*
X168186Y381571D01*
X168185Y381553D01*
X168208Y381371D01*
X168228Y381188D01*
X168233Y381171D01*
X168235Y381154D01*
X168294Y380980D01*
X168349Y380804D01*
X168358Y380789D01*
X168364Y380772D01*
X168455Y380613D01*
X168544Y380452D01*
X168556Y380438D01*
X168564Y380423D01*
X168779Y380170D01*
X180170Y368779D01*
X180184Y368768D01*
X180195Y368754D01*
X180340Y368640D01*
X180482Y368524D01*
X180497Y368516D01*
X180511Y368505D01*
X180675Y368421D01*
X180837Y368335D01*
X180854Y368330D01*
X180870Y368322D01*
X181048Y368273D01*
X181223Y368221D01*
X181241Y368219D01*
X181258Y368214D01*
X181441Y368201D01*
X181624Y368184D01*
X181642Y368186D01*
X181660Y368185D01*
X181842Y368208D01*
X182024Y368228D01*
X182041Y368233D01*
X182059Y368235D01*
X182233Y368294D01*
X182408Y368349D01*
X182424Y368358D01*
X182441Y368364D01*
X182600Y368455D01*
X182761Y368544D01*
X182774Y368556D01*
X182790Y368564D01*
X183043Y368779D01*
X184438Y370175D01*
X190962Y370175D01*
X195575Y365562D01*
X195575Y360656D01*
X195577Y360629D01*
X195575Y360602D01*
X195597Y360429D01*
X195615Y360255D01*
X195622Y360230D01*
X195626Y360203D01*
X195682Y360037D01*
X195733Y359870D01*
X195746Y359847D01*
X195754Y359821D01*
X195841Y359670D01*
X195925Y359516D01*
X195942Y359496D01*
X195955Y359472D01*
X196170Y359219D01*
X201417Y353972D01*
X201417Y328108D01*
X190377Y317068D01*
X190372Y317061D01*
X190365Y317056D01*
X190245Y316906D01*
X190122Y316757D01*
X190118Y316749D01*
X190113Y316742D01*
X190024Y316572D01*
X189934Y316401D01*
X189931Y316392D01*
X189927Y316385D01*
X189874Y316200D01*
X189819Y316015D01*
X189818Y316006D01*
X189816Y315998D01*
X189800Y315806D01*
X189783Y315614D01*
X189784Y315605D01*
X189783Y315596D01*
X189805Y315407D01*
X189826Y315214D01*
X189829Y315205D01*
X189830Y315197D01*
X189889Y315014D01*
X189947Y314830D01*
X189952Y314822D01*
X189955Y314814D01*
X190050Y314645D01*
X190142Y314478D01*
X190148Y314471D01*
X190152Y314463D01*
X190278Y314317D01*
X190403Y314171D01*
X190410Y314165D01*
X190416Y314158D01*
X190567Y314041D01*
X190719Y313921D01*
X190727Y313917D01*
X190734Y313912D01*
X190906Y313826D01*
X191078Y313739D01*
X191086Y313736D01*
X191094Y313732D01*
X191281Y313682D01*
X191466Y313631D01*
X191474Y313630D01*
X191483Y313628D01*
X191814Y313601D01*
X193783Y313601D01*
X197891Y311899D01*
X201035Y308755D01*
X202788Y304522D01*
X202837Y304367D01*
X202895Y304178D01*
X202897Y304174D01*
X202898Y304170D01*
X202994Y303996D01*
X203087Y303824D01*
X203089Y303821D01*
X203092Y303817D01*
X203220Y303664D01*
X203344Y303515D01*
X203348Y303512D01*
X203351Y303509D01*
X203507Y303384D01*
X203658Y303263D01*
X203662Y303261D01*
X203665Y303258D01*
X203846Y303165D01*
X204015Y303077D01*
X204020Y303076D01*
X204024Y303074D01*
X204214Y303020D01*
X204402Y302966D01*
X204407Y302966D01*
X204411Y302964D01*
X204603Y302949D01*
X204804Y302933D01*
X204808Y302934D01*
X204812Y302933D01*
X205006Y302957D01*
X205203Y302980D01*
X205208Y302981D01*
X205212Y302982D01*
X205397Y303043D01*
X205586Y303105D01*
X205590Y303107D01*
X205594Y303108D01*
X205763Y303205D01*
X205937Y303303D01*
X205940Y303306D01*
X205944Y303308D01*
X206091Y303436D01*
X206241Y303566D01*
X206244Y303569D01*
X206248Y303572D01*
X206368Y303729D01*
X206488Y303884D01*
X206490Y303888D01*
X206493Y303891D01*
X206645Y304187D01*
X207485Y306215D01*
X210629Y309359D01*
X214737Y311061D01*
X219183Y311061D01*
X223291Y309359D01*
X226435Y306215D01*
X227275Y304187D01*
X227278Y304183D01*
X227279Y304178D01*
X227372Y304006D01*
X227466Y303832D01*
X227468Y303828D01*
X227471Y303824D01*
X227596Y303674D01*
X227722Y303521D01*
X227725Y303519D01*
X227728Y303515D01*
X227881Y303392D01*
X228035Y303268D01*
X228039Y303266D01*
X228042Y303263D01*
X228215Y303173D01*
X228391Y303081D01*
X228395Y303079D01*
X228399Y303077D01*
X228587Y303023D01*
X228778Y302968D01*
X228782Y302967D01*
X228786Y302966D01*
X228984Y302950D01*
X229179Y302933D01*
X229183Y302933D01*
X229188Y302933D01*
X229382Y302956D01*
X229579Y302978D01*
X229583Y302979D01*
X229587Y302980D01*
X229773Y303040D01*
X229962Y303101D01*
X229966Y303103D01*
X229970Y303105D01*
X230141Y303201D01*
X230314Y303298D01*
X230317Y303300D01*
X230321Y303303D01*
X230469Y303431D01*
X230619Y303559D01*
X230622Y303563D01*
X230626Y303566D01*
X230745Y303720D01*
X230868Y303876D01*
X230870Y303880D01*
X230872Y303884D01*
X230958Y304057D01*
X231048Y304236D01*
X231050Y304240D01*
X231052Y304244D01*
X231103Y304436D01*
X231117Y304488D01*
X232885Y308755D01*
X236029Y311899D01*
X239845Y313480D01*
X240137Y313601D01*
X244583Y313601D01*
X248691Y311899D01*
X251835Y308755D01*
X253588Y304522D01*
X253637Y304367D01*
X253695Y304178D01*
X253697Y304174D01*
X253698Y304170D01*
X253794Y303996D01*
X253887Y303824D01*
X253889Y303821D01*
X253892Y303817D01*
X254020Y303664D01*
X254144Y303515D01*
X254148Y303512D01*
X254151Y303509D01*
X254307Y303384D01*
X254458Y303263D01*
X254462Y303261D01*
X254465Y303258D01*
X254646Y303165D01*
X254815Y303077D01*
X254820Y303076D01*
X254824Y303074D01*
X255014Y303020D01*
X255202Y302966D01*
X255207Y302966D01*
X255211Y302964D01*
X255403Y302949D01*
X255604Y302933D01*
X255608Y302934D01*
X255612Y302933D01*
X255806Y302957D01*
X256003Y302980D01*
X256008Y302981D01*
X256012Y302982D01*
X256197Y303043D01*
X256386Y303105D01*
X256390Y303107D01*
X256394Y303108D01*
X256563Y303205D01*
X256737Y303303D01*
X256740Y303306D01*
X256744Y303308D01*
X256891Y303436D01*
X257041Y303566D01*
X257044Y303569D01*
X257048Y303572D01*
X257168Y303729D01*
X257288Y303884D01*
X257290Y303888D01*
X257293Y303891D01*
X257445Y304187D01*
X258285Y306215D01*
X261429Y309359D01*
X265537Y311061D01*
X269983Y311061D01*
X274091Y309359D01*
X277235Y306215D01*
X278075Y304187D01*
X278078Y304183D01*
X278079Y304178D01*
X278172Y304006D01*
X278266Y303832D01*
X278268Y303828D01*
X278271Y303824D01*
X278396Y303674D01*
X278522Y303521D01*
X278525Y303519D01*
X278528Y303515D01*
X278681Y303392D01*
X278835Y303268D01*
X278839Y303266D01*
X278842Y303263D01*
X279015Y303173D01*
X279191Y303081D01*
X279195Y303079D01*
X279199Y303077D01*
X279387Y303023D01*
X279578Y302968D01*
X279582Y302967D01*
X279586Y302966D01*
X279784Y302950D01*
X279979Y302933D01*
X279983Y302933D01*
X279988Y302933D01*
X280182Y302956D01*
X280379Y302978D01*
X280383Y302979D01*
X280387Y302980D01*
X280573Y303040D01*
X280762Y303101D01*
X280766Y303103D01*
X280770Y303105D01*
X280941Y303201D01*
X281114Y303298D01*
X281117Y303300D01*
X281121Y303303D01*
X281269Y303431D01*
X281419Y303559D01*
X281422Y303563D01*
X281426Y303566D01*
X281545Y303720D01*
X281668Y303876D01*
X281670Y303880D01*
X281672Y303884D01*
X281758Y304057D01*
X281848Y304236D01*
X281850Y304240D01*
X281852Y304244D01*
X281903Y304436D01*
X281917Y304488D01*
X283685Y308755D01*
X286829Y311899D01*
X290645Y313480D01*
X290937Y313601D01*
X295383Y313601D01*
X299491Y311899D01*
X302635Y308755D01*
X304388Y304522D01*
X304437Y304367D01*
X304495Y304178D01*
X304497Y304174D01*
X304498Y304170D01*
X304594Y303996D01*
X304687Y303824D01*
X304689Y303821D01*
X304692Y303817D01*
X304820Y303664D01*
X304944Y303515D01*
X304948Y303512D01*
X304951Y303509D01*
X305107Y303384D01*
X305258Y303263D01*
X305262Y303261D01*
X305265Y303258D01*
X305446Y303165D01*
X305615Y303077D01*
X305620Y303076D01*
X305624Y303074D01*
X305814Y303020D01*
X306002Y302966D01*
X306007Y302966D01*
X306011Y302964D01*
X306203Y302949D01*
X306404Y302933D01*
X306408Y302934D01*
X306412Y302933D01*
X306606Y302957D01*
X306803Y302980D01*
X306808Y302981D01*
X306812Y302982D01*
X306997Y303043D01*
X307186Y303105D01*
X307190Y303107D01*
X307194Y303108D01*
X307363Y303205D01*
X307537Y303303D01*
X307540Y303306D01*
X307544Y303308D01*
X307691Y303436D01*
X307841Y303566D01*
X307844Y303569D01*
X307848Y303572D01*
X307968Y303729D01*
X308088Y303884D01*
X308090Y303888D01*
X308093Y303891D01*
X308245Y304187D01*
X309085Y306215D01*
X312229Y309359D01*
X316337Y311061D01*
X320783Y311061D01*
X324891Y309359D01*
X328035Y306215D01*
X328560Y304949D01*
X328570Y304929D01*
X328577Y304908D01*
X328665Y304752D01*
X328750Y304594D01*
X328764Y304577D01*
X328775Y304557D01*
X328892Y304422D01*
X329006Y304283D01*
X329024Y304269D01*
X329038Y304252D01*
X329180Y304143D01*
X329319Y304030D01*
X329339Y304019D01*
X329356Y304006D01*
X329517Y303926D01*
X329675Y303843D01*
X329697Y303836D01*
X329717Y303826D01*
X329890Y303780D01*
X330062Y303730D01*
X330084Y303728D01*
X330106Y303722D01*
X330436Y303695D01*
X341914Y303695D01*
X341941Y303697D01*
X341967Y303695D01*
X342141Y303717D01*
X342315Y303735D01*
X342340Y303742D01*
X342367Y303746D01*
X342533Y303801D01*
X342700Y303853D01*
X342723Y303866D01*
X342749Y303874D01*
X342900Y303961D01*
X343054Y304045D01*
X343074Y304062D01*
X343097Y304075D01*
X343350Y304290D01*
X362624Y323564D01*
X362641Y323584D01*
X362662Y323602D01*
X362769Y323740D01*
X362879Y323875D01*
X362892Y323899D01*
X362908Y323920D01*
X362986Y324077D01*
X363068Y324231D01*
X363076Y324256D01*
X363088Y324280D01*
X363133Y324450D01*
X363183Y324617D01*
X363185Y324643D01*
X363192Y324669D01*
X363219Y325000D01*
X363219Y439540D01*
X363217Y439567D01*
X363219Y439593D01*
X363197Y439767D01*
X363179Y439941D01*
X363172Y439966D01*
X363168Y439993D01*
X363113Y440158D01*
X363061Y440326D01*
X363048Y440349D01*
X363040Y440375D01*
X362953Y440526D01*
X362869Y440680D01*
X362852Y440700D01*
X362839Y440723D01*
X362624Y440976D01*
X347638Y455963D01*
X347631Y455968D01*
X347626Y455975D01*
X347476Y456095D01*
X347327Y456218D01*
X347319Y456222D01*
X347312Y456227D01*
X347142Y456316D01*
X346971Y456406D01*
X346962Y456409D01*
X346955Y456413D01*
X346770Y456466D01*
X346585Y456521D01*
X346576Y456522D01*
X346568Y456524D01*
X346376Y456540D01*
X346184Y456557D01*
X346175Y456556D01*
X346166Y456557D01*
X345977Y456535D01*
X345784Y456514D01*
X345775Y456511D01*
X345767Y456510D01*
X345585Y456451D01*
X345400Y456393D01*
X345392Y456388D01*
X345384Y456385D01*
X345214Y456290D01*
X345048Y456198D01*
X345041Y456192D01*
X345033Y456188D01*
X344887Y456062D01*
X344741Y455937D01*
X344735Y455930D01*
X344728Y455924D01*
X344611Y455773D01*
X344491Y455621D01*
X344487Y455613D01*
X344482Y455606D01*
X344396Y455434D01*
X344309Y455262D01*
X344306Y455254D01*
X344302Y455246D01*
X344252Y455058D01*
X344201Y454874D01*
X344200Y454866D01*
X344198Y454857D01*
X344171Y454526D01*
X344171Y429582D01*
X330770Y416180D01*
X330753Y416160D01*
X330732Y416142D01*
X330625Y416004D01*
X330515Y415869D01*
X330502Y415845D01*
X330486Y415824D01*
X330408Y415667D01*
X330326Y415513D01*
X330318Y415488D01*
X330306Y415464D01*
X330261Y415294D01*
X330211Y415127D01*
X330209Y415101D01*
X330202Y415075D01*
X330175Y414744D01*
X330175Y409838D01*
X325562Y405225D01*
X319038Y405225D01*
X314425Y409838D01*
X314425Y416362D01*
X319038Y420975D01*
X323944Y420975D01*
X323971Y420977D01*
X323997Y420975D01*
X324171Y420997D01*
X324345Y421015D01*
X324370Y421022D01*
X324397Y421026D01*
X324563Y421081D01*
X324730Y421133D01*
X324753Y421146D01*
X324779Y421154D01*
X324930Y421241D01*
X325084Y421325D01*
X325104Y421342D01*
X325127Y421355D01*
X325380Y421570D01*
X335954Y432144D01*
X335971Y432164D01*
X335992Y432182D01*
X336099Y432320D01*
X336209Y432455D01*
X336222Y432479D01*
X336238Y432500D01*
X336316Y432657D01*
X336398Y432811D01*
X336406Y432836D01*
X336418Y432860D01*
X336463Y433030D01*
X336513Y433197D01*
X336515Y433223D01*
X336522Y433249D01*
X336549Y433580D01*
X336549Y457948D01*
X336547Y457975D01*
X336549Y458002D01*
X336527Y458176D01*
X336509Y458349D01*
X336502Y458374D01*
X336498Y458401D01*
X336443Y458567D01*
X336391Y458734D01*
X336378Y458757D01*
X336370Y458783D01*
X336283Y458934D01*
X336199Y459088D01*
X336182Y459108D01*
X336169Y459132D01*
X335954Y459385D01*
X324257Y471082D01*
X324236Y471099D01*
X324218Y471120D01*
X324080Y471227D01*
X323945Y471337D01*
X323921Y471350D01*
X323900Y471366D01*
X323743Y471444D01*
X323589Y471526D01*
X323564Y471534D01*
X323540Y471546D01*
X323370Y471591D01*
X323203Y471641D01*
X323177Y471643D01*
X323151Y471650D01*
X322820Y471677D01*
X150248Y471677D01*
X150221Y471675D01*
X150195Y471677D01*
X150021Y471655D01*
X149847Y471637D01*
X149822Y471630D01*
X149795Y471626D01*
X149629Y471571D01*
X149462Y471519D01*
X149439Y471506D01*
X149413Y471498D01*
X149262Y471411D01*
X149108Y471327D01*
X149088Y471310D01*
X149065Y471297D01*
X148812Y471082D01*
X139470Y461740D01*
X139453Y461720D01*
X139432Y461702D01*
X139325Y461564D01*
X139215Y461429D01*
X139202Y461405D01*
X139186Y461384D01*
X139107Y461227D01*
X139026Y461073D01*
X139018Y461048D01*
X139006Y461024D01*
X138961Y460854D01*
X138911Y460687D01*
X138909Y460661D01*
X138902Y460635D01*
X138875Y460304D01*
X138875Y458388D01*
X137840Y455891D01*
X135929Y453980D01*
X133432Y452945D01*
X130728Y452945D01*
X128231Y453980D01*
X126320Y455891D01*
X125285Y458388D01*
X125285Y461092D01*
X126320Y463589D01*
X128231Y465500D01*
X130728Y466535D01*
X132644Y466535D01*
X132671Y466537D01*
X132697Y466535D01*
X132871Y466557D01*
X133045Y466575D01*
X133070Y466582D01*
X133097Y466586D01*
X133262Y466641D01*
X133430Y466693D01*
X133453Y466706D01*
X133479Y466714D01*
X133630Y466801D01*
X133784Y466885D01*
X133804Y466902D01*
X133827Y466915D01*
X134080Y467130D01*
X141003Y474052D01*
X141008Y474059D01*
X141015Y474064D01*
X141135Y474214D01*
X141258Y474363D01*
X141262Y474371D01*
X141267Y474378D01*
X141356Y474548D01*
X141446Y474719D01*
X141449Y474728D01*
X141453Y474735D01*
X141506Y474920D01*
X141561Y475105D01*
X141562Y475114D01*
X141564Y475122D01*
X141580Y475314D01*
X141597Y475506D01*
X141596Y475515D01*
X141597Y475524D01*
X141575Y475713D01*
X141554Y475906D01*
X141551Y475915D01*
X141550Y475923D01*
X141491Y476105D01*
X141433Y476290D01*
X141428Y476298D01*
X141425Y476306D01*
X141331Y476474D01*
X141238Y476642D01*
X141232Y476649D01*
X141228Y476657D01*
X141102Y476803D01*
X140977Y476949D01*
X140970Y476955D01*
X140964Y476962D01*
X140813Y477079D01*
X140661Y477199D01*
X140653Y477203D01*
X140646Y477208D01*
X140474Y477294D01*
X140302Y477381D01*
X140294Y477384D01*
X140286Y477388D01*
X140099Y477438D01*
X139914Y477489D01*
X139906Y477490D01*
X139897Y477492D01*
X139566Y477519D01*
X78432Y477519D01*
X63618Y492333D01*
X63611Y492338D01*
X63606Y492345D01*
X63456Y492465D01*
X63307Y492588D01*
X63299Y492592D01*
X63292Y492597D01*
X63122Y492686D01*
X62951Y492776D01*
X62942Y492779D01*
X62935Y492783D01*
X62750Y492836D01*
X62565Y492891D01*
X62556Y492892D01*
X62548Y492894D01*
X62356Y492910D01*
X62164Y492927D01*
X62155Y492926D01*
X62146Y492927D01*
X61957Y492905D01*
X61764Y492884D01*
X61755Y492881D01*
X61747Y492880D01*
X61565Y492821D01*
X61380Y492763D01*
X61372Y492758D01*
X61364Y492755D01*
X61195Y492660D01*
X61028Y492568D01*
X61021Y492562D01*
X61013Y492558D01*
X60867Y492432D01*
X60721Y492307D01*
X60715Y492300D01*
X60708Y492294D01*
X60591Y492143D01*
X60471Y491991D01*
X60467Y491983D01*
X60462Y491976D01*
X60376Y491804D01*
X60289Y491632D01*
X60286Y491624D01*
X60282Y491616D01*
X60232Y491429D01*
X60181Y491244D01*
X60180Y491236D01*
X60178Y491227D01*
X60151Y490896D01*
X60151Y479371D01*
X59109Y478329D01*
X54102Y478329D01*
X54084Y478327D01*
X54066Y478329D01*
X53884Y478308D01*
X53701Y478289D01*
X53684Y478284D01*
X53667Y478282D01*
X53492Y478225D01*
X53316Y478171D01*
X53301Y478163D01*
X53284Y478157D01*
X53124Y478067D01*
X52962Y477979D01*
X52949Y477968D01*
X52933Y477959D01*
X52794Y477839D01*
X52653Y477722D01*
X52642Y477708D01*
X52628Y477696D01*
X52516Y477551D01*
X52401Y477408D01*
X52393Y477392D01*
X52382Y477378D01*
X52300Y477213D01*
X52215Y477051D01*
X52210Y477034D01*
X52202Y477018D01*
X52155Y476839D01*
X52104Y476664D01*
X52102Y476646D01*
X52098Y476629D01*
X52071Y476298D01*
X52071Y409902D01*
X49838Y407669D01*
X37276Y407669D01*
X37254Y407667D01*
X37232Y407669D01*
X37054Y407647D01*
X36876Y407629D01*
X36854Y407623D01*
X36832Y407620D01*
X36663Y407564D01*
X36491Y407511D01*
X36471Y407501D01*
X36450Y407494D01*
X36295Y407405D01*
X36137Y407319D01*
X36120Y407305D01*
X36100Y407294D01*
X35965Y407176D01*
X35828Y407062D01*
X35814Y407044D01*
X35797Y407030D01*
X35687Y406887D01*
X35575Y406748D01*
X35565Y406728D01*
X35551Y406710D01*
X35400Y406415D01*
X34875Y405149D01*
X31731Y402005D01*
X29703Y401165D01*
X29699Y401163D01*
X29694Y401161D01*
X29522Y401068D01*
X29348Y400974D01*
X29344Y400972D01*
X29340Y400969D01*
X29192Y400845D01*
X29037Y400718D01*
X29035Y400715D01*
X29031Y400712D01*
X28908Y400559D01*
X28784Y400405D01*
X28782Y400401D01*
X28779Y400398D01*
X28689Y400225D01*
X28597Y400049D01*
X28595Y400045D01*
X28593Y400041D01*
X28538Y399850D01*
X28484Y399662D01*
X28483Y399658D01*
X28482Y399654D01*
X28465Y399453D01*
X28449Y399261D01*
X28449Y399257D01*
X28449Y399252D01*
X28472Y399058D01*
X28494Y398861D01*
X28495Y398857D01*
X28496Y398853D01*
X28558Y398662D01*
X28617Y398478D01*
X28619Y398474D01*
X28621Y398470D01*
X28718Y398297D01*
X28814Y398126D01*
X28816Y398123D01*
X28819Y398119D01*
X28947Y397970D01*
X29075Y397821D01*
X29079Y397818D01*
X29082Y397814D01*
X29237Y397694D01*
X29392Y397572D01*
X29396Y397570D01*
X29400Y397568D01*
X29578Y397479D01*
X29752Y397392D01*
X29756Y397390D01*
X29760Y397388D01*
X29952Y397337D01*
X30004Y397323D01*
X34271Y395555D01*
X37415Y392411D01*
X39117Y388303D01*
X39117Y383857D01*
X37415Y379749D01*
X34271Y376605D01*
X33131Y376133D01*
X30163Y374903D01*
X25717Y374903D01*
X21609Y376605D01*
X18465Y379749D01*
X16763Y383857D01*
X16763Y388303D01*
X18465Y392411D01*
X21609Y395555D01*
X23637Y396395D01*
X23641Y396397D01*
X23646Y396399D01*
X23818Y396492D01*
X23992Y396586D01*
X23996Y396588D01*
X24000Y396591D01*
X24148Y396715D01*
X24303Y396842D01*
X24305Y396845D01*
X24309Y396848D01*
X24432Y397001D01*
X24556Y397155D01*
X24558Y397159D01*
X24561Y397162D01*
X24651Y397335D01*
X24743Y397511D01*
X24745Y397515D01*
X24747Y397519D01*
X24801Y397708D01*
X24856Y397898D01*
X24857Y397902D01*
X24858Y397906D01*
X24874Y398104D01*
X24891Y398299D01*
X24891Y398303D01*
X24891Y398308D01*
X24868Y398502D01*
X24846Y398699D01*
X24845Y398703D01*
X24844Y398707D01*
X24784Y398893D01*
X24723Y399082D01*
X24721Y399086D01*
X24719Y399090D01*
X24623Y399261D01*
X24526Y399434D01*
X24524Y399437D01*
X24521Y399441D01*
X24393Y399590D01*
X24265Y399739D01*
X24261Y399742D01*
X24258Y399746D01*
X24104Y399865D01*
X23948Y399988D01*
X23944Y399990D01*
X23940Y399992D01*
X23762Y400081D01*
X23588Y400168D01*
X23584Y400170D01*
X23580Y400172D01*
X23388Y400223D01*
X23336Y400237D01*
X19069Y402005D01*
X15925Y405149D01*
X14223Y409257D01*
X14223Y413703D01*
X15925Y417811D01*
X19069Y420955D01*
X23302Y422709D01*
X23456Y422757D01*
X23646Y422815D01*
X23650Y422817D01*
X23654Y422818D01*
X23827Y422913D01*
X24000Y423007D01*
X24003Y423009D01*
X24007Y423012D01*
X24160Y423140D01*
X24309Y423264D01*
X24312Y423268D01*
X24315Y423271D01*
X24437Y423424D01*
X24561Y423578D01*
X24563Y423582D01*
X24566Y423585D01*
X24655Y423759D01*
X24747Y423935D01*
X24748Y423940D01*
X24750Y423944D01*
X24803Y424131D01*
X24858Y424322D01*
X24858Y424327D01*
X24860Y424331D01*
X24875Y424524D01*
X24891Y424724D01*
X24890Y424728D01*
X24891Y424732D01*
X24867Y424926D01*
X24844Y425123D01*
X24843Y425128D01*
X24842Y425132D01*
X24781Y425317D01*
X24719Y425506D01*
X24717Y425510D01*
X24716Y425514D01*
X24618Y425686D01*
X24521Y425857D01*
X24518Y425860D01*
X24516Y425864D01*
X24385Y426015D01*
X24258Y426161D01*
X24255Y426164D01*
X24252Y426168D01*
X24095Y426288D01*
X23940Y426408D01*
X23936Y426410D01*
X23932Y426413D01*
X23637Y426565D01*
X21609Y427405D01*
X18465Y430549D01*
X16763Y434657D01*
X16763Y439103D01*
X18465Y443211D01*
X21609Y446355D01*
X22750Y446828D01*
X22829Y446870D01*
X22911Y446903D01*
X23005Y446965D01*
X23105Y447018D01*
X23174Y447075D01*
X23248Y447123D01*
X23328Y447203D01*
X23416Y447275D01*
X23471Y447344D01*
X23535Y447406D01*
X23598Y447499D01*
X23669Y447587D01*
X23710Y447666D01*
X23760Y447739D01*
X23804Y447844D01*
X23856Y447944D01*
X23881Y448029D01*
X23916Y448111D01*
X23938Y448222D01*
X23969Y448330D01*
X23977Y448419D01*
X23994Y448506D01*
X23994Y448619D01*
X24004Y448731D01*
X23994Y448819D01*
X23994Y448908D01*
X23972Y449019D01*
X23959Y449131D01*
X23932Y449216D01*
X23914Y449303D01*
X23870Y449407D01*
X23836Y449515D01*
X23792Y449592D01*
X23758Y449674D01*
X23694Y449768D01*
X23639Y449866D01*
X23582Y449934D01*
X23532Y450007D01*
X23451Y450086D01*
X23378Y450172D01*
X23308Y450227D01*
X23244Y450289D01*
X23150Y450350D01*
X23061Y450420D01*
X22981Y450460D01*
X22907Y450508D01*
X22776Y450563D01*
X22701Y450601D01*
X22657Y450613D01*
X22601Y450636D01*
X20817Y451216D01*
X19143Y452069D01*
X17622Y453174D01*
X16294Y454502D01*
X15189Y456023D01*
X14336Y457697D01*
X13755Y459484D01*
X13715Y459741D01*
X24892Y459741D01*
X24910Y459742D01*
X24927Y459741D01*
X25110Y459762D01*
X25292Y459781D01*
X25309Y459786D01*
X25327Y459788D01*
X25405Y459813D01*
X25542Y459774D01*
X25560Y459772D01*
X25577Y459768D01*
X25908Y459741D01*
X37085Y459741D01*
X37045Y459484D01*
X36464Y457697D01*
X35611Y456023D01*
X34506Y454502D01*
X33178Y453174D01*
X31657Y452069D01*
X30570Y451515D01*
X30459Y451444D01*
X30345Y451382D01*
X30291Y451336D01*
X30231Y451298D01*
X30137Y451207D01*
X30037Y451122D01*
X29992Y451067D01*
X29941Y451018D01*
X29867Y450910D01*
X29786Y450808D01*
X29753Y450744D01*
X29713Y450686D01*
X29661Y450566D01*
X29602Y450449D01*
X29582Y450381D01*
X29555Y450316D01*
X29528Y450188D01*
X29492Y450062D01*
X29487Y449991D01*
X29472Y449922D01*
X29471Y449791D01*
X29461Y449661D01*
X29470Y449590D01*
X29469Y449519D01*
X29494Y449391D01*
X29510Y449261D01*
X29532Y449194D01*
X29545Y449124D01*
X29595Y449003D01*
X29636Y448879D01*
X29671Y448817D01*
X29698Y448751D01*
X29771Y448642D01*
X29836Y448529D01*
X29882Y448476D01*
X29922Y448416D01*
X30014Y448324D01*
X30100Y448225D01*
X30156Y448182D01*
X30207Y448132D01*
X30316Y448060D01*
X30419Y447980D01*
X30492Y447943D01*
X30542Y447909D01*
X30613Y447881D01*
X30714Y447828D01*
X34271Y446355D01*
X37415Y443211D01*
X39117Y439103D01*
X39117Y434657D01*
X37415Y430549D01*
X34271Y427405D01*
X30038Y425651D01*
X29884Y425603D01*
X29694Y425545D01*
X29690Y425543D01*
X29686Y425542D01*
X29513Y425447D01*
X29340Y425353D01*
X29337Y425351D01*
X29333Y425348D01*
X29180Y425220D01*
X29031Y425096D01*
X29028Y425092D01*
X29025Y425089D01*
X28902Y424935D01*
X28779Y424782D01*
X28777Y424778D01*
X28774Y424775D01*
X28683Y424598D01*
X28593Y424425D01*
X28592Y424420D01*
X28590Y424416D01*
X28537Y424229D01*
X28482Y424038D01*
X28482Y424033D01*
X28480Y424029D01*
X28465Y423836D01*
X28449Y423636D01*
X28450Y423632D01*
X28449Y423628D01*
X28473Y423434D01*
X28496Y423237D01*
X28497Y423232D01*
X28498Y423228D01*
X28560Y423042D01*
X28621Y422854D01*
X28623Y422850D01*
X28624Y422846D01*
X28722Y422674D01*
X28819Y422503D01*
X28822Y422500D01*
X28824Y422496D01*
X28955Y422345D01*
X29082Y422199D01*
X29085Y422196D01*
X29088Y422192D01*
X29245Y422072D01*
X29400Y421952D01*
X29404Y421950D01*
X29408Y421947D01*
X29703Y421795D01*
X31731Y420955D01*
X34875Y417811D01*
X35400Y416545D01*
X35410Y416525D01*
X35417Y416504D01*
X35505Y416348D01*
X35590Y416190D01*
X35604Y416173D01*
X35615Y416153D01*
X35732Y416018D01*
X35846Y415879D01*
X35864Y415865D01*
X35878Y415848D01*
X36020Y415739D01*
X36159Y415626D01*
X36179Y415615D01*
X36196Y415602D01*
X36357Y415522D01*
X36515Y415439D01*
X36537Y415432D01*
X36557Y415422D01*
X36730Y415376D01*
X36902Y415326D01*
X36924Y415324D01*
X36946Y415318D01*
X37276Y415291D01*
X42418Y415291D01*
X42436Y415293D01*
X42454Y415291D01*
X42636Y415312D01*
X42819Y415331D01*
X42836Y415336D01*
X42853Y415338D01*
X43028Y415395D01*
X43204Y415449D01*
X43219Y415457D01*
X43236Y415463D01*
X43396Y415553D01*
X43558Y415641D01*
X43571Y415652D01*
X43587Y415661D01*
X43726Y415781D01*
X43867Y415898D01*
X43878Y415912D01*
X43892Y415924D01*
X44004Y416069D01*
X44119Y416212D01*
X44127Y416228D01*
X44138Y416242D01*
X44220Y416407D01*
X44305Y416569D01*
X44310Y416586D01*
X44318Y416602D01*
X44365Y416781D01*
X44416Y416956D01*
X44418Y416974D01*
X44422Y416991D01*
X44449Y417322D01*
X44449Y481638D01*
X45934Y483124D01*
X45951Y483144D01*
X45972Y483162D01*
X46079Y483300D01*
X46189Y483435D01*
X46202Y483459D01*
X46218Y483480D01*
X46296Y483637D01*
X46378Y483791D01*
X46386Y483816D01*
X46398Y483840D01*
X46443Y484010D01*
X46493Y484177D01*
X46495Y484203D01*
X46502Y484229D01*
X46529Y484560D01*
X46529Y490909D01*
X47571Y491951D01*
X59096Y491951D01*
X59105Y491952D01*
X59114Y491951D01*
X59307Y491972D01*
X59497Y491991D01*
X59505Y491993D01*
X59514Y491994D01*
X59698Y492052D01*
X59882Y492109D01*
X59890Y492113D01*
X59898Y492116D01*
X60066Y492208D01*
X60236Y492301D01*
X60243Y492306D01*
X60250Y492311D01*
X60398Y492435D01*
X60545Y492558D01*
X60551Y492565D01*
X60557Y492571D01*
X60677Y492723D01*
X60797Y492872D01*
X60802Y492880D01*
X60807Y492887D01*
X60895Y493060D01*
X60983Y493229D01*
X60985Y493238D01*
X60989Y493246D01*
X61041Y493432D01*
X61094Y493616D01*
X61095Y493625D01*
X61097Y493634D01*
X61112Y493827D01*
X61127Y494018D01*
X61126Y494026D01*
X61127Y494035D01*
X61102Y494228D01*
X61080Y494417D01*
X61078Y494426D01*
X61076Y494435D01*
X61015Y494618D01*
X60955Y494800D01*
X60951Y494808D01*
X60948Y494816D01*
X60853Y494982D01*
X60758Y495151D01*
X60752Y495158D01*
X60747Y495165D01*
X60533Y495418D01*
X47276Y508674D01*
X47256Y508691D01*
X47238Y508712D01*
X47100Y508819D01*
X46965Y508929D01*
X46941Y508942D01*
X46920Y508958D01*
X46763Y509036D01*
X46609Y509118D01*
X46584Y509126D01*
X46560Y509138D01*
X46390Y509183D01*
X46223Y509233D01*
X46197Y509235D01*
X46171Y509242D01*
X45840Y509269D01*
X37276Y509269D01*
X37254Y509267D01*
X37232Y509269D01*
X37054Y509247D01*
X36876Y509229D01*
X36854Y509223D01*
X36832Y509220D01*
X36663Y509164D01*
X36491Y509111D01*
X36471Y509101D01*
X36450Y509094D01*
X36295Y509005D01*
X36137Y508919D01*
X36120Y508905D01*
X36100Y508894D01*
X35965Y508776D01*
X35828Y508662D01*
X35814Y508644D01*
X35797Y508630D01*
X35687Y508487D01*
X35575Y508348D01*
X35565Y508328D01*
X35551Y508310D01*
X35400Y508015D01*
X34875Y506749D01*
X31731Y503605D01*
X29703Y502765D01*
X29699Y502763D01*
X29694Y502761D01*
X29522Y502668D01*
X29348Y502574D01*
X29344Y502572D01*
X29340Y502569D01*
X29192Y502445D01*
X29037Y502318D01*
X29035Y502315D01*
X29031Y502312D01*
X28908Y502159D01*
X28784Y502005D01*
X28782Y502001D01*
X28779Y501998D01*
X28689Y501825D01*
X28597Y501649D01*
X28595Y501645D01*
X28593Y501641D01*
X28539Y501452D01*
X28484Y501262D01*
X28483Y501258D01*
X28482Y501254D01*
X28466Y501056D01*
X28449Y500861D01*
X28449Y500857D01*
X28449Y500852D01*
X28472Y500658D01*
X28494Y500461D01*
X28495Y500457D01*
X28496Y500453D01*
X28556Y500267D01*
X28617Y500078D01*
X28619Y500074D01*
X28621Y500070D01*
X28718Y499897D01*
X28814Y499726D01*
X28816Y499723D01*
X28819Y499719D01*
X28947Y499570D01*
X29075Y499421D01*
X29079Y499418D01*
X29082Y499414D01*
X29237Y499294D01*
X29392Y499172D01*
X29396Y499170D01*
X29400Y499168D01*
X29578Y499079D01*
X29752Y498992D01*
X29756Y498990D01*
X29760Y498988D01*
X29952Y498937D01*
X30004Y498923D01*
X34271Y497155D01*
X37415Y494011D01*
X39117Y489903D01*
X39117Y485457D01*
X37415Y481349D01*
X34271Y478205D01*
X30714Y476732D01*
X30599Y476670D01*
X30480Y476616D01*
X30422Y476575D01*
X30360Y476541D01*
X30259Y476458D01*
X30152Y476382D01*
X30104Y476330D01*
X30049Y476285D01*
X29967Y476183D01*
X29877Y476088D01*
X29840Y476027D01*
X29795Y475972D01*
X29735Y475857D01*
X29666Y475745D01*
X29641Y475679D01*
X29608Y475616D01*
X29572Y475490D01*
X29526Y475368D01*
X29515Y475298D01*
X29495Y475229D01*
X29484Y475099D01*
X29464Y474970D01*
X29467Y474899D01*
X29461Y474828D01*
X29475Y474699D01*
X29481Y474568D01*
X29498Y474499D01*
X29506Y474428D01*
X29546Y474304D01*
X29577Y474177D01*
X29607Y474112D01*
X29629Y474045D01*
X29693Y473931D01*
X29748Y473812D01*
X29791Y473755D01*
X29825Y473693D01*
X29910Y473594D01*
X29988Y473489D01*
X30041Y473442D01*
X30087Y473388D01*
X30190Y473307D01*
X30287Y473219D01*
X30357Y473176D01*
X30404Y473139D01*
X30472Y473105D01*
X30570Y473045D01*
X31657Y472491D01*
X33178Y471386D01*
X34506Y470058D01*
X35611Y468537D01*
X36464Y466863D01*
X37045Y465076D01*
X37085Y464819D01*
X25908Y464819D01*
X25890Y464817D01*
X25873Y464819D01*
X25690Y464798D01*
X25508Y464779D01*
X25491Y464774D01*
X25473Y464772D01*
X25395Y464747D01*
X25258Y464786D01*
X25240Y464788D01*
X25223Y464792D01*
X24892Y464819D01*
X13715Y464819D01*
X13755Y465076D01*
X14336Y466863D01*
X15189Y468537D01*
X16294Y470058D01*
X17622Y471386D01*
X19143Y472491D01*
X20817Y473344D01*
X22601Y473924D01*
X22682Y473959D01*
X22767Y473986D01*
X22866Y474040D01*
X22969Y474085D01*
X23042Y474136D01*
X23120Y474179D01*
X23206Y474252D01*
X23299Y474317D01*
X23360Y474381D01*
X23428Y474438D01*
X23499Y474527D01*
X23576Y474608D01*
X23624Y474683D01*
X23679Y474753D01*
X23731Y474853D01*
X23791Y474949D01*
X23822Y475032D01*
X23863Y475111D01*
X23894Y475220D01*
X23934Y475325D01*
X23948Y475413D01*
X23973Y475498D01*
X23981Y475611D01*
X24000Y475723D01*
X23997Y475811D01*
X24004Y475900D01*
X23990Y476012D01*
X23986Y476125D01*
X23966Y476212D01*
X23955Y476299D01*
X23920Y476407D01*
X23894Y476517D01*
X23856Y476598D01*
X23829Y476682D01*
X23773Y476780D01*
X23725Y476883D01*
X23673Y476954D01*
X23629Y477031D01*
X23555Y477117D01*
X23488Y477208D01*
X23423Y477268D01*
X23365Y477335D01*
X23275Y477404D01*
X23192Y477480D01*
X23116Y477526D01*
X23045Y477580D01*
X22920Y477645D01*
X22847Y477689D01*
X22804Y477704D01*
X22750Y477732D01*
X21609Y478205D01*
X18465Y481349D01*
X16763Y485457D01*
X16763Y489903D01*
X18465Y494011D01*
X21609Y497155D01*
X23637Y497995D01*
X23641Y497997D01*
X23646Y497999D01*
X23818Y498092D01*
X23992Y498186D01*
X23996Y498188D01*
X24000Y498191D01*
X24148Y498315D01*
X24303Y498442D01*
X24305Y498445D01*
X24309Y498448D01*
X24432Y498601D01*
X24556Y498755D01*
X24558Y498759D01*
X24561Y498762D01*
X24651Y498935D01*
X24743Y499111D01*
X24745Y499115D01*
X24747Y499119D01*
X24801Y499308D01*
X24856Y499498D01*
X24857Y499502D01*
X24858Y499506D01*
X24874Y499704D01*
X24891Y499899D01*
X24891Y499903D01*
X24891Y499908D01*
X24868Y500102D01*
X24846Y500299D01*
X24845Y500303D01*
X24844Y500307D01*
X24784Y500493D01*
X24723Y500682D01*
X24721Y500686D01*
X24719Y500690D01*
X24623Y500861D01*
X24526Y501034D01*
X24524Y501037D01*
X24521Y501041D01*
X24393Y501190D01*
X24265Y501339D01*
X24261Y501342D01*
X24258Y501346D01*
X24104Y501465D01*
X23948Y501588D01*
X23944Y501590D01*
X23940Y501592D01*
X23762Y501681D01*
X23588Y501768D01*
X23584Y501770D01*
X23580Y501772D01*
X23388Y501823D01*
X23336Y501837D01*
X19069Y503605D01*
X15925Y506749D01*
X14223Y510857D01*
X14223Y515303D01*
X15925Y519411D01*
X19069Y522555D01*
X23177Y524257D01*
X27623Y524257D01*
X31731Y522555D01*
X34875Y519411D01*
X35400Y518145D01*
X35410Y518125D01*
X35417Y518104D01*
X35505Y517948D01*
X35590Y517790D01*
X35604Y517773D01*
X35615Y517753D01*
X35732Y517618D01*
X35846Y517479D01*
X35864Y517465D01*
X35878Y517448D01*
X36020Y517339D01*
X36159Y517226D01*
X36179Y517215D01*
X36196Y517202D01*
X36357Y517122D01*
X36515Y517039D01*
X36537Y517032D01*
X36557Y517022D01*
X36730Y516976D01*
X36902Y516926D01*
X36924Y516924D01*
X36946Y516918D01*
X37276Y516891D01*
X49838Y516891D01*
X80994Y485736D01*
X81014Y485719D01*
X81032Y485698D01*
X81170Y485591D01*
X81305Y485481D01*
X81329Y485468D01*
X81350Y485452D01*
X81507Y485374D01*
X81661Y485292D01*
X81686Y485284D01*
X81710Y485272D01*
X81880Y485227D01*
X82047Y485177D01*
X82073Y485175D01*
X82099Y485168D01*
X82430Y485141D01*
X329238Y485141D01*
X337200Y477179D01*
X337203Y477176D01*
X337206Y477173D01*
X337358Y477050D01*
X337511Y476924D01*
X337515Y476922D01*
X337519Y476919D01*
X337694Y476828D01*
X337867Y476736D01*
X337871Y476734D01*
X337875Y476732D01*
X338067Y476676D01*
X338253Y476621D01*
X338257Y476620D01*
X338262Y476619D01*
X338455Y476602D01*
X338654Y476584D01*
X338659Y476585D01*
X338663Y476585D01*
X338852Y476606D01*
X339054Y476628D01*
X339059Y476629D01*
X339063Y476630D01*
X339249Y476689D01*
X339438Y476749D01*
X339442Y476751D01*
X339446Y476753D01*
X339620Y476850D01*
X339790Y476944D01*
X339794Y476947D01*
X339798Y476949D01*
X339946Y477076D01*
X340097Y477205D01*
X340100Y477208D01*
X340104Y477211D01*
X340221Y477361D01*
X340347Y477521D01*
X340349Y477525D01*
X340352Y477528D01*
X340439Y477702D01*
X340529Y477880D01*
X340531Y477884D01*
X340533Y477888D01*
X340584Y478075D01*
X340637Y478267D01*
X340638Y478272D01*
X340639Y478276D01*
X340652Y478472D01*
X340667Y478669D01*
X340666Y478673D01*
X340666Y478678D01*
X340641Y478874D01*
X340616Y479068D01*
X340615Y479073D01*
X340614Y479077D01*
X340513Y479393D01*
X340105Y480377D01*
X340105Y484823D01*
X341807Y488931D01*
X344951Y492075D01*
X349059Y493777D01*
X353505Y493777D01*
X357613Y492075D01*
X360757Y488931D01*
X362459Y484823D01*
X362459Y480377D01*
X360757Y476269D01*
X357613Y473125D01*
X353935Y471601D01*
X353505Y471423D01*
X349059Y471423D01*
X348075Y471831D01*
X348071Y471832D01*
X348067Y471834D01*
X347882Y471889D01*
X347690Y471947D01*
X347685Y471948D01*
X347681Y471949D01*
X347483Y471967D01*
X347289Y471985D01*
X347284Y471985D01*
X347280Y471985D01*
X347078Y471963D01*
X346888Y471944D01*
X346884Y471942D01*
X346880Y471942D01*
X346688Y471881D01*
X346504Y471824D01*
X346500Y471822D01*
X346496Y471820D01*
X346323Y471725D01*
X346151Y471631D01*
X346147Y471628D01*
X346143Y471626D01*
X345993Y471498D01*
X345843Y471372D01*
X345840Y471368D01*
X345836Y471365D01*
X345714Y471210D01*
X345592Y471057D01*
X345590Y471053D01*
X345587Y471049D01*
X345497Y470872D01*
X345408Y470699D01*
X345406Y470694D01*
X345404Y470690D01*
X345351Y470497D01*
X345298Y470311D01*
X345298Y470307D01*
X345296Y470302D01*
X345282Y470101D01*
X345267Y469910D01*
X345267Y469905D01*
X345267Y469901D01*
X345292Y469702D01*
X345315Y469510D01*
X345317Y469506D01*
X345317Y469501D01*
X345380Y469316D01*
X345442Y469128D01*
X345444Y469124D01*
X345446Y469120D01*
X345544Y468949D01*
X345641Y468778D01*
X345644Y468775D01*
X345647Y468771D01*
X345861Y468518D01*
X370841Y443538D01*
X370841Y321002D01*
X345912Y296073D01*
X330436Y296073D01*
X330414Y296071D01*
X330392Y296073D01*
X330214Y296051D01*
X330036Y296033D01*
X330014Y296027D01*
X329992Y296024D01*
X329823Y295968D01*
X329651Y295915D01*
X329631Y295905D01*
X329610Y295898D01*
X329455Y295809D01*
X329297Y295723D01*
X329280Y295709D01*
X329260Y295698D01*
X329125Y295580D01*
X328988Y295466D01*
X328974Y295448D01*
X328957Y295434D01*
X328847Y295291D01*
X328735Y295152D01*
X328725Y295132D01*
X328711Y295114D01*
X328560Y294819D01*
X328035Y293553D01*
X324891Y290409D01*
X320783Y288707D01*
X316337Y288707D01*
X312229Y290409D01*
X309085Y293553D01*
X307332Y297786D01*
X307283Y297941D01*
X307225Y298130D01*
X307223Y298134D01*
X307222Y298138D01*
X307126Y298312D01*
X307033Y298484D01*
X307031Y298487D01*
X307028Y298491D01*
X306900Y298644D01*
X306776Y298793D01*
X306772Y298796D01*
X306769Y298799D01*
X306614Y298923D01*
X306462Y299045D01*
X306458Y299047D01*
X306455Y299050D01*
X306274Y299143D01*
X306105Y299231D01*
X306100Y299232D01*
X306096Y299234D01*
X305906Y299288D01*
X305718Y299342D01*
X305713Y299342D01*
X305709Y299344D01*
X305517Y299359D01*
X305316Y299375D01*
X305312Y299374D01*
X305308Y299375D01*
X305114Y299351D01*
X304917Y299328D01*
X304912Y299327D01*
X304908Y299326D01*
X304723Y299265D01*
X304534Y299203D01*
X304530Y299201D01*
X304526Y299200D01*
X304357Y299103D01*
X304183Y299005D01*
X304180Y299002D01*
X304176Y299000D01*
X304029Y298872D01*
X303879Y298742D01*
X303876Y298739D01*
X303872Y298736D01*
X303752Y298579D01*
X303632Y298424D01*
X303630Y298420D01*
X303627Y298417D01*
X303475Y298121D01*
X302635Y296093D01*
X299491Y292949D01*
X295383Y291247D01*
X290937Y291247D01*
X286829Y292949D01*
X283685Y296093D01*
X282845Y298121D01*
X282842Y298125D01*
X282841Y298130D01*
X282748Y298301D01*
X282654Y298476D01*
X282652Y298480D01*
X282649Y298484D01*
X282524Y298634D01*
X282398Y298787D01*
X282395Y298789D01*
X282392Y298793D01*
X282239Y298916D01*
X282085Y299040D01*
X282081Y299042D01*
X282078Y299045D01*
X281905Y299135D01*
X281729Y299227D01*
X281725Y299229D01*
X281721Y299231D01*
X281533Y299285D01*
X281342Y299340D01*
X281338Y299341D01*
X281334Y299342D01*
X281136Y299358D01*
X280941Y299375D01*
X280937Y299375D01*
X280932Y299375D01*
X280738Y299352D01*
X280541Y299330D01*
X280537Y299329D01*
X280533Y299328D01*
X280347Y299268D01*
X280158Y299207D01*
X280154Y299205D01*
X280150Y299203D01*
X279978Y299107D01*
X279806Y299010D01*
X279803Y299008D01*
X279799Y299005D01*
X279651Y298877D01*
X279501Y298749D01*
X279498Y298745D01*
X279494Y298742D01*
X279374Y298588D01*
X279252Y298432D01*
X279250Y298428D01*
X279248Y298424D01*
X279159Y298246D01*
X279072Y298072D01*
X279070Y298068D01*
X279068Y298064D01*
X279016Y297869D01*
X279003Y297820D01*
X277235Y293553D01*
X274091Y290409D01*
X269983Y288707D01*
X265537Y288707D01*
X261429Y290409D01*
X258285Y293553D01*
X256532Y297786D01*
X256483Y297941D01*
X256425Y298130D01*
X256423Y298134D01*
X256422Y298138D01*
X256326Y298312D01*
X256233Y298484D01*
X256231Y298487D01*
X256228Y298491D01*
X256100Y298644D01*
X255976Y298793D01*
X255972Y298796D01*
X255969Y298799D01*
X255814Y298923D01*
X255662Y299045D01*
X255658Y299047D01*
X255655Y299050D01*
X255474Y299143D01*
X255305Y299231D01*
X255300Y299232D01*
X255296Y299234D01*
X255106Y299288D01*
X254918Y299342D01*
X254913Y299342D01*
X254909Y299344D01*
X254717Y299359D01*
X254516Y299375D01*
X254512Y299374D01*
X254508Y299375D01*
X254314Y299351D01*
X254117Y299328D01*
X254112Y299327D01*
X254108Y299326D01*
X253923Y299265D01*
X253734Y299203D01*
X253730Y299201D01*
X253726Y299200D01*
X253557Y299103D01*
X253383Y299005D01*
X253380Y299002D01*
X253376Y299000D01*
X253229Y298872D01*
X253079Y298742D01*
X253076Y298739D01*
X253072Y298736D01*
X252952Y298579D01*
X252832Y298424D01*
X252830Y298420D01*
X252827Y298417D01*
X252675Y298121D01*
X251835Y296093D01*
X248691Y292949D01*
X244583Y291247D01*
X240137Y291247D01*
X236029Y292949D01*
X232885Y296093D01*
X232045Y298121D01*
X232042Y298125D01*
X232041Y298130D01*
X231948Y298301D01*
X231854Y298476D01*
X231852Y298480D01*
X231849Y298484D01*
X231724Y298634D01*
X231598Y298787D01*
X231595Y298789D01*
X231592Y298793D01*
X231439Y298916D01*
X231285Y299040D01*
X231281Y299042D01*
X231278Y299045D01*
X231105Y299135D01*
X230929Y299227D01*
X230925Y299229D01*
X230921Y299231D01*
X230733Y299285D01*
X230542Y299340D01*
X230538Y299341D01*
X230534Y299342D01*
X230336Y299358D01*
X230141Y299375D01*
X230137Y299375D01*
X230132Y299375D01*
X229938Y299352D01*
X229741Y299330D01*
X229737Y299329D01*
X229733Y299328D01*
X229547Y299268D01*
X229358Y299207D01*
X229354Y299205D01*
X229350Y299203D01*
X229178Y299107D01*
X229006Y299010D01*
X229003Y299008D01*
X228999Y299005D01*
X228851Y298877D01*
X228701Y298749D01*
X228698Y298745D01*
X228694Y298742D01*
X228574Y298588D01*
X228452Y298432D01*
X228450Y298428D01*
X228448Y298424D01*
X228359Y298246D01*
X228272Y298072D01*
X228270Y298068D01*
X228268Y298064D01*
X228216Y297869D01*
X228203Y297820D01*
X226435Y293553D01*
X223291Y290409D01*
X219183Y288707D01*
X214737Y288707D01*
X210629Y290409D01*
X207485Y293553D01*
X205732Y297786D01*
X205683Y297941D01*
X205625Y298130D01*
X205623Y298134D01*
X205622Y298138D01*
X205526Y298312D01*
X205433Y298484D01*
X205431Y298487D01*
X205428Y298491D01*
X205300Y298644D01*
X205176Y298793D01*
X205172Y298796D01*
X205169Y298799D01*
X205014Y298923D01*
X204862Y299045D01*
X204858Y299047D01*
X204855Y299050D01*
X204674Y299143D01*
X204505Y299231D01*
X204500Y299232D01*
X204496Y299234D01*
X204306Y299288D01*
X204118Y299342D01*
X204113Y299342D01*
X204109Y299344D01*
X203917Y299359D01*
X203716Y299375D01*
X203712Y299374D01*
X203708Y299375D01*
X203514Y299351D01*
X203317Y299328D01*
X203312Y299327D01*
X203308Y299326D01*
X203123Y299265D01*
X202934Y299203D01*
X202930Y299201D01*
X202926Y299200D01*
X202757Y299103D01*
X202583Y299005D01*
X202580Y299002D01*
X202576Y299000D01*
X202429Y298872D01*
X202279Y298742D01*
X202276Y298739D01*
X202272Y298736D01*
X202152Y298579D01*
X202032Y298424D01*
X202030Y298420D01*
X202027Y298417D01*
X201875Y298121D01*
X201035Y296093D01*
X197891Y292949D01*
X193783Y291247D01*
X189337Y291247D01*
X184971Y293056D01*
X184958Y293059D01*
X184947Y293066D01*
X184767Y293117D01*
X184586Y293172D01*
X184573Y293173D01*
X184560Y293177D01*
X184372Y293192D01*
X184185Y293210D01*
X184172Y293209D01*
X184158Y293210D01*
X183971Y293188D01*
X183785Y293168D01*
X183772Y293164D01*
X183759Y293163D01*
X183579Y293104D01*
X183400Y293049D01*
X183389Y293042D01*
X183376Y293038D01*
X183211Y292945D01*
X183047Y292855D01*
X183037Y292847D01*
X183025Y292840D01*
X182883Y292717D01*
X182739Y292596D01*
X182731Y292586D01*
X182720Y292577D01*
X182605Y292429D01*
X182488Y292281D01*
X182482Y292269D01*
X182474Y292259D01*
X182390Y292090D01*
X182304Y291923D01*
X182300Y291910D01*
X182294Y291898D01*
X182245Y291715D01*
X182194Y291536D01*
X182193Y291523D01*
X182190Y291510D01*
X182163Y291179D01*
X182163Y267284D01*
X182165Y267257D01*
X182163Y267230D01*
X182185Y267056D01*
X182203Y266883D01*
X182210Y266858D01*
X182214Y266831D01*
X182269Y266665D01*
X182321Y266498D01*
X182334Y266475D01*
X182342Y266449D01*
X182429Y266298D01*
X182513Y266144D01*
X182530Y266124D01*
X182543Y266100D01*
X182758Y265847D01*
X267971Y180634D01*
X267971Y174552D01*
X267973Y174534D01*
X267971Y174516D01*
X267992Y174334D01*
X268011Y174151D01*
X268016Y174134D01*
X268018Y174117D01*
X268075Y173942D01*
X268129Y173766D01*
X268137Y173751D01*
X268143Y173734D01*
X268233Y173574D01*
X268321Y173412D01*
X268332Y173399D01*
X268341Y173383D01*
X268461Y173244D01*
X268578Y173103D01*
X268592Y173092D01*
X268604Y173078D01*
X268749Y172966D01*
X268892Y172851D01*
X268908Y172843D01*
X268922Y172832D01*
X269087Y172750D01*
X269249Y172665D01*
X269266Y172660D01*
X269282Y172652D01*
X269461Y172605D01*
X269636Y172554D01*
X269654Y172552D01*
X269671Y172548D01*
X270002Y172521D01*
X274526Y172521D01*
X274526Y165073D01*
X274527Y165055D01*
X274526Y165038D01*
X274547Y164855D01*
X274566Y164673D01*
X274571Y164656D01*
X274573Y164638D01*
X274630Y164463D01*
X274684Y164288D01*
X274692Y164272D01*
X274698Y164255D01*
X274715Y164225D01*
X274670Y164139D01*
X274665Y164122D01*
X274657Y164106D01*
X274609Y163928D01*
X274559Y163753D01*
X274557Y163735D01*
X274553Y163718D01*
X274526Y163387D01*
X274526Y155939D01*
X270002Y155939D01*
X269984Y155937D01*
X269966Y155939D01*
X269784Y155918D01*
X269601Y155899D01*
X269584Y155894D01*
X269567Y155892D01*
X269392Y155835D01*
X269216Y155781D01*
X269201Y155773D01*
X269184Y155767D01*
X269024Y155677D01*
X268862Y155590D01*
X268849Y155578D01*
X268833Y155569D01*
X268694Y155449D01*
X268553Y155332D01*
X268542Y155318D01*
X268528Y155306D01*
X268416Y155161D01*
X268301Y155018D01*
X268293Y155002D01*
X268282Y154988D01*
X268200Y154823D01*
X268115Y154661D01*
X268110Y154644D01*
X268102Y154628D01*
X268055Y154450D01*
X268004Y154274D01*
X268002Y154256D01*
X267998Y154239D01*
X267971Y153908D01*
X267971Y149740D01*
X267973Y149713D01*
X267971Y149687D01*
X267993Y149513D01*
X268011Y149339D01*
X268018Y149314D01*
X268022Y149287D01*
X268077Y149121D01*
X268129Y148954D01*
X268142Y148931D01*
X268150Y148905D01*
X268237Y148754D01*
X268321Y148600D01*
X268338Y148580D01*
X268351Y148557D01*
X268566Y148304D01*
X346611Y70258D01*
X346611Y46690D01*
X346613Y46672D01*
X346611Y46654D01*
X346632Y46472D01*
X346651Y46289D01*
X346656Y46272D01*
X346658Y46255D01*
X346715Y46080D01*
X346769Y45904D01*
X346777Y45889D01*
X346783Y45872D01*
X346873Y45712D01*
X346961Y45550D01*
X346972Y45537D01*
X346981Y45521D01*
X347101Y45382D01*
X347218Y45241D01*
X347232Y45230D01*
X347244Y45216D01*
X347389Y45104D01*
X347532Y44989D01*
X347548Y44981D01*
X347562Y44970D01*
X347727Y44888D01*
X347889Y44803D01*
X347906Y44798D01*
X347922Y44790D01*
X348101Y44743D01*
X348276Y44692D01*
X348294Y44690D01*
X348311Y44686D01*
X348642Y44659D01*
X358537Y44659D01*
X359579Y43617D01*
X359579Y29743D01*
X358537Y28701D01*
X338345Y28701D01*
X338182Y28685D01*
X338018Y28675D01*
X337982Y28665D01*
X337944Y28661D01*
X337788Y28613D01*
X337629Y28571D01*
X337591Y28553D01*
X337559Y28543D01*
X337483Y28502D01*
X337329Y28429D01*
X336781Y28112D01*
X336135Y27939D01*
X333831Y27939D01*
X333831Y36680D01*
X333831Y45421D01*
X336135Y45421D01*
X336432Y45341D01*
X336513Y45328D01*
X336592Y45305D01*
X336712Y45295D01*
X336830Y45276D01*
X336912Y45279D01*
X336994Y45272D01*
X337112Y45286D01*
X337232Y45290D01*
X337312Y45309D01*
X337393Y45319D01*
X337507Y45356D01*
X337624Y45384D01*
X337698Y45418D01*
X337776Y45444D01*
X337880Y45503D01*
X337989Y45553D01*
X338055Y45601D01*
X338127Y45642D01*
X338217Y45720D01*
X338314Y45791D01*
X338369Y45851D01*
X338432Y45905D01*
X338505Y45999D01*
X338586Y46088D01*
X338628Y46158D01*
X338678Y46223D01*
X338732Y46330D01*
X338793Y46433D01*
X338821Y46510D01*
X338858Y46583D01*
X338889Y46699D01*
X338929Y46812D01*
X338941Y46893D01*
X338962Y46972D01*
X338975Y47125D01*
X338987Y47210D01*
X338985Y47251D01*
X338989Y47303D01*
X338989Y66260D01*
X338987Y66287D01*
X338989Y66313D01*
X338967Y66487D01*
X338949Y66661D01*
X338942Y66686D01*
X338938Y66713D01*
X338883Y66879D01*
X338831Y67046D01*
X338818Y67069D01*
X338810Y67095D01*
X338723Y67246D01*
X338639Y67400D01*
X338622Y67420D01*
X338609Y67443D01*
X338394Y67696D01*
X328078Y78013D01*
X328071Y78018D01*
X328066Y78025D01*
X327916Y78145D01*
X327767Y78268D01*
X327759Y78272D01*
X327752Y78277D01*
X327582Y78366D01*
X327411Y78456D01*
X327402Y78459D01*
X327395Y78463D01*
X327210Y78516D01*
X327025Y78571D01*
X327016Y78572D01*
X327008Y78574D01*
X326816Y78590D01*
X326624Y78607D01*
X326615Y78606D01*
X326606Y78607D01*
X326417Y78585D01*
X326224Y78564D01*
X326215Y78561D01*
X326207Y78560D01*
X326025Y78501D01*
X325840Y78443D01*
X325832Y78438D01*
X325824Y78435D01*
X325655Y78340D01*
X325488Y78248D01*
X325481Y78242D01*
X325473Y78238D01*
X325327Y78112D01*
X325181Y77987D01*
X325175Y77980D01*
X325168Y77974D01*
X325051Y77823D01*
X324931Y77671D01*
X324927Y77663D01*
X324922Y77656D01*
X324836Y77484D01*
X324749Y77312D01*
X324746Y77304D01*
X324742Y77296D01*
X324692Y77109D01*
X324641Y76924D01*
X324640Y76916D01*
X324638Y76907D01*
X324611Y76576D01*
X324611Y47303D01*
X324619Y47221D01*
X324617Y47139D01*
X324639Y47021D01*
X324651Y46902D01*
X324675Y46824D01*
X324689Y46743D01*
X324734Y46632D01*
X324769Y46517D01*
X324808Y46445D01*
X324838Y46369D01*
X324904Y46269D01*
X324961Y46163D01*
X325013Y46100D01*
X325058Y46031D01*
X325142Y45946D01*
X325218Y45854D01*
X325282Y45803D01*
X325340Y45744D01*
X325439Y45677D01*
X325532Y45602D01*
X325605Y45564D01*
X325673Y45518D01*
X325783Y45471D01*
X325889Y45416D01*
X325968Y45394D01*
X326044Y45362D01*
X326161Y45338D01*
X326276Y45305D01*
X326358Y45298D01*
X326439Y45282D01*
X326558Y45282D01*
X326678Y45272D01*
X326759Y45282D01*
X326841Y45282D01*
X326991Y45309D01*
X327077Y45319D01*
X327116Y45332D01*
X327168Y45341D01*
X327465Y45421D01*
X329769Y45421D01*
X329769Y36680D01*
X329769Y27939D01*
X327465Y27939D01*
G37*
%LPD*%
%LPC*%
G36*
X214617Y441615D02*
X214617Y441615D01*
X210509Y443317D01*
X207365Y446461D01*
X205612Y450694D01*
X205564Y450846D01*
X205505Y451038D01*
X205503Y451042D01*
X205502Y451046D01*
X205406Y451220D01*
X205313Y451392D01*
X205311Y451395D01*
X205308Y451399D01*
X205180Y451552D01*
X205056Y451701D01*
X205052Y451704D01*
X205049Y451707D01*
X204895Y451830D01*
X204742Y451953D01*
X204738Y451955D01*
X204734Y451958D01*
X204556Y452050D01*
X204385Y452139D01*
X204380Y452140D01*
X204376Y452142D01*
X204183Y452197D01*
X203998Y452250D01*
X203993Y452251D01*
X203989Y452252D01*
X203793Y452267D01*
X203596Y452283D01*
X203592Y452282D01*
X203588Y452283D01*
X203394Y452259D01*
X203197Y452236D01*
X203192Y452235D01*
X203188Y452234D01*
X203003Y452173D01*
X202814Y452111D01*
X202810Y452109D01*
X202806Y452108D01*
X202637Y452011D01*
X202463Y451913D01*
X202460Y451910D01*
X202456Y451908D01*
X202306Y451778D01*
X202159Y451650D01*
X202156Y451647D01*
X202152Y451644D01*
X202030Y451484D01*
X201912Y451332D01*
X201910Y451328D01*
X201907Y451325D01*
X201755Y451029D01*
X200915Y449001D01*
X197771Y445857D01*
X196174Y445195D01*
X193663Y444155D01*
X189217Y444155D01*
X185109Y445857D01*
X181965Y449001D01*
X180263Y453109D01*
X180263Y457555D01*
X181965Y461663D01*
X185109Y464807D01*
X189217Y466509D01*
X193663Y466509D01*
X197771Y464807D01*
X200915Y461663D01*
X202668Y457430D01*
X202717Y457275D01*
X202775Y457086D01*
X202777Y457082D01*
X202778Y457078D01*
X202874Y456904D01*
X202967Y456732D01*
X202969Y456729D01*
X202972Y456725D01*
X203100Y456572D01*
X203224Y456423D01*
X203228Y456420D01*
X203231Y456417D01*
X203386Y456293D01*
X203538Y456171D01*
X203542Y456169D01*
X203546Y456166D01*
X203724Y456074D01*
X203895Y455985D01*
X203900Y455984D01*
X203904Y455982D01*
X204097Y455927D01*
X204282Y455874D01*
X204287Y455873D01*
X204291Y455872D01*
X204487Y455857D01*
X204684Y455841D01*
X204688Y455842D01*
X204692Y455841D01*
X204886Y455865D01*
X205083Y455888D01*
X205088Y455889D01*
X205092Y455890D01*
X205277Y455951D01*
X205466Y456013D01*
X205470Y456015D01*
X205474Y456016D01*
X205643Y456113D01*
X205817Y456211D01*
X205820Y456214D01*
X205824Y456216D01*
X205973Y456345D01*
X206121Y456474D01*
X206124Y456477D01*
X206128Y456480D01*
X206249Y456638D01*
X206368Y456792D01*
X206370Y456796D01*
X206373Y456799D01*
X206525Y457095D01*
X207365Y459123D01*
X210509Y462267D01*
X214191Y463792D01*
X214191Y463793D01*
X214617Y463969D01*
X219063Y463969D01*
X223171Y462267D01*
X226315Y459123D01*
X227155Y457095D01*
X227157Y457091D01*
X227159Y457086D01*
X227252Y456913D01*
X227346Y456740D01*
X227348Y456736D01*
X227351Y456732D01*
X227478Y456579D01*
X227602Y456429D01*
X227605Y456427D01*
X227608Y456423D01*
X227759Y456302D01*
X227915Y456176D01*
X227919Y456174D01*
X227922Y456171D01*
X228094Y456082D01*
X228271Y455989D01*
X228275Y455987D01*
X228279Y455985D01*
X228467Y455931D01*
X228658Y455875D01*
X228662Y455875D01*
X228666Y455874D01*
X228864Y455858D01*
X229059Y455841D01*
X229063Y455841D01*
X229068Y455841D01*
X229263Y455864D01*
X229459Y455886D01*
X229463Y455887D01*
X229467Y455888D01*
X229655Y455949D01*
X229842Y456009D01*
X229846Y456011D01*
X229850Y456013D01*
X230023Y456110D01*
X230194Y456206D01*
X230197Y456208D01*
X230201Y456211D01*
X230351Y456340D01*
X230499Y456467D01*
X230502Y456471D01*
X230506Y456474D01*
X230627Y456631D01*
X230748Y456784D01*
X230750Y456788D01*
X230752Y456792D01*
X230840Y456968D01*
X230928Y457144D01*
X230930Y457148D01*
X230932Y457152D01*
X230983Y457343D01*
X230997Y457396D01*
X232765Y461663D01*
X235909Y464807D01*
X240017Y466509D01*
X244463Y466509D01*
X248571Y464807D01*
X251715Y461663D01*
X253468Y457430D01*
X253517Y457275D01*
X253575Y457086D01*
X253577Y457082D01*
X253578Y457078D01*
X253674Y456904D01*
X253767Y456732D01*
X253769Y456729D01*
X253772Y456725D01*
X253900Y456572D01*
X254024Y456423D01*
X254028Y456420D01*
X254031Y456417D01*
X254190Y456290D01*
X254338Y456171D01*
X254342Y456169D01*
X254345Y456166D01*
X254526Y456073D01*
X254695Y455985D01*
X254700Y455984D01*
X254704Y455982D01*
X254894Y455928D01*
X255082Y455874D01*
X255087Y455874D01*
X255091Y455872D01*
X255283Y455857D01*
X255484Y455841D01*
X255488Y455842D01*
X255492Y455841D01*
X255686Y455865D01*
X255883Y455888D01*
X255888Y455889D01*
X255892Y455890D01*
X256077Y455951D01*
X256266Y456013D01*
X256270Y456015D01*
X256274Y456016D01*
X256443Y456113D01*
X256617Y456211D01*
X256620Y456214D01*
X256624Y456216D01*
X256771Y456344D01*
X256921Y456474D01*
X256924Y456477D01*
X256928Y456480D01*
X257048Y456637D01*
X257168Y456792D01*
X257170Y456796D01*
X257173Y456799D01*
X257325Y457095D01*
X258165Y459123D01*
X261309Y462267D01*
X264991Y463792D01*
X264991Y463793D01*
X265417Y463969D01*
X269863Y463969D01*
X273971Y462267D01*
X277115Y459123D01*
X277955Y457095D01*
X277957Y457091D01*
X277959Y457086D01*
X278052Y456914D01*
X278146Y456740D01*
X278148Y456736D01*
X278151Y456732D01*
X278275Y456584D01*
X278402Y456429D01*
X278405Y456427D01*
X278408Y456423D01*
X278561Y456300D01*
X278715Y456176D01*
X278719Y456174D01*
X278722Y456171D01*
X278895Y456081D01*
X279071Y455989D01*
X279075Y455987D01*
X279079Y455985D01*
X279268Y455931D01*
X279458Y455876D01*
X279462Y455875D01*
X279466Y455874D01*
X279664Y455858D01*
X279859Y455841D01*
X279863Y455841D01*
X279868Y455841D01*
X280062Y455864D01*
X280259Y455886D01*
X280263Y455887D01*
X280267Y455888D01*
X280453Y455948D01*
X280642Y456009D01*
X280646Y456011D01*
X280650Y456013D01*
X280823Y456110D01*
X280994Y456206D01*
X280997Y456208D01*
X281001Y456211D01*
X281150Y456339D01*
X281299Y456467D01*
X281302Y456471D01*
X281306Y456474D01*
X281426Y456629D01*
X281548Y456784D01*
X281550Y456788D01*
X281552Y456792D01*
X281641Y456970D01*
X281728Y457144D01*
X281730Y457148D01*
X281732Y457152D01*
X281782Y457340D01*
X281797Y457396D01*
X283565Y461663D01*
X286709Y464807D01*
X290817Y466509D01*
X295263Y466509D01*
X299371Y464807D01*
X302515Y461663D01*
X304269Y457430D01*
X304317Y457276D01*
X304375Y457086D01*
X304377Y457082D01*
X304378Y457078D01*
X304473Y456904D01*
X304567Y456732D01*
X304569Y456729D01*
X304572Y456725D01*
X304700Y456572D01*
X304824Y456423D01*
X304828Y456420D01*
X304831Y456417D01*
X304985Y456294D01*
X305138Y456171D01*
X305142Y456169D01*
X305145Y456166D01*
X305320Y456076D01*
X305495Y455985D01*
X305500Y455984D01*
X305504Y455982D01*
X305691Y455929D01*
X305882Y455874D01*
X305887Y455874D01*
X305891Y455872D01*
X306084Y455857D01*
X306284Y455841D01*
X306288Y455842D01*
X306292Y455841D01*
X306486Y455865D01*
X306683Y455888D01*
X306688Y455889D01*
X306692Y455890D01*
X306877Y455951D01*
X307066Y456013D01*
X307070Y456015D01*
X307074Y456016D01*
X307246Y456114D01*
X307417Y456211D01*
X307420Y456214D01*
X307424Y456216D01*
X307575Y456347D01*
X307721Y456474D01*
X307724Y456477D01*
X307728Y456480D01*
X307848Y456637D01*
X307968Y456792D01*
X307970Y456796D01*
X307973Y456800D01*
X308125Y457095D01*
X308965Y459123D01*
X312109Y462267D01*
X315791Y463792D01*
X315791Y463793D01*
X316217Y463969D01*
X320663Y463969D01*
X324771Y462267D01*
X327915Y459123D01*
X329617Y455015D01*
X329617Y450569D01*
X327915Y446461D01*
X324771Y443317D01*
X320663Y441615D01*
X316217Y441615D01*
X312109Y443317D01*
X308965Y446461D01*
X307211Y450694D01*
X307164Y450847D01*
X307105Y451038D01*
X307103Y451042D01*
X307102Y451046D01*
X307007Y451219D01*
X306913Y451392D01*
X306911Y451395D01*
X306908Y451399D01*
X306780Y451552D01*
X306656Y451701D01*
X306652Y451704D01*
X306649Y451707D01*
X306495Y451830D01*
X306342Y451953D01*
X306338Y451955D01*
X306335Y451958D01*
X306160Y452048D01*
X305985Y452139D01*
X305980Y452140D01*
X305976Y452142D01*
X305789Y452195D01*
X305598Y452250D01*
X305593Y452250D01*
X305589Y452252D01*
X305396Y452267D01*
X305196Y452283D01*
X305192Y452282D01*
X305188Y452283D01*
X304994Y452259D01*
X304797Y452236D01*
X304792Y452235D01*
X304788Y452234D01*
X304603Y452173D01*
X304414Y452111D01*
X304410Y452109D01*
X304406Y452108D01*
X304234Y452010D01*
X304063Y451913D01*
X304060Y451910D01*
X304056Y451908D01*
X303905Y451777D01*
X303759Y451650D01*
X303756Y451647D01*
X303752Y451644D01*
X303632Y451487D01*
X303512Y451332D01*
X303510Y451328D01*
X303507Y451324D01*
X303355Y451029D01*
X302515Y449001D01*
X299371Y445857D01*
X297774Y445195D01*
X295263Y444155D01*
X290817Y444155D01*
X286709Y445857D01*
X283565Y449001D01*
X282725Y451029D01*
X282723Y451033D01*
X282721Y451038D01*
X282628Y451210D01*
X282534Y451384D01*
X282532Y451388D01*
X282529Y451392D01*
X282405Y451540D01*
X282278Y451695D01*
X282275Y451697D01*
X282272Y451701D01*
X282119Y451824D01*
X281965Y451948D01*
X281961Y451950D01*
X281958Y451953D01*
X281785Y452043D01*
X281609Y452135D01*
X281605Y452137D01*
X281601Y452139D01*
X281412Y452193D01*
X281222Y452248D01*
X281218Y452249D01*
X281214Y452250D01*
X281016Y452266D01*
X280821Y452283D01*
X280817Y452283D01*
X280812Y452283D01*
X280618Y452260D01*
X280421Y452238D01*
X280417Y452237D01*
X280413Y452236D01*
X280227Y452176D01*
X280038Y452115D01*
X280034Y452113D01*
X280030Y452111D01*
X279857Y452014D01*
X279686Y451918D01*
X279683Y451916D01*
X279679Y451913D01*
X279530Y451785D01*
X279381Y451657D01*
X279378Y451653D01*
X279374Y451650D01*
X279254Y451495D01*
X279132Y451340D01*
X279130Y451336D01*
X279128Y451332D01*
X279037Y451150D01*
X278952Y450980D01*
X278950Y450976D01*
X278948Y450972D01*
X278897Y450780D01*
X278883Y450728D01*
X277115Y446461D01*
X273971Y443317D01*
X269863Y441615D01*
X265417Y441615D01*
X261309Y443317D01*
X258165Y446461D01*
X256412Y450694D01*
X256363Y450849D01*
X256305Y451038D01*
X256303Y451042D01*
X256302Y451046D01*
X256206Y451220D01*
X256113Y451392D01*
X256111Y451395D01*
X256108Y451399D01*
X255980Y451552D01*
X255856Y451701D01*
X255852Y451704D01*
X255849Y451707D01*
X255695Y451830D01*
X255542Y451953D01*
X255538Y451955D01*
X255535Y451958D01*
X255354Y452051D01*
X255185Y452139D01*
X255180Y452140D01*
X255176Y452142D01*
X254986Y452196D01*
X254798Y452250D01*
X254793Y452250D01*
X254789Y452252D01*
X254597Y452267D01*
X254396Y452283D01*
X254392Y452282D01*
X254388Y452283D01*
X254194Y452259D01*
X253997Y452236D01*
X253992Y452235D01*
X253988Y452234D01*
X253803Y452173D01*
X253614Y452111D01*
X253610Y452109D01*
X253606Y452108D01*
X253437Y452011D01*
X253263Y451913D01*
X253260Y451910D01*
X253256Y451908D01*
X253109Y451780D01*
X252959Y451650D01*
X252956Y451647D01*
X252952Y451644D01*
X252832Y451487D01*
X252712Y451332D01*
X252710Y451328D01*
X252707Y451325D01*
X252555Y451029D01*
X251715Y449001D01*
X248571Y445857D01*
X246974Y445195D01*
X244463Y444155D01*
X240017Y444155D01*
X235909Y445857D01*
X232765Y449001D01*
X231925Y451029D01*
X231923Y451033D01*
X231921Y451038D01*
X231828Y451210D01*
X231734Y451384D01*
X231732Y451388D01*
X231729Y451392D01*
X231604Y451542D01*
X231478Y451695D01*
X231475Y451697D01*
X231472Y451701D01*
X231321Y451822D01*
X231165Y451948D01*
X231161Y451950D01*
X231158Y451953D01*
X230986Y452042D01*
X230809Y452135D01*
X230805Y452137D01*
X230801Y452139D01*
X230613Y452193D01*
X230422Y452249D01*
X230418Y452249D01*
X230414Y452250D01*
X230216Y452266D01*
X230021Y452283D01*
X230017Y452283D01*
X230012Y452283D01*
X229817Y452260D01*
X229621Y452238D01*
X229617Y452237D01*
X229613Y452236D01*
X229425Y452175D01*
X229238Y452115D01*
X229234Y452113D01*
X229230Y452111D01*
X229057Y452014D01*
X228886Y451918D01*
X228883Y451916D01*
X228879Y451913D01*
X228729Y451784D01*
X228581Y451657D01*
X228578Y451653D01*
X228574Y451650D01*
X228451Y451491D01*
X228332Y451340D01*
X228330Y451336D01*
X228328Y451332D01*
X228240Y451156D01*
X228152Y450980D01*
X228150Y450976D01*
X228148Y450972D01*
X228096Y450778D01*
X228083Y450728D01*
X226315Y446461D01*
X223171Y443317D01*
X219063Y441615D01*
X214617Y441615D01*
G37*
%LPD*%
%LPC*%
G36*
X403207Y123973D02*
X403207Y123973D01*
X399099Y125675D01*
X395955Y128819D01*
X394253Y132927D01*
X394253Y137373D01*
X395955Y141481D01*
X399099Y144625D01*
X399729Y144886D01*
X403332Y146378D01*
X403487Y146427D01*
X403676Y146485D01*
X403680Y146487D01*
X403684Y146488D01*
X403858Y146584D01*
X404030Y146677D01*
X404033Y146679D01*
X404037Y146682D01*
X404190Y146810D01*
X404339Y146934D01*
X404342Y146938D01*
X404345Y146941D01*
X404470Y147097D01*
X404591Y147248D01*
X404593Y147252D01*
X404596Y147255D01*
X404688Y147435D01*
X404777Y147605D01*
X404778Y147610D01*
X404780Y147614D01*
X404834Y147804D01*
X404888Y147992D01*
X404888Y147997D01*
X404890Y148001D01*
X404905Y148192D01*
X404921Y148394D01*
X404920Y148398D01*
X404921Y148402D01*
X404897Y148596D01*
X404874Y148793D01*
X404873Y148798D01*
X404872Y148802D01*
X404811Y148987D01*
X404749Y149176D01*
X404747Y149180D01*
X404746Y149184D01*
X404649Y149353D01*
X404551Y149527D01*
X404548Y149530D01*
X404546Y149534D01*
X404418Y149681D01*
X404288Y149831D01*
X404285Y149834D01*
X404282Y149838D01*
X404125Y149958D01*
X403970Y150078D01*
X403966Y150080D01*
X403963Y150083D01*
X403667Y150235D01*
X401639Y151075D01*
X398495Y154219D01*
X396793Y158327D01*
X396793Y162773D01*
X398495Y166881D01*
X401639Y170025D01*
X403667Y170865D01*
X403671Y170868D01*
X403676Y170869D01*
X403847Y170962D01*
X404022Y171056D01*
X404026Y171058D01*
X404030Y171061D01*
X404180Y171186D01*
X404333Y171312D01*
X404335Y171315D01*
X404339Y171318D01*
X404462Y171471D01*
X404586Y171625D01*
X404588Y171629D01*
X404591Y171632D01*
X404681Y171805D01*
X404773Y171981D01*
X404775Y171985D01*
X404777Y171989D01*
X404831Y172177D01*
X404886Y172368D01*
X404887Y172372D01*
X404888Y172376D01*
X404904Y172568D01*
X404921Y172769D01*
X404921Y172773D01*
X404921Y172778D01*
X404898Y172972D01*
X404876Y173169D01*
X404875Y173173D01*
X404874Y173177D01*
X404814Y173363D01*
X404753Y173552D01*
X404751Y173556D01*
X404749Y173560D01*
X404653Y173731D01*
X404556Y173904D01*
X404554Y173907D01*
X404551Y173911D01*
X404423Y174059D01*
X404295Y174209D01*
X404291Y174212D01*
X404288Y174216D01*
X404135Y174335D01*
X403978Y174458D01*
X403974Y174460D01*
X403970Y174462D01*
X403795Y174550D01*
X403618Y174638D01*
X403614Y174640D01*
X403610Y174642D01*
X403418Y174693D01*
X403366Y174707D01*
X399099Y176475D01*
X395955Y179619D01*
X394253Y183727D01*
X394253Y188173D01*
X395955Y192281D01*
X399099Y195425D01*
X403207Y197127D01*
X407653Y197127D01*
X411761Y195425D01*
X414905Y192281D01*
X416607Y188173D01*
X416607Y183727D01*
X414905Y179619D01*
X411761Y176475D01*
X409733Y175635D01*
X409729Y175632D01*
X409724Y175631D01*
X409553Y175538D01*
X409378Y175444D01*
X409374Y175442D01*
X409370Y175439D01*
X409220Y175314D01*
X409067Y175188D01*
X409065Y175185D01*
X409061Y175182D01*
X408938Y175029D01*
X408814Y174875D01*
X408812Y174871D01*
X408809Y174868D01*
X408719Y174695D01*
X408627Y174519D01*
X408625Y174515D01*
X408623Y174511D01*
X408569Y174323D01*
X408514Y174132D01*
X408513Y174128D01*
X408512Y174124D01*
X408496Y173926D01*
X408479Y173731D01*
X408479Y173727D01*
X408479Y173722D01*
X408502Y173528D01*
X408524Y173331D01*
X408525Y173327D01*
X408526Y173323D01*
X408586Y173137D01*
X408647Y172948D01*
X408649Y172944D01*
X408651Y172940D01*
X408747Y172768D01*
X408844Y172596D01*
X408846Y172593D01*
X408849Y172589D01*
X408978Y172439D01*
X409105Y172291D01*
X409109Y172288D01*
X409112Y172284D01*
X409266Y172164D01*
X409422Y172042D01*
X409426Y172040D01*
X409430Y172038D01*
X409610Y171948D01*
X409782Y171862D01*
X409786Y171860D01*
X409790Y171858D01*
X409982Y171807D01*
X410034Y171793D01*
X414301Y170025D01*
X417445Y166881D01*
X419147Y162773D01*
X419147Y158327D01*
X417445Y154219D01*
X414301Y151075D01*
X410068Y149322D01*
X409913Y149273D01*
X409724Y149215D01*
X409720Y149213D01*
X409716Y149212D01*
X409542Y149116D01*
X409370Y149023D01*
X409367Y149021D01*
X409363Y149018D01*
X409210Y148890D01*
X409061Y148766D01*
X409058Y148762D01*
X409055Y148759D01*
X408928Y148600D01*
X408809Y148452D01*
X408807Y148448D01*
X408804Y148445D01*
X408711Y148264D01*
X408623Y148095D01*
X408622Y148090D01*
X408620Y148086D01*
X408566Y147896D01*
X408512Y147708D01*
X408512Y147703D01*
X408510Y147699D01*
X408495Y147507D01*
X408479Y147306D01*
X408480Y147302D01*
X408479Y147298D01*
X408503Y147104D01*
X408526Y146907D01*
X408527Y146902D01*
X408528Y146898D01*
X408589Y146713D01*
X408651Y146524D01*
X408653Y146520D01*
X408654Y146516D01*
X408751Y146347D01*
X408849Y146173D01*
X408852Y146170D01*
X408854Y146166D01*
X408982Y146019D01*
X409112Y145869D01*
X409115Y145866D01*
X409118Y145862D01*
X409275Y145742D01*
X409430Y145622D01*
X409434Y145620D01*
X409437Y145617D01*
X409733Y145465D01*
X411761Y144625D01*
X414905Y141481D01*
X416607Y137373D01*
X416607Y132927D01*
X414905Y128819D01*
X411761Y125675D01*
X407653Y123973D01*
X403207Y123973D01*
G37*
%LPD*%
%LPC*%
G36*
X593819Y252825D02*
X593819Y252825D01*
X590586Y254164D01*
X588112Y256638D01*
X586773Y259871D01*
X586773Y263369D01*
X588112Y266602D01*
X590586Y269076D01*
X593819Y270415D01*
X611349Y270415D01*
X614582Y269076D01*
X617056Y266602D01*
X618395Y263369D01*
X618395Y259871D01*
X617056Y256638D01*
X614582Y254164D01*
X611349Y252825D01*
X593819Y252825D01*
G37*
%LPD*%
%LPC*%
G36*
X593819Y278225D02*
X593819Y278225D01*
X590586Y279564D01*
X588112Y282038D01*
X586773Y285271D01*
X586773Y288769D01*
X588112Y292002D01*
X590586Y294476D01*
X593819Y295815D01*
X611349Y295815D01*
X614582Y294476D01*
X617056Y292002D01*
X618395Y288769D01*
X618395Y285271D01*
X617056Y282038D01*
X614582Y279564D01*
X611349Y278225D01*
X593819Y278225D01*
G37*
%LPD*%
%LPC*%
G36*
X377159Y44210D02*
X377159Y44210D01*
X377142Y44215D01*
X377126Y44223D01*
X376948Y44270D01*
X376773Y44321D01*
X376755Y44323D01*
X376738Y44327D01*
X376407Y44354D01*
X368959Y44354D01*
X368959Y52720D01*
X368957Y52738D01*
X368959Y52756D01*
X368938Y52938D01*
X368919Y53121D01*
X368914Y53138D01*
X368912Y53155D01*
X368855Y53330D01*
X368801Y53506D01*
X368793Y53521D01*
X368787Y53538D01*
X368697Y53698D01*
X368609Y53860D01*
X368598Y53873D01*
X368589Y53889D01*
X368469Y54028D01*
X368352Y54169D01*
X368338Y54180D01*
X368326Y54194D01*
X368181Y54306D01*
X368038Y54421D01*
X368022Y54429D01*
X368008Y54440D01*
X367843Y54522D01*
X367681Y54607D01*
X367664Y54612D01*
X367648Y54620D01*
X367469Y54667D01*
X367294Y54718D01*
X367276Y54720D01*
X367259Y54724D01*
X367130Y54735D01*
X366071Y55793D01*
X366071Y69267D01*
X367113Y70309D01*
X380187Y70309D01*
X381229Y69267D01*
X381229Y57052D01*
X381231Y57034D01*
X381229Y57016D01*
X381250Y56834D01*
X381269Y56651D01*
X381274Y56634D01*
X381276Y56617D01*
X381333Y56442D01*
X381387Y56266D01*
X381395Y56251D01*
X381401Y56234D01*
X381491Y56074D01*
X381579Y55912D01*
X381590Y55899D01*
X381599Y55883D01*
X381719Y55744D01*
X381836Y55603D01*
X381850Y55592D01*
X381862Y55578D01*
X382007Y55466D01*
X382150Y55351D01*
X382166Y55343D01*
X382180Y55332D01*
X382345Y55250D01*
X382507Y55165D01*
X382524Y55160D01*
X382540Y55152D01*
X382719Y55105D01*
X382894Y55054D01*
X382912Y55052D01*
X382929Y55048D01*
X383260Y55021D01*
X383335Y55021D01*
X383981Y54848D01*
X384560Y54513D01*
X385033Y54040D01*
X385368Y53461D01*
X385541Y52815D01*
X385541Y44354D01*
X378093Y44354D01*
X378075Y44352D01*
X378058Y44354D01*
X377875Y44333D01*
X377693Y44314D01*
X377676Y44309D01*
X377658Y44307D01*
X377483Y44250D01*
X377308Y44196D01*
X377292Y44188D01*
X377275Y44182D01*
X377245Y44165D01*
X377159Y44210D01*
G37*
%LPD*%
%LPC*%
G36*
X626947Y384597D02*
X626947Y384597D01*
X622839Y386299D01*
X619695Y389443D01*
X617993Y393551D01*
X617993Y397997D01*
X619695Y402105D01*
X622839Y405249D01*
X626947Y406951D01*
X631393Y406951D01*
X635501Y405249D01*
X638645Y402105D01*
X640347Y397997D01*
X640347Y393551D01*
X638645Y389443D01*
X635501Y386299D01*
X631393Y384597D01*
X626947Y384597D01*
G37*
%LPD*%
%LPC*%
G36*
X429461Y365977D02*
X429461Y365977D01*
X425353Y367679D01*
X422209Y370823D01*
X420507Y374931D01*
X420507Y379377D01*
X422209Y383485D01*
X425353Y386629D01*
X429461Y388331D01*
X433907Y388331D01*
X438015Y386629D01*
X441159Y383485D01*
X442861Y379377D01*
X442861Y374931D01*
X441159Y370823D01*
X438015Y367679D01*
X433907Y365977D01*
X429461Y365977D01*
G37*
%LPD*%
%LPC*%
G36*
X429461Y394933D02*
X429461Y394933D01*
X425353Y396635D01*
X422209Y399779D01*
X420507Y403887D01*
X420507Y408333D01*
X422209Y412441D01*
X425353Y415585D01*
X428947Y417074D01*
X429461Y417287D01*
X433907Y417287D01*
X438015Y415585D01*
X441159Y412441D01*
X442861Y408333D01*
X442861Y403887D01*
X441159Y399779D01*
X438015Y396635D01*
X433907Y394933D01*
X429461Y394933D01*
G37*
%LPD*%
%LPC*%
G36*
X626947Y355641D02*
X626947Y355641D01*
X622839Y357343D01*
X619695Y360487D01*
X617993Y364595D01*
X617993Y369041D01*
X619695Y373149D01*
X622839Y376293D01*
X626947Y377995D01*
X631393Y377995D01*
X635501Y376293D01*
X638645Y373149D01*
X640347Y369041D01*
X640347Y364595D01*
X638645Y360487D01*
X635501Y357343D01*
X631825Y355820D01*
X631393Y355641D01*
X626947Y355641D01*
G37*
%LPD*%
%LPC*%
G36*
X378015Y471423D02*
X378015Y471423D01*
X373907Y473125D01*
X370763Y476269D01*
X369061Y480377D01*
X369061Y484823D01*
X370763Y488931D01*
X373907Y492075D01*
X378015Y493777D01*
X382461Y493777D01*
X386569Y492075D01*
X389713Y488931D01*
X391415Y484823D01*
X391415Y480377D01*
X389713Y476269D01*
X386569Y473125D01*
X382891Y471601D01*
X382461Y471423D01*
X378015Y471423D01*
G37*
%LPD*%
%LPC*%
G36*
X145275Y169383D02*
X145275Y169383D01*
X141167Y171085D01*
X138023Y174229D01*
X136321Y178337D01*
X136321Y182783D01*
X138023Y186891D01*
X141167Y190035D01*
X144957Y191605D01*
X145275Y191737D01*
X149721Y191737D01*
X153829Y190035D01*
X156973Y186891D01*
X158675Y182783D01*
X158675Y178337D01*
X156973Y174229D01*
X153829Y171085D01*
X149721Y169383D01*
X145275Y169383D01*
G37*
%LPD*%
%LPC*%
G36*
X116319Y169383D02*
X116319Y169383D01*
X112211Y171085D01*
X109067Y174229D01*
X107365Y178337D01*
X107365Y182783D01*
X109067Y186891D01*
X112211Y190035D01*
X116001Y191605D01*
X116319Y191737D01*
X120765Y191737D01*
X124873Y190035D01*
X128017Y186891D01*
X129719Y182783D01*
X129719Y178337D01*
X128017Y174229D01*
X124873Y171085D01*
X120765Y169383D01*
X116319Y169383D01*
G37*
%LPD*%
%LPC*%
G36*
X490439Y19839D02*
X490439Y19839D01*
X486704Y21386D01*
X483846Y24244D01*
X482299Y27979D01*
X482299Y32021D01*
X483846Y35756D01*
X486704Y38614D01*
X490439Y40161D01*
X494481Y40161D01*
X498216Y38614D01*
X501074Y35756D01*
X502621Y32021D01*
X502621Y27979D01*
X501074Y24244D01*
X498216Y21386D01*
X494481Y19839D01*
X490439Y19839D01*
G37*
%LPD*%
%LPC*%
G36*
X366663Y145201D02*
X366663Y145201D01*
X365621Y146243D01*
X365621Y153985D01*
X365613Y154067D01*
X365615Y154149D01*
X365593Y154267D01*
X365581Y154386D01*
X365557Y154464D01*
X365543Y154545D01*
X365498Y154656D01*
X365463Y154771D01*
X365424Y154843D01*
X365394Y154919D01*
X365328Y155020D01*
X365271Y155125D01*
X365219Y155188D01*
X365174Y155257D01*
X365090Y155342D01*
X365014Y155434D01*
X364950Y155485D01*
X364892Y155544D01*
X364793Y155611D01*
X364700Y155686D01*
X364627Y155724D01*
X364559Y155770D01*
X364449Y155817D01*
X364343Y155872D01*
X364264Y155895D01*
X364188Y155926D01*
X364071Y155950D01*
X363956Y155983D01*
X363874Y155990D01*
X363793Y156006D01*
X363674Y156006D01*
X363554Y156016D01*
X363473Y156007D01*
X363391Y156007D01*
X363240Y155979D01*
X363155Y155969D01*
X363116Y155957D01*
X363064Y155947D01*
X363034Y155939D01*
X358074Y155939D01*
X358074Y161356D01*
X365836Y161356D01*
X365848Y161341D01*
X365862Y161330D01*
X365874Y161316D01*
X366019Y161204D01*
X366162Y161089D01*
X366178Y161081D01*
X366192Y161070D01*
X366357Y160988D01*
X366519Y160903D01*
X366536Y160898D01*
X366552Y160890D01*
X366731Y160843D01*
X366906Y160792D01*
X366924Y160790D01*
X366941Y160786D01*
X367272Y160759D01*
X379737Y160759D01*
X380779Y159717D01*
X380779Y146243D01*
X379737Y145201D01*
X366663Y145201D01*
G37*
%LPD*%
%LPC*%
G36*
X633001Y253279D02*
X633001Y253279D01*
X630045Y254503D01*
X627783Y256765D01*
X626559Y259721D01*
X626559Y262919D01*
X627783Y265875D01*
X630045Y268137D01*
X633001Y269361D01*
X636199Y269361D01*
X639155Y268137D01*
X641417Y265875D01*
X642641Y262919D01*
X642641Y259721D01*
X641417Y256765D01*
X639155Y254503D01*
X636199Y253279D01*
X633001Y253279D01*
G37*
%LPD*%
%LPC*%
G36*
X633001Y279279D02*
X633001Y279279D01*
X630045Y280503D01*
X627783Y282765D01*
X626559Y285721D01*
X626559Y288919D01*
X627783Y291875D01*
X630045Y294137D01*
X633001Y295361D01*
X636199Y295361D01*
X639155Y294137D01*
X641417Y291875D01*
X642641Y288919D01*
X642641Y285721D01*
X641417Y282765D01*
X639155Y280503D01*
X636199Y279279D01*
X633001Y279279D01*
G37*
%LPD*%
%LPC*%
G36*
X319038Y329025D02*
X319038Y329025D01*
X314425Y333638D01*
X314425Y340162D01*
X319038Y344775D01*
X325562Y344775D01*
X330175Y340162D01*
X330175Y333638D01*
X325562Y329025D01*
X319038Y329025D01*
G37*
%LPD*%
%LPC*%
G36*
X344438Y329025D02*
X344438Y329025D01*
X339825Y333638D01*
X339825Y340162D01*
X344438Y344775D01*
X350962Y344775D01*
X355575Y340162D01*
X355575Y333638D01*
X350962Y329025D01*
X344438Y329025D01*
G37*
%LPD*%
%LPC*%
G36*
X344438Y405225D02*
X344438Y405225D01*
X339825Y409838D01*
X339825Y416362D01*
X344438Y420975D01*
X350962Y420975D01*
X355575Y416362D01*
X355575Y409838D01*
X350962Y405225D01*
X344438Y405225D01*
G37*
%LPD*%
%LPC*%
G36*
X319038Y379825D02*
X319038Y379825D01*
X314425Y384438D01*
X314425Y390962D01*
X319038Y395575D01*
X325562Y395575D01*
X330175Y390962D01*
X330175Y384438D01*
X325562Y379825D01*
X319038Y379825D01*
G37*
%LPD*%
%LPC*%
G36*
X344438Y354425D02*
X344438Y354425D01*
X339825Y359038D01*
X339825Y365562D01*
X344438Y370175D01*
X350962Y370175D01*
X355575Y365562D01*
X355575Y359038D01*
X350962Y354425D01*
X344438Y354425D01*
G37*
%LPD*%
%LPC*%
G36*
X319038Y354425D02*
X319038Y354425D01*
X314425Y359038D01*
X314425Y365562D01*
X319038Y370175D01*
X325562Y370175D01*
X330175Y365562D01*
X330175Y359038D01*
X325562Y354425D01*
X319038Y354425D01*
G37*
%LPD*%
%LPC*%
G36*
X58600Y104459D02*
X58600Y104459D01*
X56012Y105531D01*
X54031Y107512D01*
X52959Y110100D01*
X52959Y112900D01*
X54031Y115488D01*
X56012Y117469D01*
X58600Y118541D01*
X61400Y118541D01*
X63988Y117469D01*
X65969Y115488D01*
X67041Y112900D01*
X67041Y110100D01*
X65969Y107512D01*
X63988Y105531D01*
X61400Y104459D01*
X58600Y104459D01*
G37*
%LPD*%
%LPC*%
G36*
X58600Y148459D02*
X58600Y148459D01*
X56012Y149531D01*
X54031Y151512D01*
X52959Y154100D01*
X52959Y156900D01*
X54031Y159488D01*
X56012Y161469D01*
X58600Y162541D01*
X61400Y162541D01*
X63988Y161469D01*
X65969Y159488D01*
X67041Y156900D01*
X67041Y154100D01*
X65969Y151512D01*
X63988Y149531D01*
X61400Y148459D01*
X58600Y148459D01*
G37*
%LPD*%
%LPC*%
G36*
X357870Y177764D02*
X357870Y177764D01*
X357707Y177847D01*
X357545Y177933D01*
X357527Y177938D01*
X357511Y177946D01*
X357334Y177996D01*
X357159Y178048D01*
X357141Y178050D01*
X357124Y178054D01*
X356940Y178068D01*
X356758Y178084D01*
X356740Y178082D01*
X356722Y178084D01*
X356539Y178061D01*
X356357Y178041D01*
X356340Y178036D01*
X356323Y178033D01*
X356148Y177975D01*
X355974Y177919D01*
X355958Y177911D01*
X355941Y177905D01*
X355781Y177813D01*
X355756Y177799D01*
X351646Y177799D01*
X351013Y178433D01*
X351012Y178433D01*
X350194Y179252D01*
X350194Y184483D01*
X351646Y185935D01*
X355750Y185935D01*
X355845Y185887D01*
X356006Y185801D01*
X356023Y185796D01*
X356039Y185788D01*
X356216Y185739D01*
X356392Y185686D01*
X356410Y185685D01*
X356427Y185680D01*
X356610Y185667D01*
X356793Y185650D01*
X356811Y185652D01*
X356829Y185651D01*
X357011Y185674D01*
X357193Y185693D01*
X357211Y185699D01*
X357228Y185701D01*
X357402Y185759D01*
X357577Y185815D01*
X357593Y185824D01*
X357610Y185829D01*
X357770Y185921D01*
X357795Y185935D01*
X358218Y185935D01*
X358515Y185638D01*
X358543Y185548D01*
X358600Y185365D01*
X358604Y185358D01*
X358606Y185351D01*
X358699Y185181D01*
X358792Y185011D01*
X358797Y185005D01*
X358800Y184998D01*
X358927Y184849D01*
X359049Y184702D01*
X359055Y184697D01*
X359061Y184691D01*
X359215Y184569D01*
X359363Y184449D01*
X359370Y184446D01*
X359376Y184441D01*
X359551Y184352D01*
X359720Y184264D01*
X359728Y184262D01*
X359735Y184258D01*
X359922Y184206D01*
X360107Y184152D01*
X360115Y184152D01*
X360123Y184150D01*
X360314Y184136D01*
X360509Y184120D01*
X360516Y184121D01*
X360524Y184120D01*
X360717Y184144D01*
X360908Y184167D01*
X360916Y184169D01*
X360924Y184170D01*
X361108Y184232D01*
X361291Y184291D01*
X361298Y184295D01*
X361305Y184298D01*
X361473Y184394D01*
X361642Y184489D01*
X361648Y184494D01*
X361655Y184498D01*
X361801Y184626D01*
X361946Y184752D01*
X361951Y184759D01*
X361957Y184764D01*
X362163Y185024D01*
X362252Y185157D01*
X362265Y185182D01*
X362282Y185204D01*
X362359Y185359D01*
X362441Y185513D01*
X362449Y185539D01*
X362461Y185564D01*
X362467Y185585D01*
X362536Y185654D01*
X362558Y185681D01*
X362584Y185704D01*
X362770Y185938D01*
X362805Y185936D01*
X363102Y185971D01*
X363102Y185970D01*
X363125Y185944D01*
X363385Y185738D01*
X363819Y185449D01*
X363836Y185440D01*
X363851Y185428D01*
X364014Y185345D01*
X364175Y185260D01*
X364193Y185255D01*
X364210Y185246D01*
X364386Y185197D01*
X364561Y185145D01*
X364580Y185143D01*
X364598Y185138D01*
X364780Y185125D01*
X364962Y185108D01*
X364980Y185110D01*
X365000Y185109D01*
X365180Y185131D01*
X365362Y185151D01*
X365380Y185157D01*
X365399Y185159D01*
X365572Y185217D01*
X365746Y185272D01*
X365763Y185281D01*
X365781Y185287D01*
X365939Y185379D01*
X366099Y185466D01*
X366113Y185479D01*
X366130Y185488D01*
X366383Y185703D01*
X366615Y185935D01*
X369388Y185935D01*
X370207Y185117D01*
X370207Y185116D01*
X370841Y184483D01*
X370841Y179252D01*
X369388Y177799D01*
X366615Y177799D01*
X366310Y178104D01*
X366296Y178115D01*
X366285Y178129D01*
X366141Y178243D01*
X365999Y178359D01*
X365983Y178367D01*
X365969Y178378D01*
X365805Y178462D01*
X365643Y178548D01*
X365626Y178553D01*
X365610Y178561D01*
X365433Y178610D01*
X365257Y178662D01*
X365239Y178664D01*
X365222Y178669D01*
X365039Y178682D01*
X364856Y178699D01*
X364838Y178697D01*
X364821Y178698D01*
X364639Y178675D01*
X364456Y178655D01*
X364439Y178650D01*
X364421Y178648D01*
X364247Y178589D01*
X364072Y178534D01*
X364056Y178525D01*
X364039Y178519D01*
X363880Y178428D01*
X363720Y178339D01*
X363706Y178327D01*
X363691Y178319D01*
X363438Y178104D01*
X363133Y177799D01*
X362817Y177799D01*
X362520Y178096D01*
X362492Y178184D01*
X362435Y178369D01*
X362431Y178376D01*
X362429Y178384D01*
X362336Y178553D01*
X362243Y178723D01*
X362238Y178729D01*
X362234Y178736D01*
X362109Y178885D01*
X361986Y179033D01*
X361979Y179037D01*
X361974Y179044D01*
X361821Y179165D01*
X361672Y179285D01*
X361665Y179288D01*
X361659Y179293D01*
X361484Y179382D01*
X361314Y179470D01*
X361307Y179473D01*
X361300Y179476D01*
X361113Y179528D01*
X360928Y179582D01*
X360920Y179582D01*
X360912Y179585D01*
X360721Y179599D01*
X360526Y179615D01*
X360518Y179614D01*
X360511Y179614D01*
X360318Y179590D01*
X360126Y179568D01*
X360119Y179565D01*
X360111Y179564D01*
X359927Y179503D01*
X359744Y179443D01*
X359737Y179439D01*
X359729Y179437D01*
X359562Y179340D01*
X359393Y179245D01*
X359387Y179240D01*
X359380Y179236D01*
X359234Y179108D01*
X359088Y178982D01*
X359084Y178976D01*
X359078Y178970D01*
X358872Y178710D01*
X358783Y178577D01*
X358770Y178552D01*
X358753Y178530D01*
X358675Y178375D01*
X358594Y178221D01*
X358586Y178195D01*
X358573Y178170D01*
X358568Y178149D01*
X358499Y178080D01*
X358477Y178053D01*
X358451Y178031D01*
X358265Y177796D01*
X358230Y177798D01*
X357901Y177760D01*
X357881Y177756D01*
X357870Y177764D01*
G37*
%LPD*%
%LPC*%
G36*
X205470Y40604D02*
X205470Y40604D01*
X205307Y40687D01*
X205145Y40773D01*
X205127Y40778D01*
X205111Y40786D01*
X204934Y40836D01*
X204759Y40888D01*
X204741Y40890D01*
X204724Y40894D01*
X204540Y40908D01*
X204358Y40924D01*
X204340Y40922D01*
X204322Y40924D01*
X204139Y40901D01*
X203957Y40881D01*
X203940Y40876D01*
X203923Y40873D01*
X203748Y40815D01*
X203574Y40759D01*
X203558Y40751D01*
X203541Y40745D01*
X203381Y40653D01*
X203356Y40639D01*
X199246Y40639D01*
X198613Y41273D01*
X198612Y41273D01*
X197794Y42092D01*
X197794Y47323D01*
X199246Y48775D01*
X203350Y48775D01*
X203445Y48727D01*
X203606Y48641D01*
X203623Y48636D01*
X203639Y48628D01*
X203816Y48579D01*
X203992Y48526D01*
X204010Y48525D01*
X204027Y48520D01*
X204210Y48507D01*
X204393Y48490D01*
X204411Y48492D01*
X204429Y48491D01*
X204611Y48514D01*
X204793Y48533D01*
X204811Y48539D01*
X204828Y48541D01*
X205002Y48599D01*
X205177Y48655D01*
X205193Y48664D01*
X205210Y48669D01*
X205370Y48761D01*
X205395Y48775D01*
X205818Y48775D01*
X206115Y48478D01*
X206143Y48388D01*
X206200Y48205D01*
X206204Y48198D01*
X206206Y48191D01*
X206299Y48021D01*
X206392Y47851D01*
X206397Y47845D01*
X206400Y47838D01*
X206526Y47690D01*
X206649Y47542D01*
X206655Y47537D01*
X206661Y47531D01*
X206815Y47409D01*
X206963Y47289D01*
X206970Y47286D01*
X206976Y47281D01*
X207151Y47192D01*
X207320Y47104D01*
X207328Y47102D01*
X207335Y47098D01*
X207522Y47046D01*
X207707Y46992D01*
X207715Y46992D01*
X207723Y46990D01*
X207914Y46976D01*
X208109Y46960D01*
X208116Y46961D01*
X208124Y46960D01*
X208317Y46984D01*
X208508Y47007D01*
X208516Y47009D01*
X208524Y47010D01*
X208708Y47072D01*
X208891Y47131D01*
X208898Y47135D01*
X208905Y47138D01*
X209073Y47234D01*
X209242Y47329D01*
X209248Y47334D01*
X209255Y47338D01*
X209401Y47466D01*
X209546Y47592D01*
X209551Y47599D01*
X209557Y47604D01*
X209763Y47864D01*
X209852Y47997D01*
X209865Y48022D01*
X209882Y48044D01*
X209959Y48199D01*
X210041Y48353D01*
X210049Y48379D01*
X210061Y48404D01*
X210067Y48425D01*
X210136Y48494D01*
X210158Y48521D01*
X210184Y48544D01*
X210370Y48778D01*
X210405Y48776D01*
X210702Y48811D01*
X210702Y48810D01*
X210725Y48784D01*
X210985Y48578D01*
X211419Y48289D01*
X211436Y48280D01*
X211451Y48268D01*
X211614Y48185D01*
X211775Y48100D01*
X211793Y48095D01*
X211810Y48086D01*
X211986Y48037D01*
X212161Y47985D01*
X212180Y47983D01*
X212198Y47978D01*
X212380Y47965D01*
X212562Y47948D01*
X212580Y47950D01*
X212600Y47949D01*
X212780Y47971D01*
X212962Y47991D01*
X212980Y47997D01*
X212999Y47999D01*
X213172Y48057D01*
X213346Y48112D01*
X213363Y48121D01*
X213381Y48127D01*
X213539Y48219D01*
X213699Y48306D01*
X213713Y48319D01*
X213730Y48328D01*
X213983Y48543D01*
X214215Y48775D01*
X216988Y48775D01*
X217807Y47957D01*
X217807Y47956D01*
X218441Y47323D01*
X218441Y42092D01*
X216988Y40639D01*
X214215Y40639D01*
X213910Y40944D01*
X213896Y40955D01*
X213885Y40969D01*
X213741Y41083D01*
X213599Y41199D01*
X213583Y41207D01*
X213569Y41218D01*
X213405Y41302D01*
X213243Y41388D01*
X213226Y41393D01*
X213210Y41401D01*
X213034Y41450D01*
X212857Y41502D01*
X212839Y41504D01*
X212822Y41509D01*
X212639Y41522D01*
X212456Y41539D01*
X212438Y41537D01*
X212421Y41538D01*
X212239Y41515D01*
X212056Y41495D01*
X212039Y41490D01*
X212021Y41488D01*
X211847Y41429D01*
X211672Y41374D01*
X211656Y41365D01*
X211639Y41359D01*
X211480Y41268D01*
X211320Y41179D01*
X211306Y41167D01*
X211291Y41159D01*
X211038Y40944D01*
X210733Y40639D01*
X210417Y40639D01*
X210120Y40936D01*
X210092Y41023D01*
X210035Y41209D01*
X210031Y41216D01*
X210029Y41224D01*
X209936Y41393D01*
X209843Y41563D01*
X209838Y41569D01*
X209834Y41576D01*
X209709Y41725D01*
X209586Y41873D01*
X209579Y41877D01*
X209574Y41884D01*
X209421Y42005D01*
X209272Y42125D01*
X209265Y42128D01*
X209259Y42133D01*
X209084Y42222D01*
X208914Y42310D01*
X208907Y42313D01*
X208900Y42316D01*
X208713Y42368D01*
X208528Y42422D01*
X208520Y42422D01*
X208512Y42425D01*
X208321Y42439D01*
X208126Y42455D01*
X208118Y42454D01*
X208111Y42454D01*
X207918Y42430D01*
X207726Y42408D01*
X207719Y42405D01*
X207711Y42404D01*
X207527Y42343D01*
X207344Y42283D01*
X207337Y42279D01*
X207329Y42277D01*
X207162Y42180D01*
X206993Y42085D01*
X206987Y42080D01*
X206980Y42076D01*
X206834Y41948D01*
X206688Y41822D01*
X206684Y41816D01*
X206678Y41810D01*
X206472Y41550D01*
X206383Y41417D01*
X206370Y41392D01*
X206353Y41370D01*
X206275Y41215D01*
X206194Y41061D01*
X206186Y41035D01*
X206173Y41010D01*
X206168Y40989D01*
X206099Y40920D01*
X206077Y40893D01*
X206051Y40871D01*
X205865Y40636D01*
X205830Y40638D01*
X205501Y40600D01*
X205481Y40596D01*
X205470Y40604D01*
G37*
%LPD*%
%LPC*%
G36*
X398510Y35524D02*
X398510Y35524D01*
X398347Y35607D01*
X398185Y35693D01*
X398167Y35698D01*
X398151Y35706D01*
X397974Y35756D01*
X397799Y35808D01*
X397781Y35810D01*
X397764Y35814D01*
X397580Y35828D01*
X397398Y35844D01*
X397380Y35842D01*
X397362Y35844D01*
X397179Y35821D01*
X396997Y35801D01*
X396980Y35796D01*
X396963Y35793D01*
X396788Y35735D01*
X396614Y35679D01*
X396598Y35671D01*
X396581Y35665D01*
X396421Y35573D01*
X396396Y35559D01*
X392286Y35559D01*
X391653Y36193D01*
X391652Y36193D01*
X390834Y37012D01*
X390834Y42243D01*
X392286Y43695D01*
X396390Y43695D01*
X396485Y43647D01*
X396646Y43561D01*
X396663Y43556D01*
X396679Y43548D01*
X396856Y43499D01*
X397032Y43446D01*
X397050Y43445D01*
X397067Y43440D01*
X397250Y43427D01*
X397433Y43410D01*
X397451Y43412D01*
X397469Y43411D01*
X397651Y43434D01*
X397833Y43453D01*
X397851Y43459D01*
X397868Y43461D01*
X398042Y43519D01*
X398217Y43575D01*
X398233Y43584D01*
X398250Y43589D01*
X398410Y43681D01*
X398435Y43695D01*
X398858Y43695D01*
X399155Y43398D01*
X399183Y43308D01*
X399240Y43125D01*
X399244Y43118D01*
X399246Y43111D01*
X399339Y42941D01*
X399432Y42771D01*
X399437Y42765D01*
X399440Y42758D01*
X399566Y42610D01*
X399689Y42462D01*
X399695Y42457D01*
X399701Y42451D01*
X399855Y42329D01*
X400003Y42209D01*
X400010Y42206D01*
X400016Y42201D01*
X400191Y42112D01*
X400360Y42024D01*
X400368Y42022D01*
X400375Y42018D01*
X400562Y41966D01*
X400747Y41912D01*
X400755Y41912D01*
X400763Y41910D01*
X400954Y41896D01*
X401149Y41880D01*
X401156Y41881D01*
X401164Y41880D01*
X401357Y41904D01*
X401548Y41927D01*
X401556Y41929D01*
X401564Y41930D01*
X401748Y41992D01*
X401931Y42051D01*
X401938Y42055D01*
X401945Y42058D01*
X402113Y42154D01*
X402282Y42249D01*
X402288Y42254D01*
X402295Y42258D01*
X402441Y42386D01*
X402586Y42512D01*
X402591Y42519D01*
X402597Y42524D01*
X402803Y42784D01*
X402892Y42917D01*
X402905Y42942D01*
X402922Y42964D01*
X402999Y43119D01*
X403081Y43273D01*
X403089Y43299D01*
X403101Y43324D01*
X403107Y43345D01*
X403176Y43414D01*
X403198Y43441D01*
X403224Y43464D01*
X403410Y43698D01*
X403445Y43696D01*
X403740Y43730D01*
X403746Y43723D01*
X403755Y43716D01*
X403765Y43704D01*
X404025Y43498D01*
X404459Y43209D01*
X404476Y43200D01*
X404491Y43188D01*
X404654Y43105D01*
X404815Y43020D01*
X404833Y43015D01*
X404850Y43006D01*
X405026Y42957D01*
X405201Y42905D01*
X405220Y42903D01*
X405238Y42898D01*
X405420Y42885D01*
X405602Y42868D01*
X405620Y42870D01*
X405640Y42869D01*
X405820Y42891D01*
X406002Y42911D01*
X406020Y42917D01*
X406039Y42919D01*
X406212Y42977D01*
X406386Y43032D01*
X406403Y43041D01*
X406421Y43047D01*
X406579Y43139D01*
X406739Y43226D01*
X406753Y43239D01*
X406770Y43248D01*
X407023Y43463D01*
X407255Y43695D01*
X410028Y43695D01*
X410847Y42877D01*
X410847Y42876D01*
X411481Y42243D01*
X411481Y37012D01*
X410028Y35559D01*
X407255Y35559D01*
X406950Y35864D01*
X406936Y35875D01*
X406925Y35889D01*
X406781Y36003D01*
X406639Y36119D01*
X406623Y36127D01*
X406609Y36138D01*
X406445Y36222D01*
X406283Y36308D01*
X406266Y36313D01*
X406250Y36321D01*
X406073Y36370D01*
X405897Y36422D01*
X405879Y36424D01*
X405862Y36429D01*
X405679Y36442D01*
X405496Y36459D01*
X405478Y36457D01*
X405461Y36458D01*
X405279Y36435D01*
X405096Y36415D01*
X405079Y36410D01*
X405061Y36408D01*
X404887Y36349D01*
X404712Y36294D01*
X404696Y36285D01*
X404679Y36279D01*
X404520Y36188D01*
X404360Y36099D01*
X404346Y36087D01*
X404331Y36079D01*
X404078Y35864D01*
X403773Y35559D01*
X403457Y35559D01*
X403160Y35856D01*
X403132Y35944D01*
X403075Y36129D01*
X403071Y36136D01*
X403069Y36144D01*
X402976Y36313D01*
X402883Y36483D01*
X402878Y36489D01*
X402874Y36496D01*
X402749Y36644D01*
X402626Y36793D01*
X402619Y36797D01*
X402614Y36804D01*
X402461Y36925D01*
X402312Y37045D01*
X402305Y37048D01*
X402299Y37053D01*
X402124Y37142D01*
X401954Y37230D01*
X401947Y37233D01*
X401940Y37236D01*
X401753Y37288D01*
X401568Y37342D01*
X401560Y37342D01*
X401552Y37345D01*
X401361Y37359D01*
X401166Y37375D01*
X401158Y37374D01*
X401151Y37374D01*
X400958Y37350D01*
X400766Y37328D01*
X400759Y37325D01*
X400751Y37324D01*
X400567Y37263D01*
X400384Y37203D01*
X400377Y37199D01*
X400369Y37197D01*
X400202Y37100D01*
X400033Y37005D01*
X400027Y37000D01*
X400020Y36996D01*
X399874Y36868D01*
X399728Y36742D01*
X399724Y36736D01*
X399718Y36730D01*
X399512Y36470D01*
X399423Y36337D01*
X399410Y36312D01*
X399393Y36290D01*
X399315Y36135D01*
X399234Y35981D01*
X399226Y35955D01*
X399213Y35930D01*
X399208Y35909D01*
X399139Y35840D01*
X399117Y35813D01*
X399091Y35791D01*
X398905Y35556D01*
X398870Y35558D01*
X398541Y35520D01*
X398521Y35516D01*
X398510Y35524D01*
G37*
%LPD*%
%LPC*%
G36*
X79928Y452945D02*
X79928Y452945D01*
X77431Y453980D01*
X75520Y455891D01*
X74485Y458388D01*
X74485Y461092D01*
X75520Y463589D01*
X77431Y465500D01*
X79928Y466535D01*
X82632Y466535D01*
X85129Y465500D01*
X87040Y463589D01*
X88075Y461092D01*
X88075Y458388D01*
X87040Y455891D01*
X85129Y453980D01*
X82632Y452945D01*
X79928Y452945D01*
G37*
%LPD*%
%LPC*%
G36*
X23941Y304799D02*
X23941Y304799D01*
X23234Y305506D01*
X22489Y306252D01*
X22489Y306568D01*
X22712Y306791D01*
X23029Y306791D01*
X23662Y306158D01*
X23683Y306141D01*
X23701Y306120D01*
X23839Y306013D01*
X23974Y305903D01*
X23998Y305890D01*
X24019Y305874D01*
X24176Y305796D01*
X24330Y305714D01*
X24355Y305706D01*
X24379Y305694D01*
X24549Y305649D01*
X24716Y305599D01*
X24742Y305597D01*
X24768Y305590D01*
X25099Y305563D01*
X25372Y305563D01*
X25390Y305565D01*
X25408Y305563D01*
X25590Y305584D01*
X25773Y305603D01*
X25790Y305608D01*
X25808Y305610D01*
X25982Y305667D01*
X26158Y305721D01*
X26174Y305729D01*
X26191Y305735D01*
X26351Y305825D01*
X26512Y305913D01*
X26526Y305924D01*
X26541Y305933D01*
X26680Y306053D01*
X26821Y306170D01*
X26832Y306184D01*
X26846Y306196D01*
X26958Y306341D01*
X27074Y306484D01*
X27082Y306500D01*
X27093Y306514D01*
X27175Y306679D01*
X27259Y306841D01*
X27264Y306858D01*
X27272Y306874D01*
X27320Y307053D01*
X27370Y307228D01*
X27372Y307246D01*
X27377Y307263D01*
X27404Y307594D01*
X27404Y310140D01*
X27402Y310158D01*
X27403Y310176D01*
X27382Y310358D01*
X27364Y310541D01*
X27359Y310558D01*
X27356Y310576D01*
X27300Y310750D01*
X27246Y310926D01*
X27237Y310942D01*
X27232Y310958D01*
X27141Y311119D01*
X27054Y311280D01*
X27042Y311294D01*
X27034Y311309D01*
X26913Y311448D01*
X26796Y311589D01*
X26782Y311600D01*
X26771Y311614D01*
X26626Y311726D01*
X26482Y311841D01*
X26467Y311850D01*
X26452Y311861D01*
X26288Y311943D01*
X26125Y312027D01*
X26108Y312032D01*
X26092Y312040D01*
X25914Y312088D01*
X25738Y312138D01*
X25720Y312140D01*
X25703Y312144D01*
X25372Y312172D01*
X25099Y312172D01*
X25072Y312169D01*
X25045Y312171D01*
X24872Y312149D01*
X24698Y312132D01*
X24673Y312124D01*
X24646Y312120D01*
X24480Y312065D01*
X24313Y312014D01*
X24290Y312001D01*
X24264Y311992D01*
X24113Y311905D01*
X23959Y311822D01*
X23939Y311805D01*
X23915Y311791D01*
X23662Y311577D01*
X23029Y310943D01*
X22712Y310943D01*
X22489Y311166D01*
X22489Y311483D01*
X23941Y312935D01*
X26715Y312935D01*
X27001Y312649D01*
X27015Y312638D01*
X27026Y312624D01*
X27170Y312510D01*
X27312Y312394D01*
X27328Y312386D01*
X27342Y312375D01*
X27507Y312291D01*
X27668Y312205D01*
X27685Y312200D01*
X27701Y312192D01*
X27879Y312143D01*
X28054Y312091D01*
X28072Y312089D01*
X28089Y312084D01*
X28272Y312071D01*
X28455Y312054D01*
X28473Y312056D01*
X28490Y312055D01*
X28672Y312078D01*
X28855Y312098D01*
X28872Y312103D01*
X28890Y312105D01*
X29063Y312164D01*
X29239Y312219D01*
X29255Y312228D01*
X29272Y312233D01*
X29431Y312325D01*
X29591Y312414D01*
X29605Y312425D01*
X29620Y312434D01*
X29873Y312649D01*
X30159Y312935D01*
X32933Y312935D01*
X33238Y312630D01*
X33251Y312619D01*
X33263Y312605D01*
X33407Y312492D01*
X33549Y312375D01*
X33565Y312367D01*
X33579Y312356D01*
X33743Y312273D01*
X33905Y312187D01*
X33922Y312182D01*
X33938Y312174D01*
X34114Y312124D01*
X34291Y312072D01*
X34308Y312070D01*
X34326Y312066D01*
X34509Y312052D01*
X34692Y312036D01*
X34709Y312037D01*
X34727Y312036D01*
X34909Y312059D01*
X35092Y312079D01*
X35109Y312084D01*
X35127Y312087D01*
X35301Y312145D01*
X35476Y312200D01*
X35491Y312209D01*
X35508Y312215D01*
X35668Y312307D01*
X35828Y312395D01*
X35842Y312407D01*
X35857Y312416D01*
X36110Y312630D01*
X36415Y312935D01*
X40417Y312935D01*
X40641Y312711D01*
X40641Y305023D01*
X40417Y304799D01*
X40101Y304799D01*
X39877Y305023D01*
X39877Y305225D01*
X39877Y305230D01*
X39877Y305233D01*
X39876Y305244D01*
X39877Y305261D01*
X39856Y305443D01*
X39837Y305626D01*
X39832Y305643D01*
X39830Y305661D01*
X39773Y305835D01*
X39719Y306011D01*
X39711Y306027D01*
X39705Y306044D01*
X39615Y306204D01*
X39527Y306365D01*
X39516Y306379D01*
X39507Y306394D01*
X39387Y306533D01*
X39270Y306674D01*
X39256Y306685D01*
X39244Y306699D01*
X39099Y306811D01*
X38956Y306927D01*
X38940Y306935D01*
X38926Y306946D01*
X38761Y307028D01*
X38599Y307112D01*
X38582Y307117D01*
X38566Y307125D01*
X38387Y307173D01*
X38212Y307223D01*
X38194Y307225D01*
X38177Y307230D01*
X37846Y307257D01*
X36368Y307257D01*
X36313Y307302D01*
X36305Y307307D01*
X36298Y307312D01*
X36128Y307401D01*
X35957Y307491D01*
X35948Y307494D01*
X35940Y307498D01*
X35755Y307551D01*
X35571Y307606D01*
X35562Y307607D01*
X35554Y307609D01*
X35362Y307625D01*
X35170Y307642D01*
X35161Y307641D01*
X35152Y307642D01*
X34962Y307620D01*
X34770Y307599D01*
X34761Y307596D01*
X34752Y307595D01*
X34570Y307536D01*
X34386Y307477D01*
X34378Y307473D01*
X34370Y307470D01*
X34202Y307376D01*
X34034Y307282D01*
X34027Y307277D01*
X34019Y307272D01*
X33873Y307146D01*
X33727Y307022D01*
X33721Y307015D01*
X33714Y307009D01*
X33596Y306857D01*
X33477Y306706D01*
X33473Y306698D01*
X33468Y306691D01*
X33382Y306519D01*
X33295Y306347D01*
X33292Y306339D01*
X33288Y306330D01*
X33238Y306143D01*
X33187Y305959D01*
X33186Y305950D01*
X33184Y305942D01*
X33157Y305611D01*
X33157Y305023D01*
X32933Y304799D01*
X30159Y304799D01*
X29873Y305085D01*
X29860Y305096D01*
X29848Y305110D01*
X29704Y305224D01*
X29562Y305340D01*
X29546Y305349D01*
X29532Y305360D01*
X29369Y305443D01*
X29206Y305529D01*
X29189Y305534D01*
X29173Y305542D01*
X28997Y305591D01*
X28820Y305644D01*
X28802Y305645D01*
X28785Y305650D01*
X28602Y305663D01*
X28419Y305680D01*
X28402Y305678D01*
X28384Y305679D01*
X28202Y305657D01*
X28019Y305637D01*
X28002Y305631D01*
X27984Y305629D01*
X27810Y305571D01*
X27635Y305515D01*
X27620Y305507D01*
X27603Y305501D01*
X27443Y305409D01*
X27283Y305320D01*
X27269Y305309D01*
X27254Y305300D01*
X27001Y305085D01*
X26715Y304799D01*
X23941Y304799D01*
G37*
%LPD*%
%LPC*%
G36*
X103665Y436918D02*
X103665Y436918D01*
X103128Y437724D01*
X103118Y437736D01*
X103110Y437749D01*
X102991Y437891D01*
X102872Y438035D01*
X102860Y438045D01*
X102850Y438057D01*
X102705Y438171D01*
X102560Y438290D01*
X102547Y438297D01*
X102534Y438307D01*
X102370Y438391D01*
X102204Y438478D01*
X102189Y438482D01*
X102176Y438489D01*
X101998Y438539D01*
X101818Y438592D01*
X101803Y438594D01*
X101788Y438598D01*
X101604Y438612D01*
X101417Y438628D01*
X101402Y438627D01*
X101386Y438628D01*
X101202Y438605D01*
X101017Y438584D01*
X101002Y438580D01*
X100987Y438578D01*
X100811Y438519D01*
X100633Y438462D01*
X100620Y438455D01*
X100605Y438450D01*
X100445Y438358D01*
X100281Y438267D01*
X100269Y438257D01*
X100256Y438249D01*
X100117Y438128D01*
X99975Y438006D01*
X99965Y437994D01*
X99953Y437984D01*
X99747Y437724D01*
X99210Y436918D01*
X98900Y436856D01*
X98637Y437031D01*
X98575Y437341D01*
X100227Y439820D01*
X100237Y439838D01*
X100249Y439854D01*
X100332Y440016D01*
X100417Y440176D01*
X100422Y440195D01*
X100431Y440213D01*
X100480Y440388D01*
X100532Y440562D01*
X100534Y440582D01*
X100539Y440601D01*
X100552Y440782D01*
X100569Y440963D01*
X100566Y440983D01*
X100568Y441003D01*
X100545Y441183D01*
X100526Y441363D01*
X100520Y441382D01*
X100517Y441402D01*
X100459Y441574D01*
X100405Y441747D01*
X100395Y441765D01*
X100388Y441784D01*
X100227Y442074D01*
X98575Y444553D01*
X98637Y444863D01*
X98900Y445039D01*
X99210Y444977D01*
X99747Y444170D01*
X99757Y444158D01*
X99765Y444145D01*
X99884Y444004D01*
X100003Y443859D01*
X100015Y443849D01*
X100025Y443838D01*
X100170Y443723D01*
X100315Y443605D01*
X100328Y443597D01*
X100340Y443588D01*
X100505Y443504D01*
X100670Y443416D01*
X100685Y443412D01*
X100699Y443405D01*
X100877Y443355D01*
X101056Y443302D01*
X101072Y443301D01*
X101087Y443296D01*
X101271Y443283D01*
X101457Y443266D01*
X101473Y443268D01*
X101488Y443267D01*
X101673Y443290D01*
X101858Y443310D01*
X101872Y443315D01*
X101888Y443317D01*
X102064Y443375D01*
X102241Y443432D01*
X102255Y443439D01*
X102270Y443444D01*
X102429Y443536D01*
X102594Y443627D01*
X102606Y443637D01*
X102619Y443645D01*
X102758Y443767D01*
X102900Y443888D01*
X102910Y443900D01*
X102922Y443910D01*
X103128Y444170D01*
X103665Y444977D01*
X103975Y445039D01*
X104739Y444529D01*
X104756Y444520D01*
X104771Y444508D01*
X104934Y444425D01*
X105095Y444340D01*
X105113Y444335D01*
X105130Y444326D01*
X105306Y444277D01*
X105481Y444225D01*
X105500Y444223D01*
X105518Y444218D01*
X105700Y444205D01*
X105882Y444188D01*
X105900Y444190D01*
X105920Y444189D01*
X106101Y444211D01*
X106282Y444231D01*
X106300Y444237D01*
X106319Y444239D01*
X106492Y444297D01*
X106666Y444352D01*
X106683Y444361D01*
X106701Y444367D01*
X106859Y444458D01*
X107019Y444546D01*
X107033Y444559D01*
X107050Y444568D01*
X107303Y444783D01*
X107535Y445015D01*
X111537Y445015D01*
X111761Y444791D01*
X111761Y437103D01*
X111537Y436879D01*
X111221Y436879D01*
X110692Y437409D01*
X110647Y437490D01*
X110642Y437497D01*
X110637Y437505D01*
X110513Y437652D01*
X110390Y437799D01*
X110383Y437805D01*
X110377Y437812D01*
X110225Y437931D01*
X110076Y438052D01*
X110068Y438056D01*
X110061Y438061D01*
X109888Y438149D01*
X109719Y438237D01*
X109710Y438239D01*
X109702Y438244D01*
X109516Y438295D01*
X109332Y438348D01*
X109323Y438349D01*
X109314Y438352D01*
X109121Y438366D01*
X108930Y438381D01*
X108922Y438380D01*
X108913Y438381D01*
X108720Y438357D01*
X108531Y438334D01*
X108522Y438332D01*
X108513Y438331D01*
X108331Y438269D01*
X108148Y438210D01*
X108140Y438205D01*
X108132Y438202D01*
X107965Y438106D01*
X107797Y438012D01*
X107790Y438006D01*
X107783Y438001D01*
X107530Y437787D01*
X106622Y436879D01*
X106246Y436879D01*
X106237Y436884D01*
X106222Y436896D01*
X106059Y436978D01*
X105898Y437064D01*
X105880Y437069D01*
X105863Y437078D01*
X105686Y437127D01*
X105512Y437178D01*
X105493Y437180D01*
X105475Y437185D01*
X105293Y437198D01*
X105111Y437215D01*
X105092Y437213D01*
X105073Y437214D01*
X104892Y437191D01*
X104711Y437171D01*
X104693Y437166D01*
X104674Y437163D01*
X104501Y437105D01*
X104327Y437050D01*
X104310Y437041D01*
X104293Y437035D01*
X104002Y436874D01*
X103975Y436856D01*
X103665Y436918D01*
G37*
%LPD*%
%LPC*%
G36*
X235724Y45354D02*
X235724Y45354D01*
X235724Y58021D01*
X238435Y58021D01*
X239081Y57848D01*
X239660Y57513D01*
X240133Y57040D01*
X240468Y56461D01*
X240641Y55815D01*
X240641Y45354D01*
X235724Y45354D01*
G37*
%LPD*%
%LPC*%
G36*
X235724Y27939D02*
X235724Y27939D01*
X235724Y40606D01*
X240641Y40606D01*
X240641Y30145D01*
X240468Y29499D01*
X240133Y28920D01*
X239660Y28447D01*
X239081Y28112D01*
X238435Y27939D01*
X235724Y27939D01*
G37*
%LPD*%
%LPC*%
G36*
X226059Y45354D02*
X226059Y45354D01*
X226059Y55815D01*
X226232Y56461D01*
X226567Y57040D01*
X227040Y57513D01*
X227619Y57848D01*
X228265Y58021D01*
X230976Y58021D01*
X230976Y45354D01*
X226059Y45354D01*
G37*
%LPD*%
%LPC*%
G36*
X228265Y27939D02*
X228265Y27939D01*
X227619Y28112D01*
X227040Y28447D01*
X226567Y28920D01*
X226232Y29499D01*
X226059Y30145D01*
X226059Y40606D01*
X230976Y40606D01*
X230976Y27939D01*
X228265Y27939D01*
G37*
%LPD*%
%LPC*%
G36*
X380124Y27939D02*
X380124Y27939D01*
X380124Y38606D01*
X385541Y38606D01*
X385541Y30145D01*
X385368Y29499D01*
X385033Y28920D01*
X384560Y28447D01*
X383981Y28112D01*
X383335Y27939D01*
X380124Y27939D01*
G37*
%LPD*%
%LPC*%
G36*
X371165Y27939D02*
X371165Y27939D01*
X370519Y28112D01*
X369940Y28447D01*
X369467Y28920D01*
X369132Y29499D01*
X368959Y30145D01*
X368959Y38606D01*
X374376Y38606D01*
X374376Y27939D01*
X371165Y27939D01*
G37*
%LPD*%
%LPC*%
G36*
X519891Y32031D02*
X519891Y32031D01*
X519891Y40737D01*
X520418Y40654D01*
X522053Y40122D01*
X523585Y39342D01*
X524976Y38331D01*
X526191Y37116D01*
X527202Y35725D01*
X527982Y34193D01*
X528514Y32558D01*
X528597Y32031D01*
X519891Y32031D01*
G37*
%LPD*%
%LPC*%
G36*
X507123Y32031D02*
X507123Y32031D01*
X507206Y32558D01*
X507738Y34193D01*
X508518Y35725D01*
X509529Y37116D01*
X510744Y38331D01*
X512135Y39342D01*
X513667Y40122D01*
X515302Y40654D01*
X515829Y40737D01*
X515829Y32031D01*
X507123Y32031D01*
G37*
%LPD*%
%LPC*%
G36*
X519891Y27969D02*
X519891Y27969D01*
X528597Y27969D01*
X528514Y27442D01*
X527982Y25807D01*
X527202Y24275D01*
X526191Y22884D01*
X524976Y21669D01*
X523585Y20658D01*
X522053Y19878D01*
X520418Y19346D01*
X519891Y19263D01*
X519891Y27969D01*
G37*
%LPD*%
%LPC*%
G36*
X515302Y19346D02*
X515302Y19346D01*
X513667Y19878D01*
X512135Y20658D01*
X510744Y21669D01*
X509529Y22884D01*
X508518Y24275D01*
X507738Y25807D01*
X507206Y27442D01*
X507123Y27969D01*
X515829Y27969D01*
X515829Y19263D01*
X515302Y19346D01*
G37*
%LPD*%
%LPC*%
G36*
X630075Y472245D02*
X630075Y472245D01*
X630075Y478089D01*
X634179Y478089D01*
X635749Y477776D01*
X637228Y477164D01*
X638560Y476274D01*
X639692Y475142D01*
X640582Y473810D01*
X641194Y472331D01*
X641211Y472245D01*
X630075Y472245D01*
G37*
%LPD*%
%LPC*%
G36*
X630075Y446845D02*
X630075Y446845D01*
X630075Y452689D01*
X634179Y452689D01*
X635749Y452376D01*
X637228Y451764D01*
X638560Y450874D01*
X639692Y449742D01*
X640582Y448410D01*
X641194Y446931D01*
X641211Y446845D01*
X630075Y446845D01*
G37*
%LPD*%
%LPC*%
G36*
X614369Y446845D02*
X614369Y446845D01*
X614386Y446931D01*
X614998Y448410D01*
X615888Y449742D01*
X617020Y450874D01*
X618352Y451764D01*
X619831Y452376D01*
X621401Y452689D01*
X625505Y452689D01*
X625505Y446845D01*
X614369Y446845D01*
G37*
%LPD*%
%LPC*%
G36*
X614369Y472245D02*
X614369Y472245D01*
X614386Y472331D01*
X614998Y473810D01*
X615888Y475142D01*
X617020Y476274D01*
X618352Y477164D01*
X619831Y477776D01*
X621401Y478089D01*
X625505Y478089D01*
X625505Y472245D01*
X614369Y472245D01*
G37*
%LPD*%
%LPC*%
G36*
X630075Y461831D02*
X630075Y461831D01*
X630075Y467675D01*
X641211Y467675D01*
X641194Y467589D01*
X640582Y466110D01*
X639692Y464778D01*
X638560Y463646D01*
X637228Y462756D01*
X635749Y462144D01*
X634179Y461831D01*
X630075Y461831D01*
G37*
%LPD*%
%LPC*%
G36*
X630075Y436431D02*
X630075Y436431D01*
X630075Y442275D01*
X641211Y442275D01*
X641194Y442189D01*
X640582Y440710D01*
X639692Y439378D01*
X638560Y438246D01*
X637228Y437356D01*
X636538Y437070D01*
X636537Y437070D01*
X635749Y436744D01*
X634179Y436431D01*
X630075Y436431D01*
G37*
%LPD*%
%LPC*%
G36*
X621401Y461831D02*
X621401Y461831D01*
X619831Y462144D01*
X618352Y462756D01*
X617020Y463646D01*
X615888Y464778D01*
X614998Y466110D01*
X614386Y467589D01*
X614369Y467675D01*
X625505Y467675D01*
X625505Y461831D01*
X621401Y461831D01*
G37*
%LPD*%
%LPC*%
G36*
X621401Y436431D02*
X621401Y436431D01*
X619831Y436744D01*
X618352Y437356D01*
X617020Y438246D01*
X615888Y439378D01*
X614998Y440710D01*
X614386Y442189D01*
X614369Y442275D01*
X625505Y442275D01*
X625505Y436431D01*
X621401Y436431D01*
G37*
%LPD*%
%LPC*%
G36*
X27702Y355599D02*
X27702Y355599D01*
X27478Y355823D01*
X27478Y356139D01*
X27702Y356363D01*
X30362Y356363D01*
X30380Y356365D01*
X30397Y356363D01*
X30580Y356384D01*
X30762Y356403D01*
X30780Y356408D01*
X30797Y356410D01*
X30972Y356467D01*
X31147Y356521D01*
X31163Y356529D01*
X31180Y356535D01*
X31340Y356625D01*
X31501Y356713D01*
X31515Y356724D01*
X31531Y356733D01*
X31670Y356853D01*
X31811Y356970D01*
X31822Y356984D01*
X31835Y356996D01*
X31948Y357141D01*
X32063Y357284D01*
X32071Y357300D01*
X32082Y357314D01*
X32164Y357479D01*
X32249Y357641D01*
X32253Y357658D01*
X32261Y357674D01*
X32309Y357853D01*
X32360Y358028D01*
X32361Y358046D01*
X32366Y358063D01*
X32393Y358394D01*
X32393Y363511D01*
X32617Y363735D01*
X32933Y363735D01*
X33326Y363342D01*
X33415Y363182D01*
X33506Y363012D01*
X33512Y363006D01*
X33516Y362998D01*
X33642Y362850D01*
X33764Y362703D01*
X33771Y362698D01*
X33777Y362691D01*
X33929Y362571D01*
X34078Y362451D01*
X34086Y362447D01*
X34093Y362441D01*
X34265Y362354D01*
X34435Y362265D01*
X34444Y362263D01*
X34452Y362259D01*
X34638Y362207D01*
X34822Y362154D01*
X34831Y362153D01*
X34840Y362151D01*
X35032Y362137D01*
X35223Y362121D01*
X35232Y362122D01*
X35241Y362121D01*
X35434Y362146D01*
X35623Y362168D01*
X35632Y362171D01*
X35641Y362172D01*
X35823Y362233D01*
X36006Y362293D01*
X36014Y362297D01*
X36022Y362300D01*
X36188Y362395D01*
X36357Y362491D01*
X36363Y362497D01*
X36371Y362501D01*
X36624Y362716D01*
X37643Y363735D01*
X37960Y363735D01*
X38778Y362917D01*
X38778Y362916D01*
X39822Y361873D01*
X39822Y361872D01*
X40641Y361054D01*
X40641Y355823D01*
X40417Y355599D01*
X40101Y355599D01*
X39877Y355823D01*
X39877Y357254D01*
X39875Y357272D01*
X39877Y357290D01*
X39856Y357472D01*
X39837Y357655D01*
X39832Y357672D01*
X39830Y357690D01*
X39773Y357864D01*
X39719Y358040D01*
X39711Y358055D01*
X39705Y358072D01*
X39615Y358233D01*
X39527Y358394D01*
X39516Y358407D01*
X39507Y358423D01*
X39387Y358562D01*
X39270Y358703D01*
X39256Y358714D01*
X39244Y358728D01*
X39100Y358840D01*
X38956Y358955D01*
X38940Y358964D01*
X38926Y358974D01*
X38761Y359056D01*
X38599Y359141D01*
X38582Y359146D01*
X38566Y359154D01*
X38387Y359202D01*
X38212Y359252D01*
X38194Y359254D01*
X38177Y359258D01*
X37846Y359285D01*
X37757Y359285D01*
X37739Y359284D01*
X37722Y359285D01*
X37539Y359264D01*
X37357Y359245D01*
X37339Y359240D01*
X37322Y359238D01*
X37147Y359181D01*
X36972Y359127D01*
X36956Y359119D01*
X36939Y359113D01*
X36779Y359023D01*
X36618Y358936D01*
X36604Y358924D01*
X36588Y358915D01*
X36449Y358795D01*
X36308Y358678D01*
X36297Y358664D01*
X36284Y358652D01*
X36171Y358507D01*
X36056Y358364D01*
X36048Y358348D01*
X36037Y358334D01*
X35955Y358169D01*
X35870Y358007D01*
X35866Y357990D01*
X35858Y357974D01*
X35810Y357796D01*
X35759Y357620D01*
X35758Y357602D01*
X35753Y357585D01*
X35726Y357254D01*
X35726Y355823D01*
X35502Y355599D01*
X35085Y355599D01*
X34991Y355647D01*
X34829Y355733D01*
X34812Y355738D01*
X34796Y355746D01*
X34618Y355796D01*
X34443Y355848D01*
X34425Y355850D01*
X34408Y355854D01*
X34224Y355868D01*
X34042Y355884D01*
X34024Y355882D01*
X34006Y355884D01*
X33824Y355861D01*
X33642Y355841D01*
X33625Y355836D01*
X33607Y355833D01*
X33433Y355775D01*
X33258Y355719D01*
X33242Y355711D01*
X33225Y355705D01*
X33065Y355613D01*
X33040Y355599D01*
X27702Y355599D01*
G37*
%LPD*%
%LPC*%
G36*
X280274Y167104D02*
X280274Y167104D01*
X280274Y172521D01*
X285235Y172521D01*
X285881Y172348D01*
X286460Y172013D01*
X286933Y171540D01*
X287268Y170961D01*
X287441Y170315D01*
X287441Y167104D01*
X280274Y167104D01*
G37*
%LPD*%
%LPC*%
G36*
X358074Y167104D02*
X358074Y167104D01*
X358074Y172521D01*
X363035Y172521D01*
X363681Y172348D01*
X364260Y172013D01*
X364733Y171540D01*
X365068Y170961D01*
X365241Y170315D01*
X365241Y167104D01*
X358074Y167104D01*
G37*
%LPD*%
%LPC*%
G36*
X345159Y167104D02*
X345159Y167104D01*
X345159Y170315D01*
X345332Y170961D01*
X345667Y171540D01*
X346140Y172013D01*
X346719Y172348D01*
X347365Y172521D01*
X352326Y172521D01*
X352326Y167104D01*
X345159Y167104D01*
G37*
%LPD*%
%LPC*%
G36*
X347365Y155939D02*
X347365Y155939D01*
X346719Y156112D01*
X346140Y156447D01*
X345667Y156920D01*
X345332Y157499D01*
X345159Y158145D01*
X345159Y161356D01*
X352326Y161356D01*
X352326Y155939D01*
X347365Y155939D01*
G37*
%LPD*%
%LPC*%
G36*
X280274Y155939D02*
X280274Y155939D01*
X280274Y161356D01*
X287441Y161356D01*
X287441Y158145D01*
X287268Y157499D01*
X286933Y156920D01*
X286460Y156447D01*
X285881Y156112D01*
X285235Y155939D01*
X280274Y155939D01*
G37*
%LPD*%
%LPC*%
G36*
X73185Y436918D02*
X73185Y436918D01*
X72648Y437724D01*
X72638Y437736D01*
X72630Y437749D01*
X72511Y437891D01*
X72392Y438035D01*
X72380Y438045D01*
X72370Y438057D01*
X72225Y438171D01*
X72080Y438290D01*
X72067Y438297D01*
X72054Y438307D01*
X71890Y438391D01*
X71724Y438478D01*
X71709Y438482D01*
X71696Y438489D01*
X71518Y438539D01*
X71338Y438592D01*
X71323Y438594D01*
X71308Y438598D01*
X71124Y438612D01*
X70937Y438628D01*
X70922Y438627D01*
X70906Y438628D01*
X70722Y438605D01*
X70537Y438584D01*
X70522Y438580D01*
X70507Y438578D01*
X70331Y438519D01*
X70153Y438462D01*
X70140Y438455D01*
X70125Y438450D01*
X69965Y438358D01*
X69801Y438267D01*
X69789Y438257D01*
X69776Y438249D01*
X69637Y438128D01*
X69495Y438006D01*
X69485Y437994D01*
X69473Y437984D01*
X69267Y437724D01*
X68730Y436918D01*
X68420Y436856D01*
X68157Y437031D01*
X68095Y437341D01*
X69747Y439820D01*
X69757Y439838D01*
X69769Y439854D01*
X69852Y440016D01*
X69937Y440176D01*
X69942Y440195D01*
X69951Y440213D01*
X70000Y440388D01*
X70052Y440562D01*
X70054Y440582D01*
X70059Y440601D01*
X70072Y440782D01*
X70089Y440963D01*
X70086Y440983D01*
X70088Y441003D01*
X70065Y441183D01*
X70046Y441363D01*
X70040Y441382D01*
X70037Y441402D01*
X69979Y441574D01*
X69925Y441747D01*
X69915Y441765D01*
X69908Y441784D01*
X69747Y442074D01*
X68095Y444553D01*
X68157Y444863D01*
X68420Y445039D01*
X68730Y444977D01*
X69267Y444170D01*
X69277Y444158D01*
X69285Y444145D01*
X69404Y444004D01*
X69523Y443859D01*
X69535Y443849D01*
X69545Y443838D01*
X69690Y443723D01*
X69835Y443605D01*
X69848Y443597D01*
X69860Y443588D01*
X70025Y443504D01*
X70190Y443416D01*
X70205Y443412D01*
X70219Y443405D01*
X70397Y443355D01*
X70576Y443302D01*
X70592Y443301D01*
X70607Y443296D01*
X70791Y443283D01*
X70977Y443266D01*
X70993Y443268D01*
X71008Y443267D01*
X71193Y443290D01*
X71378Y443310D01*
X71392Y443315D01*
X71408Y443317D01*
X71584Y443375D01*
X71761Y443432D01*
X71775Y443439D01*
X71790Y443444D01*
X71949Y443536D01*
X72114Y443627D01*
X72126Y443637D01*
X72139Y443645D01*
X72278Y443767D01*
X72420Y443888D01*
X72430Y443900D01*
X72442Y443910D01*
X72648Y444170D01*
X73185Y444977D01*
X73495Y445039D01*
X73522Y445020D01*
X73539Y445012D01*
X73554Y445000D01*
X73717Y444917D01*
X73878Y444831D01*
X73896Y444826D01*
X73913Y444817D01*
X74089Y444768D01*
X74263Y444716D01*
X74282Y444714D01*
X74301Y444709D01*
X74483Y444696D01*
X74664Y444679D01*
X74683Y444681D01*
X74702Y444680D01*
X74884Y444703D01*
X75065Y444722D01*
X75083Y444728D01*
X75102Y444730D01*
X75275Y444788D01*
X75449Y444843D01*
X75465Y444853D01*
X75483Y444859D01*
X75641Y444950D01*
X75760Y445015D01*
X81057Y445015D01*
X81281Y444791D01*
X81281Y444475D01*
X81057Y444252D01*
X80855Y444252D01*
X80837Y444250D01*
X80819Y444251D01*
X80637Y444230D01*
X80454Y444212D01*
X80437Y444206D01*
X80419Y444204D01*
X80245Y444147D01*
X80069Y444094D01*
X80053Y444085D01*
X80036Y444079D01*
X79876Y443989D01*
X79715Y443902D01*
X79701Y443890D01*
X79686Y443882D01*
X79547Y443761D01*
X79406Y443644D01*
X79395Y443630D01*
X79381Y443618D01*
X79269Y443473D01*
X79153Y443330D01*
X79145Y443314D01*
X79134Y443300D01*
X79052Y443135D01*
X78968Y442973D01*
X78963Y442956D01*
X78955Y442940D01*
X78907Y442762D01*
X78857Y442586D01*
X78855Y442568D01*
X78850Y442551D01*
X78823Y442220D01*
X78823Y437103D01*
X78600Y436879D01*
X78283Y436879D01*
X78060Y437103D01*
X78060Y442220D01*
X78058Y442238D01*
X78060Y442256D01*
X78038Y442438D01*
X78020Y442621D01*
X78015Y442638D01*
X78013Y442656D01*
X77956Y442830D01*
X77902Y443006D01*
X77893Y443022D01*
X77888Y443038D01*
X77797Y443199D01*
X77710Y443360D01*
X77699Y443374D01*
X77690Y443389D01*
X77570Y443528D01*
X77452Y443669D01*
X77438Y443680D01*
X77427Y443694D01*
X77282Y443806D01*
X77139Y443921D01*
X77123Y443930D01*
X77109Y443941D01*
X76944Y444023D01*
X76781Y444107D01*
X76764Y444112D01*
X76748Y444120D01*
X76570Y444168D01*
X76394Y444218D01*
X76377Y444220D01*
X76359Y444224D01*
X76029Y444252D01*
X75617Y444252D01*
X75587Y444267D01*
X75571Y444272D01*
X75556Y444280D01*
X75378Y444329D01*
X75201Y444382D01*
X75184Y444384D01*
X75168Y444388D01*
X74984Y444402D01*
X74800Y444419D01*
X74783Y444417D01*
X74767Y444418D01*
X74584Y444395D01*
X74400Y444375D01*
X74384Y444370D01*
X74367Y444368D01*
X74192Y444309D01*
X74016Y444254D01*
X74001Y444246D01*
X73985Y444240D01*
X73825Y444148D01*
X73664Y444059D01*
X73651Y444048D01*
X73636Y444040D01*
X73498Y443918D01*
X73357Y443798D01*
X73346Y443785D01*
X73334Y443774D01*
X73128Y443514D01*
X72167Y442074D01*
X72158Y442056D01*
X72145Y442040D01*
X72063Y441878D01*
X71978Y441718D01*
X71973Y441699D01*
X71963Y441681D01*
X71915Y441506D01*
X71863Y441333D01*
X71861Y441312D01*
X71856Y441293D01*
X71843Y441112D01*
X71826Y440932D01*
X71828Y440912D01*
X71827Y440892D01*
X71850Y440711D01*
X71869Y440531D01*
X71875Y440512D01*
X71878Y440492D01*
X71936Y440320D01*
X71990Y440147D01*
X72000Y440130D01*
X72006Y440111D01*
X72167Y439820D01*
X73820Y437341D01*
X73758Y437031D01*
X73495Y436856D01*
X73185Y436918D01*
G37*
%LPD*%
%LPC*%
G36*
X350239Y390239D02*
X350239Y390239D01*
X350239Y396337D01*
X351277Y396337D01*
X356337Y391277D01*
X356337Y390239D01*
X350239Y390239D01*
G37*
%LPD*%
%LPC*%
G36*
X350239Y379063D02*
X350239Y379063D01*
X350239Y385161D01*
X356337Y385161D01*
X356337Y384123D01*
X351277Y379063D01*
X350239Y379063D01*
G37*
%LPD*%
%LPC*%
G36*
X339063Y390239D02*
X339063Y390239D01*
X339063Y391277D01*
X344123Y396337D01*
X345161Y396337D01*
X345161Y390239D01*
X339063Y390239D01*
G37*
%LPD*%
%LPC*%
G36*
X344123Y379063D02*
X344123Y379063D01*
X339063Y384123D01*
X339063Y385161D01*
X345161Y385161D01*
X345161Y379063D01*
X344123Y379063D01*
G37*
%LPD*%
%LPC*%
G36*
X108711Y461771D02*
X108711Y461771D01*
X108711Y467041D01*
X108884Y467006D01*
X110259Y466437D01*
X111497Y465610D01*
X112550Y464557D01*
X113377Y463319D01*
X113946Y461944D01*
X113981Y461771D01*
X108711Y461771D01*
G37*
%LPD*%
%LPC*%
G36*
X108711Y457709D02*
X108711Y457709D01*
X113981Y457709D01*
X113946Y457536D01*
X113377Y456161D01*
X112550Y454923D01*
X111497Y453870D01*
X110259Y453043D01*
X108884Y452474D01*
X108711Y452439D01*
X108711Y457709D01*
G37*
%LPD*%
%LPC*%
G36*
X99379Y461771D02*
X99379Y461771D01*
X99414Y461944D01*
X99983Y463319D01*
X100810Y464557D01*
X101863Y465610D01*
X103101Y466437D01*
X104476Y467006D01*
X104649Y467041D01*
X104649Y461771D01*
X99379Y461771D01*
G37*
%LPD*%
%LPC*%
G36*
X104476Y452474D02*
X104476Y452474D01*
X103101Y453043D01*
X101863Y453870D01*
X100810Y454923D01*
X99983Y456161D01*
X99414Y457536D01*
X99379Y457709D01*
X104649Y457709D01*
X104649Y452439D01*
X104476Y452474D01*
G37*
%LPD*%
%LPC*%
G36*
X22675Y355599D02*
X22675Y355599D01*
X22452Y355823D01*
X22452Y360940D01*
X22450Y360958D01*
X22451Y360976D01*
X22430Y361158D01*
X22412Y361341D01*
X22406Y361358D01*
X22404Y361376D01*
X22347Y361550D01*
X22294Y361726D01*
X22285Y361742D01*
X22279Y361758D01*
X22189Y361919D01*
X22102Y362080D01*
X22090Y362094D01*
X22082Y362109D01*
X21961Y362248D01*
X21844Y362389D01*
X21830Y362400D01*
X21818Y362414D01*
X21673Y362526D01*
X21530Y362641D01*
X21514Y362650D01*
X21500Y362661D01*
X21335Y362743D01*
X21173Y362827D01*
X21156Y362832D01*
X21140Y362840D01*
X20962Y362888D01*
X20786Y362938D01*
X20768Y362940D01*
X20751Y362944D01*
X20420Y362972D01*
X20218Y362972D01*
X19994Y363195D01*
X19994Y363511D01*
X20218Y363735D01*
X25449Y363735D01*
X25672Y363511D01*
X25672Y363195D01*
X25449Y362972D01*
X25246Y362972D01*
X25229Y362970D01*
X25211Y362971D01*
X25028Y362950D01*
X24846Y362932D01*
X24829Y362926D01*
X24811Y362924D01*
X24636Y362867D01*
X24461Y362814D01*
X24445Y362805D01*
X24428Y362799D01*
X24268Y362709D01*
X24107Y362622D01*
X24093Y362610D01*
X24077Y362602D01*
X23938Y362481D01*
X23797Y362364D01*
X23786Y362350D01*
X23773Y362338D01*
X23660Y362193D01*
X23545Y362050D01*
X23537Y362034D01*
X23526Y362020D01*
X23444Y361855D01*
X23360Y361693D01*
X23355Y361676D01*
X23347Y361660D01*
X23299Y361482D01*
X23248Y361306D01*
X23247Y361288D01*
X23242Y361271D01*
X23215Y360940D01*
X23215Y355823D01*
X22991Y355599D01*
X22675Y355599D01*
G37*
%LPD*%
D10*
X27940Y386080D03*
X25400Y411480D03*
X27940Y436880D03*
X25400Y462280D03*
X27940Y487680D03*
X25400Y513080D03*
D11*
X622202Y444560D02*
X633378Y444560D01*
X633378Y469960D02*
X622202Y469960D01*
D12*
X347700Y336900D03*
X322300Y336900D03*
X347700Y362300D03*
X322300Y362300D03*
X347700Y387700D03*
X322300Y387700D03*
X347700Y413100D03*
X322300Y413100D03*
D13*
X162300Y413100D03*
X187700Y413100D03*
X162300Y387700D03*
X187700Y387700D03*
X162300Y362300D03*
X187700Y362300D03*
X162300Y336900D03*
X187700Y336900D03*
D10*
X318440Y452792D03*
X293040Y455332D03*
X267640Y452792D03*
X242240Y455332D03*
X216840Y452792D03*
X191440Y455332D03*
X191560Y302424D03*
X216960Y299884D03*
X242360Y302424D03*
X267760Y299884D03*
X293160Y302424D03*
X318560Y299884D03*
X629170Y366818D03*
X629170Y395774D03*
X431684Y377154D03*
X431684Y406110D03*
X118542Y180560D03*
X147498Y180560D03*
X405430Y135150D03*
X407970Y160550D03*
X405430Y185950D03*
D14*
X492460Y30000D03*
X517860Y30000D03*
D10*
X351282Y482600D03*
X380238Y482600D03*
D15*
X106680Y459740D03*
X81280Y459740D03*
X132080Y459740D03*
D16*
X595568Y261620D02*
X609600Y261620D01*
X609600Y287020D02*
X595568Y287020D01*
D17*
X277400Y164230D03*
X355200Y164230D03*
D18*
X377250Y41480D03*
D19*
X233350Y42980D03*
D20*
X276800Y36680D03*
X287800Y36680D03*
X298800Y36680D03*
X309800Y36680D03*
X320800Y36680D03*
X331800Y36680D03*
X342800Y36680D03*
X353800Y36680D03*
D18*
X234350Y156280D03*
D21*
X373200Y152980D03*
X373650Y62530D03*
D22*
X109530Y360280D03*
X109530Y335280D03*
X109530Y310280D03*
X53030Y360280D03*
X53030Y335280D03*
X53030Y310280D03*
D10*
X73660Y421640D03*
X104140Y421640D03*
D23*
X73660Y283210D03*
X73660Y293370D03*
D24*
X73660Y283210D01*
D23*
X91440Y283210D03*
X91440Y293370D03*
D24*
X91440Y283210D01*
D25*
X240000Y390000D03*
X270000Y375000D03*
X561876Y391110D03*
X592926Y411110D03*
X470000Y130000D03*
X630000Y150000D03*
X391160Y434340D03*
X500000Y440000D03*
X214000Y26000D03*
X204000Y104000D03*
X162000Y30000D03*
X130000Y14000D03*
X104000Y110000D03*
X139700Y266700D03*
D26*
X285000Y240000D03*
X285000Y180000D03*
D27*
X396240Y335280D03*
X406400Y254000D03*
X472440Y274320D03*
X574040Y248920D03*
D25*
X462280Y101600D03*
X441960Y76200D03*
X325120Y20320D03*
D26*
X167640Y203200D03*
X243858Y92108D03*
X45720Y269240D03*
D28*
X259080Y502920D03*
D29*
X162300Y336900D02*
X162300Y264392D01*
X223520Y203172D01*
X223520Y137160D01*
X298800Y61880D02*
X298800Y36680D01*
X298800Y61880D02*
X223520Y137160D01*
X367030Y322580D02*
X367030Y441960D01*
X344334Y299884D02*
X318560Y299884D01*
X344334Y299884D02*
X367030Y322580D01*
X327660Y481330D02*
X80010Y481330D01*
X327660Y481330D02*
X367030Y441960D01*
X80010Y481330D02*
X48260Y513080D01*
X25400Y513080D01*
D25*
X53340Y485140D03*
D29*
X48260Y480060D01*
X48260Y411480D01*
X25400Y411480D01*
X322300Y413100D02*
X340360Y431160D01*
X340360Y460368D01*
X325240Y475488D01*
X147828Y475488D02*
X132080Y459740D01*
X147828Y475488D02*
X325240Y475488D01*
X154940Y325120D02*
X142240Y337820D01*
X142240Y370840D01*
X147320Y375920D01*
X167640Y375920D01*
X154940Y325120D02*
X154940Y261620D01*
X177794Y365766D02*
X167640Y375920D01*
X177794Y346806D02*
X187700Y336900D01*
X177794Y346806D02*
X177794Y365766D01*
X217678Y198882D02*
X217678Y134740D01*
X287800Y64618D02*
X287800Y36680D01*
X287800Y64618D02*
X217678Y134740D01*
X217678Y198882D02*
X154940Y261620D01*
X178352Y264864D02*
X178352Y310432D01*
X197606Y329686D02*
X197606Y352394D01*
X197606Y329686D02*
X178352Y310432D01*
X197606Y352394D02*
X187700Y362300D01*
X264160Y179056D02*
X264160Y147320D01*
X264160Y179056D02*
X178352Y264864D01*
X342800Y68680D02*
X342800Y36680D01*
X342800Y68680D02*
X264160Y147320D01*
X172510Y262444D02*
X172510Y340699D01*
X162300Y350909D01*
X162300Y362300D01*
X320800Y80520D02*
X320800Y36680D01*
X320800Y80520D02*
X258318Y143002D01*
X258318Y176636D01*
X172510Y262444D01*
D25*
X134620Y289560D03*
D29*
X129540Y294640D01*
X187700Y387700D02*
X174080Y401320D01*
X157480Y401320D01*
X129540Y373380D01*
X129540Y294640D01*
X53030Y335280D02*
X53030Y342590D01*
X83820Y373380D01*
X73660Y307340D02*
X73660Y293370D01*
X53030Y327970D02*
X53030Y335280D01*
X53030Y327970D02*
X73660Y307340D01*
D26*
X83820Y373380D03*
D25*
X118110Y248920D03*
D29*
X53030Y289870D02*
X53030Y310280D01*
X53030Y289870D02*
X59690Y283210D01*
X73660Y266700D02*
X91440Y248920D01*
X73660Y266700D02*
X73660Y283210D01*
X59690Y283210D01*
X91440Y248920D02*
X118110Y248920D01*
D25*
X129540Y233680D03*
D29*
X129540Y259722D01*
X106052Y283210D02*
X91440Y283210D01*
X106052Y283210D02*
X129540Y259722D01*
X109530Y286060D02*
X109530Y310280D01*
X109530Y286060D02*
X106680Y283210D01*
X91440Y283210D01*
X111760Y335280D02*
X121920Y345440D01*
X111760Y335280D02*
X109530Y335280D01*
X109530Y327970D01*
X91440Y309880D01*
X91440Y293370D01*
X153766Y423006D02*
X177794Y423006D01*
X187700Y413100D01*
X153766Y423006D02*
X121920Y391160D01*
X121920Y345440D01*
X109530Y416250D02*
X104140Y421640D01*
X109530Y416250D02*
X109530Y360280D01*
X68580Y375830D02*
X68580Y416560D01*
X68580Y375830D02*
X53030Y360280D01*
X68580Y416560D02*
X73660Y421640D01*
X309800Y81360D02*
X309800Y36680D01*
X309800Y81360D02*
X294640Y96520D01*
D26*
X284480Y96520D03*
D29*
X294640Y96520D01*
M02*
